<svg width="50" height="50" viewBox="0 0 50 50" fill="none" xmlns="http://www.w3.org/2000/svg">
<path d="M7.38945 41.9666C7.28945 41.9666 7.18389 41.9277 7.10611 41.85C6.95056 41.6944 6.95612 41.4444 7.11167 41.2889L13.5117 35.0055C13.6728 34.85 13.9228 34.8555 14.0728 35.0111C14.2283 35.1666 14.2228 35.4166 14.0672 35.5722L7.66723 41.8555C7.58945 41.9277 7.48945 41.9666 7.38945 41.9666Z" fill="#2C1E2F"/>
<path d="M33.3562 15.8833C33.2562 15.8833 33.1507 15.8444 33.0729 15.7666C32.9174 15.6111 32.9229 15.3611 33.0785 15.2055L41.4618 6.93888C41.6173 6.78332 41.8729 6.78888 42.0229 6.94443C42.1785 7.09999 42.1729 7.34999 42.0173 7.50554L33.634 15.7722C33.5562 15.8444 33.4562 15.8833 33.3562 15.8833Z" fill="#2C1E2F"/>
<path d="M25 50C11.2167 50 0 38.7833 0 25C0 11.2167 11.2111 0 25 0C38.7889 0 50 11.2167 50 25C50 38.7833 38.7833 50 25 50ZM25 0.794445C11.6556 0.794445 0.794447 11.65 0.794447 25C0.794447 38.35 11.6556 49.2056 25 49.2056C38.35 49.2056 49.2056 38.35 49.2056 25C49.2056 11.65 38.3445 0.794445 25 0.794445Z" fill="#2C1E2F"/>
<path d="M14.6668 35.6834C13.6501 35.5667 12.9668 34.8667 12.9668 33.9834V24.0112C12.9668 17.3778 18.3612 11.9834 24.9946 11.9834C31.6279 11.9834 37.0223 17.3778 37.0223 24.0112V33.9001C37.0223 34.8056 36.3112 35.5723 35.3723 35.6834H14.6668ZM25.0001 12.7778C18.8057 12.7778 13.7612 17.8167 13.7612 24.0112V33.9834C13.7612 34.5334 14.239 34.8334 14.7112 34.889L35.3279 34.8834C35.8223 34.8223 36.2335 34.3945 36.2335 33.8945V24.0056C36.2335 17.8167 31.1946 12.7778 25.0001 12.7778Z" fill="#2C1E2F"/>
</svg>
