<svg width="91" height="8" viewBox="0 0 91 8" fill="none" xmlns="http://www.w3.org/2000/svg">
<path d="M90.3536 4.35355C90.5488 4.15829 90.5488 3.84171 90.3536 3.64645L87.1716 0.464466C86.9763 0.269204 86.6597 0.269204 86.4645 0.464466C86.2692 0.659728 86.2692 0.976311 86.4645 1.17157L89.2929 4L86.4645 6.82843C86.2692 7.02369 86.2692 7.34027 86.4645 7.53553C86.6597 7.7308 86.9763 7.7308 87.1716 7.53553L90.3536 4.35355ZM0 4.5C0.0686468 4.5 0.137235 4.5 0.205764 4.5C0.274293 4.5 0.342764 4.5 0.411176 4.5C0.479588 4.5 0.547942 4.5 0.616237 4.5C0.684533 4.5 0.75277 4.5 0.820949 4.5C0.889129 4.5 0.95725 4.5 1.02531 4.5C1.09338 4.5 1.16138 4.5 1.22933 4.5C1.29728 4.5 1.36517 4.5 1.433 4.5C1.50084 4.5 1.56861 4.5 1.63633 4.5C1.70405 4.5 1.77171 4.5 1.83932 4.5C1.90692 4.5 1.97447 4.5 2.04196 4.5C2.10946 4.5 2.17689 4.5 2.24427 4.5C2.31165 4.5 2.37897 4.5 2.44624 4.5C2.5135 4.5 2.58071 4.5 2.64787 4.5C2.71502 4.5 2.78212 4.5 2.84916 4.5C2.91621 4.5 2.98319 4.5 3.05012 4.5C3.11706 4.5 3.18393 4.5 3.25075 4.5C3.31757 4.5 3.38434 4.5 3.45105 4.5C3.51776 4.5 3.58442 4.5 3.65102 4.5C3.71762 4.5 3.78416 4.5 3.85065 4.5C3.91715 4.5 3.98358 4.5 4.04997 4.5C4.11635 4.5 4.18268 4.5 4.24895 4.5C4.31523 4.5 4.38145 4.5 4.44761 4.5C4.51378 4.5 4.57989 4.5 4.64595 4.5C4.71201 4.5 4.77801 4.5 4.84397 4.5C4.90992 4.5 4.97582 4.5 5.04166 4.5C5.10751 4.5 5.1733 4.5 5.23904 4.5C5.30478 4.5 5.37046 4.5 5.4361 4.5C5.50173 4.5 5.56731 4.5 5.63284 4.5C5.69837 4.5 5.76385 4.5 5.82927 4.5C5.89469 4.5 5.96007 4.5 6.02539 4.5C6.09071 4.5 6.15597 4.5 6.22119 4.5C6.2864 4.5 6.35157 4.5 6.41668 4.5C6.48179 4.5 6.54685 4.5 6.61186 4.5C6.67687 4.5 6.74183 4.5 6.80674 4.5C6.87165 4.5 6.9365 4.5 7.00131 4.5C7.06611 4.5 7.13087 4.5 7.19557 4.5C7.26028 4.5 7.32493 4.5 7.38953 4.5C7.45414 4.5 7.51869 4.5 7.58319 4.5C7.64769 4.5 7.71215 4.5 7.77655 4.5C7.84095 4.5 7.9053 4.5 7.9696 4.5C8.03391 4.5 8.09816 4.5 8.16236 4.5C8.22657 4.5 8.29072 4.5 8.35483 4.5C8.41893 4.5 8.48299 4.5 8.54699 4.5C8.611 4.5 8.67496 4.5 8.73886 4.5C8.80277 4.5 8.86663 4.5 8.93044 4.5C8.99426 4.5 9.05802 4.5 9.12173 4.5C9.18545 4.5 9.24911 4.5 9.31273 4.5C9.37635 4.5 9.43992 4.5 9.50344 4.5C9.56697 4.5 9.63044 4.5 9.69387 4.5C9.75729 4.5 9.82067 4.5 9.884 4.5C9.94733 4.5 10.0106 4.5 10.0739 4.5C10.1371 4.5 10.2003 4.5 10.2634 4.5C10.3266 4.5 10.3897 4.5 10.4527 4.5C10.5158 4.5 10.5788 4.5 10.6417 4.5C10.7047 4.5 10.7676 4.5 10.8305 4.5C10.8933 4.5 10.9561 4.5 11.0189 4.5C11.0817 4.5 11.1444 4.5 11.2071 4.5C11.2698 4.5 11.3324 4.5 11.395 4.5C11.4576 4.5 11.5201 4.5 11.5826 4.5C11.6451 4.5 11.7076 4.5 11.77 4.5C11.8324 4.5 11.8947 4.5 11.957 4.5C12.0194 4.5 12.0816 4.5 12.1439 4.5C12.2061 4.5 12.2683 4.5 12.3304 4.5C12.3925 4.5 12.4546 4.5 12.5167 4.5C12.5787 4.5 12.6407 4.5 12.7027 4.5C12.7647 4.5 12.8266 4.5 12.8885 4.5C12.9503 4.5 13.0122 4.5 13.0739 4.5C13.1357 4.5 13.1975 4.5 13.2592 4.5C13.3209 4.5 13.3825 4.5 13.4441 4.5C13.5058 4.5 13.5673 4.5 13.6289 4.5C13.6904 4.5 13.7519 4.5 13.8133 4.5C13.8748 4.5 13.9362 4.5 13.9975 4.5C14.0589 4.5 14.1202 4.5 14.1815 4.5C14.2427 4.5 14.304 4.5 14.3652 4.5C14.4263 4.5 14.4875 4.5 14.5486 4.5C14.6097 4.5 14.6708 4.5 14.7318 4.5C14.7928 4.5 14.8538 4.5 14.9147 4.5C14.9757 4.5 15.0366 4.5 15.0974 4.5C15.1583 4.5 15.2191 4.5 15.2799 4.5C15.3406 4.5 15.4014 4.5 15.4621 4.5C15.5228 4.5 15.5834 4.5 15.644 4.5C15.7047 4.5 15.7652 4.5 15.8258 4.5C15.8863 4.5 15.9468 4.5 16.0072 4.5C16.0677 4.5 16.1281 4.5 16.1885 4.5C16.2489 4.5 16.3092 4.5 16.3695 4.5C16.4298 4.5 16.49 4.5 16.5503 4.5C16.6105 4.5 16.6707 4.5 16.7308 4.5C16.7909 4.5 16.851 4.5 16.9111 4.5C16.9712 4.5 17.0312 4.5 17.0912 4.5C17.1511 4.5 17.2111 4.5 17.271 4.5C17.3309 4.5 17.3908 4.5 17.4506 4.5C17.5104 4.5 17.5702 4.5 17.63 4.5C17.6897 4.5 17.7495 4.5 17.8091 4.5C17.8688 4.5 17.9285 4.5 17.9881 4.5C18.0477 4.5 18.1073 4.5 18.1668 4.5C18.2263 4.5 18.2858 4.5 18.3453 4.5C18.4047 4.5 18.4641 4.5 18.5235 4.5C18.5829 4.5 18.6423 4.5 18.7016 4.5C18.7609 4.5 18.8202 4.5 18.8794 4.5C18.9386 4.5 18.9978 4.5 19.057 4.5C19.1162 4.5 19.1753 4.5 19.2344 4.5C19.2935 4.5 19.3526 4.5 19.4116 4.5C19.4706 4.5 19.5296 4.5 19.5885 4.5C19.6475 4.5 19.7064 4.5 19.7653 4.5C19.8242 4.5 19.883 4.5 19.9418 4.5C20.0007 4.5 20.0594 4.5 20.1182 4.5C20.1769 4.5 20.2356 4.5 20.2943 4.5C20.353 4.5 20.4116 4.5 20.4702 4.5C20.5288 4.5 20.5874 4.5 20.646 4.5C20.7045 4.5 20.763 4.5 20.8215 4.5C20.8799 4.5 20.9384 4.5 20.9968 4.5C21.0552 4.5 21.1136 4.5 21.1719 4.5C21.2302 4.5 21.2885 4.5 21.3468 4.5C21.4051 4.5 21.4633 4.5 21.5215 4.5C21.5797 4.5 21.6379 4.5 21.6961 4.5C21.7542 4.5 21.8123 4.5 21.8704 4.5C21.9285 4.5 21.9865 4.5 22.0445 4.5C22.1025 4.5 22.1605 4.5 22.2185 4.5C22.2764 4.5 22.3343 4.5 22.3922 4.5C22.4501 4.5 22.508 4.5 22.5658 4.5C22.6236 4.5 22.6814 4.5 22.7392 4.5C22.7969 4.5 22.8546 4.5 22.9123 4.5C22.97 4.5 23.0277 4.5 23.0854 4.5C23.143 4.5 23.2006 4.5 23.2582 4.5C23.3157 4.5 23.3733 4.5 23.4308 4.5C23.4883 4.5 23.5458 4.5 23.6033 4.5C23.6607 4.5 23.7181 4.5 23.7755 4.5C23.8329 4.5 23.8903 4.5 23.9476 4.5C24.005 4.5 24.0623 4.5 24.1196 4.5C24.1768 4.5 24.2341 4.5 24.2913 4.5C24.3485 4.5 24.4057 4.5 24.4629 4.5C24.5201 4.5 24.5772 4.5 24.6343 4.5C24.6914 4.5 24.7485 4.5 24.8055 4.5C24.8626 4.5 24.9196 4.5 24.9766 4.5C25.0336 4.5 25.0905 4.5 25.1475 4.5C25.2044 4.5 25.2613 4.5 25.3182 4.5C25.3751 4.5 25.4319 4.5 25.4888 4.5C25.5456 4.5 25.6024 4.5 25.6592 4.5C25.7159 4.5 25.7727 4.5 25.8294 4.5C25.8861 4.5 25.9428 4.5 25.9995 4.5C26.0561 4.5 26.1128 4.5 26.1694 4.5C26.226 4.5 26.2826 4.5 26.3391 4.5C26.3957 4.5 26.4522 4.5 26.5087 4.5C26.5652 4.5 26.6217 4.5 26.6782 4.5C26.7346 4.5 26.791 4.5 26.8474 4.5C26.9038 4.5 26.9602 4.5 27.0166 4.5C27.0729 4.5 27.1292 4.5 27.1855 4.5C27.2418 4.5 27.2981 4.5 27.3544 4.5C27.4106 4.5 27.4668 4.5 27.5231 4.5C27.5793 4.5 27.6354 4.5 27.6916 4.5C27.7477 4.5 27.8039 4.5 27.86 4.5C27.9161 4.5 27.9721 4.5 28.0282 4.5C28.0843 4.5 28.1403 4.5 28.1963 4.5C28.2523 4.5 28.3083 4.5 28.3643 4.5C28.4202 4.5 28.4762 4.5 28.5321 4.5C28.588 4.5 28.6439 4.5 28.6997 4.5C28.7556 4.5 28.8115 4.5 28.8673 4.5C28.9231 4.5 28.9789 4.5 29.0347 4.5C29.0905 4.5 29.1462 4.5 29.2019 4.5C29.2577 4.5 29.3134 4.5 29.3691 4.5C29.4248 4.5 29.4804 4.5 29.5361 4.5C29.5917 4.5 29.6473 4.5 29.7029 4.5C29.7585 4.5 29.8141 4.5 29.8697 4.5C29.9252 4.5 29.9808 4.5 30.0363 4.5C30.0918 4.5 30.1473 4.5 30.2028 4.5C30.2582 4.5 30.3137 4.5 30.3691 4.5C30.4245 4.5 30.48 4.5 30.5353 4.5C30.5907 4.5 30.6461 4.5 30.7015 4.5C30.7568 4.5 30.8121 4.5 30.8674 4.5C30.9228 4.5 30.978 4.5 31.0333 4.5C31.0886 4.5 31.1438 4.5 31.1991 4.5C31.2543 4.5 31.3095 4.5 31.3647 4.5C31.4199 4.5 31.475 4.5 31.5302 4.5C31.5854 4.5 31.6405 4.5 31.6956 4.5C31.7507 4.5 31.8058 4.5 31.8609 4.5C31.916 4.5 31.971 4.5 32.0261 4.5C32.0811 4.5 32.1361 4.5 32.1911 4.5C32.2461 4.5 32.3011 4.5 32.3561 4.5C32.411 4.5 32.466 4.5 32.5209 4.5C32.5759 4.5 32.6308 4.5 32.6857 4.5C32.7406 4.5 32.7954 4.5 32.8503 4.5C32.9052 4.5 32.96 4.5 33.0148 4.5C33.0697 4.5 33.1245 4.5 33.1793 4.5C33.2341 4.5 33.2888 4.5 33.3436 4.5C33.3984 4.5 33.4531 4.5 33.5078 4.5C33.5626 4.5 33.6173 4.5 33.672 4.5C33.7267 4.5 33.7813 4.5 33.836 4.5C33.8907 4.5 33.9453 4.5 33.9999 4.5C34.0546 4.5 34.1092 4.5 34.1638 4.5C34.2184 4.5 34.273 4.5 34.3275 4.5C34.3821 4.5 34.4367 4.5 34.4912 4.5C34.5457 4.5 34.6003 4.5 34.6548 4.5C34.7093 4.5 34.7638 4.5 34.8183 4.5C34.8727 4.5 34.9272 4.5 34.9817 4.5C35.0361 4.5 35.0905 4.5 35.145 4.5C35.1994 4.5 35.2538 4.5 35.3082 4.5C35.3626 4.5 35.417 4.5 35.4713 4.5C35.5257 4.5 35.5801 4.5 35.6344 4.5C35.6888 4.5 35.7431 4.5 35.7974 4.5C35.8517 4.5 35.906 4.5 35.9603 4.5C36.0146 4.5 36.0689 4.5 36.1231 4.5C36.1774 4.5 36.2316 4.5 36.2859 4.5C36.3401 4.5 36.3943 4.5 36.4486 4.5C36.5028 4.5 36.557 4.5 36.6112 4.5C36.6654 4.5 36.7195 4.5 36.7737 4.5C36.8279 4.5 36.882 4.5 36.9362 4.5C36.9903 4.5 37.0444 4.5 37.0985 4.5C37.1527 4.5 37.2068 4.5 37.2609 4.5C37.315 4.5 37.3691 4.5 37.4231 4.5C37.4772 4.5 37.5313 4.5 37.5853 4.5C37.6394 4.5 37.6934 4.5 37.7475 4.5C37.8015 4.5 37.8555 4.5 37.9095 4.5C37.9635 4.5 38.0175 4.5 38.0715 4.5C38.1255 4.5 38.1795 4.5 38.2335 4.5C38.2875 4.5 38.3414 4.5 38.3954 4.5C38.4493 4.5 38.5033 4.5 38.5572 4.5C38.6111 4.5 38.6651 4.5 38.719 4.5C38.7729 4.5 38.8268 4.5 38.8807 4.5C38.9346 4.5 38.9885 4.5 39.0424 4.5C39.0963 4.5 39.1501 4.5 39.204 4.5C39.2579 4.5 39.3117 4.5 39.3656 4.5C39.4194 4.5 39.4733 4.5 39.5271 4.5C39.5809 4.5 39.6348 4.5 39.6886 4.5C39.7424 4.5 39.7962 4.5 39.85 4.5C39.9038 4.5 39.9576 4.5 40.0114 4.5C40.0652 4.5 40.119 4.5 40.1727 4.5C40.2265 4.5 40.2803 4.5 40.334 4.5C40.3878 4.5 40.4416 4.5 40.4953 4.5C40.5491 4.5 40.6028 4.5 40.6565 4.5C40.7103 4.5 40.764 4.5 40.8177 4.5C40.8714 4.5 40.9252 4.5 40.9789 4.5C41.0326 4.5 41.0863 4.5 41.14 4.5C41.1937 4.5 41.2474 4.5 41.3011 4.5C41.3548 4.5 41.4084 4.5 41.4621 4.5C41.5158 4.5 41.5695 4.5 41.6231 4.5C41.6768 4.5 41.7305 4.5 41.7841 4.5C41.8378 4.5 41.8914 4.5 41.9451 4.5C41.9987 4.5 42.0524 4.5 42.106 4.5C42.1597 4.5 42.2133 4.5 42.2669 4.5C42.3206 4.5 42.3742 4.5 42.4278 4.5C42.4815 4.5 42.5351 4.5 42.5887 4.5C42.6423 4.5 42.6959 4.5 42.7495 4.5C42.8032 4.5 42.8568 4.5 42.9104 4.5C42.964 4.5 43.0176 4.5 43.0712 4.5C43.1248 4.5 43.1784 4.5 43.232 4.5C43.2856 4.5 43.3392 4.5 43.3928 4.5C43.4463 4.5 43.4999 4.5 43.5535 4.5C43.6071 4.5 43.6607 4.5 43.7143 4.5C43.7679 4.5 43.8214 4.5 43.875 4.5C43.9286 4.5 43.9822 4.5 44.0357 4.5C44.0893 4.5 44.1429 4.5 44.1965 4.5C44.25 4.5 44.3036 4.5 44.3572 4.5C44.4108 4.5 44.4643 4.5 44.5179 4.5C44.5715 4.5 44.625 4.5 44.6786 4.5C44.7322 4.5 44.7857 4.5 44.8393 4.5C44.8929 4.5 44.9464 4.5 45 4.5C45.0536 4.5 45.1071 4.5 45.1607 4.5C45.2143 4.5 45.2678 4.5 45.3214 4.5C45.375 4.5 45.4285 4.5 45.4821 4.5C45.5357 4.5 45.5892 4.5 45.6428 4.5C45.6964 4.5 45.75 4.5 45.8035 4.5C45.8571 4.5 45.9107 4.5 45.9643 4.5C46.0178 4.5 46.0714 4.5 46.125 4.5C46.1786 4.5 46.2321 4.5 46.2857 4.5C46.3393 4.5 46.3929 4.5 46.4465 4.5C46.5001 4.5 46.5537 4.5 46.6072 4.5C46.6608 4.5 46.7144 4.5 46.768 4.5C46.8216 4.5 46.8752 4.5 46.9288 4.5C46.9824 4.5 47.036 4.5 47.0896 4.5C47.1432 4.5 47.1968 4.5 47.2505 4.5C47.3041 4.5 47.3577 4.5 47.4113 4.5C47.4649 4.5 47.5185 4.5 47.5722 4.5C47.6258 4.5 47.6794 4.5 47.7331 4.5C47.7867 4.5 47.8403 4.5 47.894 4.5C47.9476 4.5 48.0013 4.5 48.0549 4.5C48.1086 4.5 48.1622 4.5 48.2159 4.5C48.2695 4.5 48.3232 4.5 48.3769 4.5C48.4305 4.5 48.4842 4.5 48.5379 4.5C48.5916 4.5 48.6452 4.5 48.6989 4.5C48.7526 4.5 48.8063 4.5 48.86 4.5C48.9137 4.5 48.9674 4.5 49.0211 4.5C49.0748 4.5 49.1286 4.5 49.1823 4.5C49.236 4.5 49.2897 4.5 49.3435 4.5C49.3972 4.5 49.4509 4.5 49.5047 4.5C49.5584 4.5 49.6122 4.5 49.666 4.5C49.7197 4.5 49.7735 4.5 49.8273 4.5C49.881 4.5 49.9348 4.5 49.9886 4.5C50.0424 4.5 50.0962 4.5 50.15 4.5C50.2038 4.5 50.2576 4.5 50.3114 4.5C50.3652 4.5 50.4191 4.5 50.4729 4.5C50.5267 4.5 50.5806 4.5 50.6344 4.5C50.6883 4.5 50.7421 4.5 50.796 4.5C50.8499 4.5 50.9037 4.5 50.9576 4.5C51.0115 4.5 51.0654 4.5 51.1193 4.5C51.1732 4.5 51.2271 4.5 51.281 4.5C51.3349 4.5 51.3889 4.5 51.4428 4.5C51.4967 4.5 51.5507 4.5 51.6046 4.5C51.6586 4.5 51.7125 4.5 51.7665 4.5C51.8205 4.5 51.8745 4.5 51.9285 4.5C51.9825 4.5 52.0365 4.5 52.0905 4.5C52.1445 4.5 52.1985 4.5 52.2525 4.5C52.3066 4.5 52.3606 4.5 52.4147 4.5C52.4687 4.5 52.5228 4.5 52.5769 4.5C52.6309 4.5 52.685 4.5 52.7391 4.5C52.7932 4.5 52.8473 4.5 52.9015 4.5C52.9556 4.5 53.0097 4.5 53.0638 4.5C53.118 4.5 53.1721 4.5 53.2263 4.5C53.2805 4.5 53.3346 4.5 53.3888 4.5C53.443 4.5 53.4972 4.5 53.5514 4.5C53.6057 4.5 53.6599 4.5 53.7141 4.5C53.7684 4.5 53.8226 4.5 53.8769 4.5C53.9311 4.5 53.9854 4.5 54.0397 4.5C54.094 4.5 54.1483 4.5 54.2026 4.5C54.2569 4.5 54.3112 4.5 54.3656 4.5C54.4199 4.5 54.4743 4.5 54.5287 4.5C54.583 4.5 54.6374 4.5 54.6918 4.5C54.7462 4.5 54.8006 4.5 54.855 4.5C54.9095 4.5 54.9639 4.5 55.0183 4.5C55.0728 4.5 55.1273 4.5 55.1817 4.5C55.2362 4.5 55.2907 4.5 55.3452 4.5C55.3997 4.5 55.4543 4.5 55.5088 4.5C55.5633 4.5 55.6179 4.5 55.6725 4.5C55.727 4.5 55.7816 4.5 55.8362 4.5C55.8908 4.5 55.9454 4.5 56.0001 4.5C56.0547 4.5 56.1093 4.5 56.164 4.5C56.2187 4.5 56.2733 4.5 56.328 4.5C56.3827 4.5 56.4374 4.5 56.4922 4.5C56.5469 4.5 56.6016 4.5 56.6564 4.5C56.7112 4.5 56.7659 4.5 56.8207 4.5C56.8755 4.5 56.9303 4.5 56.9852 4.5C57.04 4.5 57.0948 4.5 57.1497 4.5C57.2046 4.5 57.2594 4.5 57.3143 4.5C57.3692 4.5 57.4241 4.5 57.4791 4.5C57.534 4.5 57.589 4.5 57.6439 4.5C57.6989 4.5 57.7539 4.5 57.8089 4.5C57.8639 4.5 57.9189 4.5 57.9739 4.5C58.029 4.5 58.084 4.5 58.1391 4.5C58.1942 4.5 58.2493 4.5 58.3044 4.5C58.3595 4.5 58.4146 4.5 58.4698 4.5C58.525 4.5 58.5801 4.5 58.6353 4.5C58.6905 4.5 58.7457 4.5 58.8009 4.5C58.8562 4.5 58.9114 4.5 58.9667 4.5C59.022 4.5 59.0773 4.5 59.1326 4.5C59.1879 4.5 59.2432 4.5 59.2985 4.5C59.3539 4.5 59.4093 4.5 59.4647 4.5C59.52 4.5 59.5755 4.5 59.6309 4.5C59.6863 4.5 59.7418 4.5 59.7972 4.5C59.8527 4.5 59.9082 4.5 59.9637 4.5C60.0192 4.5 60.0748 4.5 60.1303 4.5C60.1859 4.5 60.2415 4.5 60.2971 4.5C60.3527 4.5 60.4083 4.5 60.4639 4.5C60.5196 4.5 60.5752 4.5 60.6309 4.5C60.6866 4.5 60.7423 4.5 60.7981 4.5C60.8538 4.5 60.9095 4.5 60.9653 4.5C61.0211 4.5 61.0769 4.5 61.1327 4.5C61.1885 4.5 61.2444 4.5 61.3003 4.5C61.3561 4.5 61.412 4.5 61.4679 4.5C61.5238 4.5 61.5798 4.5 61.6357 4.5C61.6917 4.5 61.7477 4.5 61.8037 4.5C61.8597 4.5 61.9157 4.5 61.9718 4.5C62.0279 4.5 62.0839 4.5 62.14 4.5C62.1961 4.5 62.2523 4.5 62.3084 4.5C62.3646 4.5 62.4207 4.5 62.477 4.5C62.5332 4.5 62.5894 4.5 62.6456 4.5C62.7019 4.5 62.7582 4.5 62.8145 4.5C62.8708 4.5 62.9271 4.5 62.9834 4.5C63.0398 4.5 63.0962 4.5 63.1526 4.5C63.209 4.5 63.2654 4.5 63.3218 4.5C63.3783 4.5 63.4348 4.5 63.4913 4.5C63.5478 4.5 63.6043 4.5 63.6609 4.5C63.7174 4.5 63.774 4.5 63.8306 4.5C63.8872 4.5 63.9439 4.5 64.0005 4.5C64.0572 4.5 64.1139 4.5 64.1706 4.5C64.2273 4.5 64.2841 4.5 64.3408 4.5C64.3976 4.5 64.4544 4.5 64.5112 4.5C64.5681 4.5 64.6249 4.5 64.6818 4.5C64.7387 4.5 64.7956 4.5 64.8525 4.5C64.9095 4.5 64.9664 4.5 65.0234 4.5C65.0804 4.5 65.1374 4.5 65.1945 4.5C65.2515 4.5 65.3086 4.5 65.3657 4.5C65.4228 4.5 65.4799 4.5 65.5371 4.5C65.5943 4.5 65.6515 4.5 65.7087 4.5C65.7659 4.5 65.8232 4.5 65.8804 4.5C65.9377 4.5 65.995 4.5 66.0524 4.5C66.1097 4.5 66.1671 4.5 66.2245 4.5C66.2819 4.5 66.3393 4.5 66.3967 4.5C66.4542 4.5 66.5117 4.5 66.5692 4.5C66.6267 4.5 66.6842 4.5 66.7418 4.5C66.7994 4.5 66.857 4.5 66.9146 4.5C66.9723 4.5 67.03 4.5 67.0877 4.5C67.1453 4.5 67.2031 4.5 67.2608 4.5C67.3186 4.5 67.3764 4.5 67.4342 4.5C67.492 4.5 67.5499 4.5 67.6078 4.5C67.6657 4.5 67.7236 4.5 67.7815 4.5C67.8395 4.5 67.8975 4.5 67.9555 4.5C68.0135 4.5 68.0715 4.5 68.1296 4.5C68.1877 4.5 68.2458 4.5 68.3039 4.5C68.3621 4.5 68.4203 4.5 68.4785 4.5C68.5367 4.5 68.5949 4.5 68.6532 4.5C68.7115 4.5 68.7698 4.5 68.8281 4.5C68.8864 4.5 68.9448 4.5 69.0032 4.5C69.0616 4.5 69.1201 4.5 69.1785 4.5C69.237 4.5 69.2955 4.5 69.354 4.5C69.4126 4.5 69.4712 4.5 69.5298 4.5C69.5884 4.5 69.647 4.5 69.7057 4.5C69.7644 4.5 69.8231 4.5 69.8818 4.5C69.9406 4.5 69.9993 4.5 70.0582 4.5C70.117 4.5 70.1758 4.5 70.2347 4.5C70.2936 4.5 70.3525 4.5 70.4115 4.5C70.4704 4.5 70.5294 4.5 70.5884 4.5C70.6474 4.5 70.7065 4.5 70.7656 4.5C70.8247 4.5 70.8838 4.5 70.943 4.5C71.0022 4.5 71.0614 4.5 71.1206 4.5C71.1798 4.5 71.2391 4.5 71.2984 4.5C71.3577 4.5 71.4171 4.5 71.4765 4.5C71.5359 4.5 71.5953 4.5 71.6547 4.5C71.7142 4.5 71.7737 4.5 71.8332 4.5C71.8927 4.5 71.9523 4.5 72.0119 4.5C72.0715 4.5 72.1312 4.5 72.1909 4.5C72.2505 4.5 72.3102 4.5 72.37 4.5C72.4298 4.5 72.4896 4.5 72.5494 4.5C72.6092 4.5 72.6691 4.5 72.729 4.5C72.7889 4.5 72.8489 4.5 72.9088 4.5C72.9688 4.5 73.0288 4.5 73.0889 4.5C73.149 4.5 73.2091 4.5 73.2692 4.5C73.3293 4.5 73.3895 4.5 73.4497 4.5C73.51 4.5 73.5702 4.5 73.6305 4.5C73.6908 4.5 73.7511 4.5 73.8115 4.5C73.8719 4.5 73.9323 4.5 73.9928 4.5C74.0532 4.5 74.1137 4.5 74.1742 4.5C74.2348 4.5 74.2953 4.5 74.356 4.5C74.4166 4.5 74.4772 4.5 74.5379 4.5C74.5986 4.5 74.6593 4.5 74.7201 4.5C74.7809 4.5 74.8417 4.5 74.9026 4.5C74.9634 4.5 75.0243 4.5 75.0853 4.5C75.1462 4.5 75.2072 4.5 75.2682 4.5C75.3292 4.5 75.3903 4.5 75.4514 4.5C75.5125 4.5 75.5737 4.5 75.6348 4.5C75.696 4.5 75.7573 4.5 75.8185 4.5C75.8798 4.5 75.9411 4.5 76.0025 4.5C76.0638 4.5 76.1252 4.5 76.1867 4.5C76.2481 4.5 76.3096 4.5 76.3711 4.5C76.4327 4.5 76.4942 4.5 76.5559 4.5C76.6175 4.5 76.6791 4.5 76.7408 4.5C76.8025 4.5 76.8643 4.5 76.926 4.5C76.9878 4.5 77.0497 4.5 77.1115 4.5C77.1734 4.5 77.2353 4.5 77.2973 4.5C77.3593 4.5 77.4213 4.5 77.4833 4.5C77.5454 4.5 77.6075 4.5 77.6696 4.5C77.7317 4.5 77.7939 4.5 77.8561 4.5C77.9184 4.5 77.9806 4.5 78.043 4.5C78.1053 4.5 78.1676 4.5 78.23 4.5C78.2924 4.5 78.3549 4.5 78.4174 4.5C78.4799 4.5 78.5424 4.5 78.605 4.5C78.6676 4.5 78.7302 4.5 78.7929 4.5C78.8556 4.5 78.9183 4.5 78.9811 4.5C79.0439 4.5 79.1067 4.5 79.1695 4.5C79.2324 4.5 79.2953 4.5 79.3583 4.5C79.4212 4.5 79.4842 4.5 79.5473 4.5C79.6103 4.5 79.6734 4.5 79.7366 4.5C79.7997 4.5 79.8629 4.5 79.9261 4.5C79.9894 4.5 80.0527 4.5 80.116 4.5C80.1793 4.5 80.2427 4.5 80.3061 4.5C80.3696 4.5 80.433 4.5 80.4966 4.5C80.5601 4.5 80.6236 4.5 80.6873 4.5C80.7509 4.5 80.8146 4.5 80.8783 4.5C80.942 4.5 81.0057 4.5 81.0696 4.5C81.1334 4.5 81.1972 4.5 81.2611 4.5C81.325 4.5 81.389 4.5 81.453 4.5C81.517 4.5 81.5811 4.5 81.6452 4.5C81.7093 4.5 81.7734 4.5 81.8376 4.5C81.9018 4.5 81.9661 4.5 82.0304 4.5C82.0947 4.5 82.159 4.5 82.2234 4.5C82.2879 4.5 82.3523 4.5 82.4168 4.5C82.4813 4.5 82.5459 4.5 82.6105 4.5C82.6751 4.5 82.7397 4.5 82.8044 4.5C82.8691 4.5 82.9339 4.5 82.9987 4.5C83.0635 4.5 83.1283 4.5 83.1933 4.5C83.2582 4.5 83.3231 4.5 83.3881 4.5C83.4531 4.5 83.5182 4.5 83.5833 4.5C83.6484 4.5 83.7136 4.5 83.7788 4.5C83.844 4.5 83.9093 4.5 83.9746 4.5C84.0399 4.5 84.1053 4.5 84.1707 4.5C84.2362 4.5 84.3016 4.5 84.3672 4.5C84.4327 4.5 84.4983 4.5 84.5639 4.5C84.6295 4.5 84.6952 4.5 84.761 4.5C84.8267 4.5 84.8925 4.5 84.9583 4.5C85.0242 4.5 85.0901 4.5 85.156 4.5C85.222 4.5 85.288 4.5 85.354 4.5C85.4201 4.5 85.4862 4.5 85.5524 4.5C85.6186 4.5 85.6848 4.5 85.751 4.5C85.8173 4.5 85.8837 4.5 85.95 4.5C86.0164 4.5 86.0829 4.5 86.1493 4.5C86.2158 4.5 86.2824 4.5 86.349 4.5C86.4156 4.5 86.4822 4.5 86.549 4.5C86.6157 4.5 86.6824 4.5 86.7492 4.5C86.8161 4.5 86.8829 4.5 86.9499 4.5C87.0168 4.5 87.0838 4.5 87.1508 4.5C87.2179 4.5 87.285 4.5 87.3521 4.5C87.4193 4.5 87.4865 4.5 87.5538 4.5C87.621 4.5 87.6884 4.5 87.7557 4.5C87.8231 4.5 87.8905 4.5 87.958 4.5C88.0255 4.5 88.0931 4.5 88.1607 4.5C88.2283 4.5 88.296 4.5 88.3637 4.5C88.4314 4.5 88.4992 4.5 88.567 4.5C88.6348 4.5 88.7027 4.5 88.7707 4.5C88.8386 4.5 88.9066 4.5 88.9747 4.5C89.0427 4.5 89.1109 4.5 89.1791 4.5C89.2472 4.5 89.3155 4.5 89.3838 4.5C89.4521 4.5 89.5204 4.5 89.5888 4.5C89.6572 4.5 89.7257 4.5 89.7942 4.5C89.8628 4.5 89.9314 4.5 90 4.5V3.5C89.9314 3.5 89.8628 3.5 89.7942 3.5C89.7257 3.5 89.6572 3.5 89.5888 3.5C89.5204 3.5 89.4521 3.5 89.3838 3.5C89.3155 3.5 89.2472 3.5 89.1791 3.5C89.1109 3.5 89.0427 3.5 88.9747 3.5C88.9066 3.5 88.8386 3.5 88.7707 3.5C88.7027 3.5 88.6348 3.5 88.567 3.5C88.4992 3.5 88.4314 3.5 88.3637 3.5C88.296 3.5 88.2283 3.5 88.1607 3.5C88.0931 3.5 88.0255 3.5 87.958 3.5C87.8905 3.5 87.8231 3.5 87.7557 3.5C87.6884 3.5 87.621 3.5 87.5538 3.5C87.4865 3.5 87.4193 3.5 87.3521 3.5C87.285 3.5 87.2179 3.5 87.1508 3.5C87.0838 3.5 87.0168 3.5 86.9499 3.5C86.8829 3.5 86.8161 3.5 86.7492 3.5C86.6824 3.5 86.6157 3.5 86.549 3.5C86.4822 3.5 86.4156 3.5 86.349 3.5C86.2824 3.5 86.2158 3.5 86.1493 3.5C86.0829 3.5 86.0164 3.5 85.95 3.5C85.8837 3.5 85.8173 3.5 85.751 3.5C85.6848 3.5 85.6186 3.5 85.5524 3.5C85.4862 3.5 85.4201 3.5 85.354 3.5C85.288 3.5 85.222 3.5 85.156 3.5C85.0901 3.5 85.0242 3.5 84.9583 3.5C84.8925 3.5 84.8267 3.5 84.761 3.5C84.6952 3.5 84.6295 3.5 84.5639 3.5C84.4983 3.5 84.4327 3.5 84.3672 3.5C84.3016 3.5 84.2362 3.5 84.1707 3.5C84.1053 3.5 84.0399 3.5 83.9746 3.5C83.9093 3.5 83.844 3.5 83.7788 3.5C83.7136 3.5 83.6484 3.5 83.5833 3.5C83.5182 3.5 83.4531 3.5 83.3881 3.5C83.3231 3.5 83.2582 3.5 83.1933 3.5C83.1283 3.5 83.0635 3.5 82.9987 3.5C82.9339 3.5 82.8691 3.5 82.8044 3.5C82.7397 3.5 82.6751 3.5 82.6105 3.5C82.5459 3.5 82.4813 3.5 82.4168 3.5C82.3523 3.5 82.2879 3.5 82.2234 3.5C82.159 3.5 82.0947 3.5 82.0304 3.5C81.9661 3.5 81.9018 3.5 81.8376 3.5C81.7734 3.5 81.7093 3.5 81.6452 3.5C81.5811 3.5 81.517 3.5 81.453 3.5C81.389 3.5 81.325 3.5 81.2611 3.5C81.1972 3.5 81.1334 3.5 81.0696 3.5C81.0057 3.5 80.942 3.5 80.8783 3.5C80.8146 3.5 80.7509 3.5 80.6873 3.5C80.6236 3.5 80.5601 3.5 80.4966 3.5C80.433 3.5 80.3696 3.5 80.3061 3.5C80.2427 3.5 80.1793 3.5 80.116 3.5C80.0527 3.5 79.9894 3.5 79.9261 3.5C79.8629 3.5 79.7997 3.5 79.7366 3.5C79.6734 3.5 79.6103 3.5 79.5473 3.5C79.4842 3.5 79.4212 3.5 79.3583 3.5C79.2953 3.5 79.2324 3.5 79.1695 3.5C79.1067 3.5 79.0439 3.5 78.9811 3.5C78.9183 3.5 78.8556 3.5 78.7929 3.5C78.7302 3.5 78.6676 3.5 78.605 3.5C78.5424 3.5 78.4799 3.5 78.4174 3.5C78.3549 3.5 78.2924 3.5 78.23 3.5C78.1676 3.5 78.1053 3.5 78.043 3.5C77.9806 3.5 77.9184 3.5 77.8561 3.5C77.7939 3.5 77.7317 3.5 77.6696 3.5C77.6075 3.5 77.5454 3.5 77.4833 3.5C77.4213 3.5 77.3593 3.5 77.2973 3.5C77.2353 3.5 77.1734 3.5 77.1115 3.5C77.0497 3.5 76.9878 3.5 76.926 3.5C76.8643 3.5 76.8025 3.5 76.7408 3.5C76.6791 3.5 76.6175 3.5 76.5559 3.5C76.4942 3.5 76.4327 3.5 76.3711 3.5C76.3096 3.5 76.2481 3.5 76.1867 3.5C76.1252 3.5 76.0638 3.5 76.0025 3.5C75.9411 3.5 75.8798 3.5 75.8185 3.5C75.7573 3.5 75.696 3.5 75.6348 3.5C75.5737 3.5 75.5125 3.5 75.4514 3.5C75.3903 3.5 75.3292 3.5 75.2682 3.5C75.2072 3.5 75.1462 3.5 75.0853 3.5C75.0243 3.5 74.9634 3.5 74.9026 3.5C74.8417 3.5 74.7809 3.5 74.7201 3.5C74.6593 3.5 74.5986 3.5 74.5379 3.5C74.4772 3.5 74.4166 3.5 74.356 3.5C74.2953 3.5 74.2348 3.5 74.1742 3.5C74.1137 3.5 74.0532 3.5 73.9928 3.5C73.9323 3.5 73.8719 3.5 73.8115 3.5C73.7511 3.5 73.6908 3.5 73.6305 3.5C73.5702 3.5 73.51 3.5 73.4497 3.5C73.3895 3.5 73.3293 3.5 73.2692 3.5C73.2091 3.5 73.149 3.5 73.0889 3.5C73.0288 3.5 72.9688 3.5 72.9088 3.5C72.8489 3.5 72.7889 3.5 72.729 3.5C72.6691 3.5 72.6092 3.5 72.5494 3.5C72.4896 3.5 72.4298 3.5 72.37 3.5C72.3102 3.5 72.2505 3.5 72.1909 3.5C72.1312 3.5 72.0715 3.5 72.0119 3.5C71.9523 3.5 71.8927 3.5 71.8332 3.5C71.7737 3.5 71.7142 3.5 71.6547 3.5C71.5953 3.5 71.5359 3.5 71.4765 3.5C71.4171 3.5 71.3577 3.5 71.2984 3.5C71.2391 3.5 71.1798 3.5 71.1206 3.5C71.0614 3.5 71.0022 3.5 70.943 3.5C70.8838 3.5 70.8247 3.5 70.7656 3.5C70.7065 3.5 70.6474 3.5 70.5884 3.5C70.5294 3.5 70.4704 3.5 70.4115 3.5C70.3525 3.5 70.2936 3.5 70.2347 3.5C70.1758 3.5 70.117 3.5 70.0582 3.5C69.9993 3.5 69.9406 3.5 69.8818 3.5C69.8231 3.5 69.7644 3.5 69.7057 3.5C69.647 3.5 69.5884 3.5 69.5298 3.5C69.4712 3.5 69.4126 3.5 69.354 3.5C69.2955 3.5 69.237 3.5 69.1785 3.5C69.1201 3.5 69.0616 3.5 69.0032 3.5C68.9448 3.5 68.8864 3.5 68.8281 3.5C68.7698 3.5 68.7115 3.5 68.6532 3.5C68.5949 3.5 68.5367 3.5 68.4785 3.5C68.4203 3.5 68.3621 3.5 68.3039 3.5C68.2458 3.5 68.1877 3.5 68.1296 3.5C68.0715 3.5 68.0135 3.5 67.9555 3.5C67.8975 3.5 67.8395 3.5 67.7815 3.5C67.7236 3.5 67.6657 3.5 67.6078 3.5C67.5499 3.5 67.492 3.5 67.4342 3.5C67.3764 3.5 67.3186 3.5 67.2608 3.5C67.2031 3.5 67.1453 3.5 67.0877 3.5C67.03 3.5 66.9723 3.5 66.9146 3.5C66.857 3.5 66.7994 3.5 66.7418 3.5C66.6842 3.5 66.6267 3.5 66.5692 3.5C66.5117 3.5 66.4542 3.5 66.3967 3.5C66.3393 3.5 66.2819 3.5 66.2245 3.5C66.1671 3.5 66.1097 3.5 66.0524 3.5C65.995 3.5 65.9377 3.5 65.8804 3.5C65.8232 3.5 65.7659 3.5 65.7087 3.5C65.6515 3.5 65.5943 3.5 65.5371 3.5C65.4799 3.5 65.4228 3.5 65.3657 3.5C65.3086 3.5 65.2515 3.5 65.1945 3.5C65.1374 3.5 65.0804 3.5 65.0234 3.5C64.9664 3.5 64.9095 3.5 64.8525 3.5C64.7956 3.5 64.7387 3.5 64.6818 3.5C64.6249 3.5 64.5681 3.5 64.5112 3.5C64.4544 3.5 64.3976 3.5 64.3408 3.5C64.2841 3.5 64.2273 3.5 64.1706 3.5C64.1139 3.5 64.0572 3.5 64.0005 3.5C63.9439 3.5 63.8872 3.5 63.8306 3.5C63.774 3.5 63.7174 3.5 63.6609 3.5C63.6043 3.5 63.5478 3.5 63.4913 3.5C63.4348 3.5 63.3783 3.5 63.3218 3.5C63.2654 3.5 63.209 3.5 63.1526 3.5C63.0962 3.5 63.0398 3.5 62.9834 3.5C62.9271 3.5 62.8708 3.5 62.8145 3.5C62.7582 3.5 62.7019 3.5 62.6456 3.5C62.5894 3.5 62.5332 3.5 62.477 3.5C62.4207 3.5 62.3646 3.5 62.3084 3.5C62.2523 3.5 62.1961 3.5 62.14 3.5C62.0839 3.5 62.0279 3.5 61.9718 3.5C61.9157 3.5 61.8597 3.5 61.8037 3.5C61.7477 3.5 61.6917 3.5 61.6357 3.5C61.5798 3.5 61.5238 3.5 61.4679 3.5C61.412 3.5 61.3561 3.5 61.3003 3.5C61.2444 3.5 61.1885 3.5 61.1327 3.5C61.0769 3.5 61.0211 3.5 60.9653 3.5C60.9095 3.5 60.8538 3.5 60.7981 3.5C60.7423 3.5 60.6866 3.5 60.6309 3.5C60.5752 3.5 60.5196 3.5 60.4639 3.5C60.4083 3.5 60.3527 3.5 60.2971 3.5C60.2415 3.5 60.1859 3.5 60.1303 3.5C60.0748 3.5 60.0192 3.5 59.9637 3.5C59.9082 3.5 59.8527 3.5 59.7972 3.5C59.7418 3.5 59.6863 3.5 59.6309 3.5C59.5755 3.5 59.52 3.5 59.4647 3.5C59.4093 3.5 59.3539 3.5 59.2985 3.5C59.2432 3.5 59.1879 3.5 59.1326 3.5C59.0773 3.5 59.022 3.5 58.9667 3.5C58.9114 3.5 58.8562 3.5 58.8009 3.5C58.7457 3.5 58.6905 3.5 58.6353 3.5C58.5801 3.5 58.525 3.5 58.4698 3.5C58.4146 3.5 58.3595 3.5 58.3044 3.5C58.2493 3.5 58.1942 3.5 58.1391 3.5C58.084 3.5 58.029 3.5 57.9739 3.5C57.9189 3.5 57.8639 3.5 57.8089 3.5C57.7539 3.5 57.6989 3.5 57.6439 3.5C57.589 3.5 57.534 3.5 57.4791 3.5C57.4241 3.5 57.3692 3.5 57.3143 3.5C57.2594 3.5 57.2046 3.5 57.1497 3.5C57.0948 3.5 57.04 3.5 56.9852 3.5C56.9303 3.5 56.8755 3.5 56.8207 3.5C56.7659 3.5 56.7112 3.5 56.6564 3.5C56.6016 3.5 56.5469 3.5 56.4922 3.5C56.4374 3.5 56.3827 3.5 56.328 3.5C56.2733 3.5 56.2187 3.5 56.164 3.5C56.1093 3.5 56.0547 3.5 56.0001 3.5C55.9454 3.5 55.8908 3.5 55.8362 3.5C55.7816 3.5 55.727 3.5 55.6725 3.5C55.6179 3.5 55.5633 3.5 55.5088 3.5C55.4543 3.5 55.3997 3.5 55.3452 3.5C55.2907 3.5 55.2362 3.5 55.1817 3.5C55.1273 3.5 55.0728 3.5 55.0183 3.5C54.9639 3.5 54.9095 3.5 54.855 3.5C54.8006 3.5 54.7462 3.5 54.6918 3.5C54.6374 3.5 54.583 3.5 54.5287 3.5C54.4743 3.5 54.4199 3.5 54.3656 3.5C54.3112 3.5 54.2569 3.5 54.2026 3.5C54.1483 3.5 54.094 3.5 54.0397 3.5C53.9854 3.5 53.9311 3.5 53.8769 3.5C53.8226 3.5 53.7684 3.5 53.7141 3.5C53.6599 3.5 53.6057 3.5 53.5514 3.5C53.4972 3.5 53.443 3.5 53.3888 3.5C53.3346 3.5 53.2805 3.5 53.2263 3.5C53.1721 3.5 53.118 3.5 53.0638 3.5C53.0097 3.5 52.9556 3.5 52.9015 3.5C52.8473 3.5 52.7932 3.5 52.7391 3.5C52.685 3.5 52.6309 3.5 52.5769 3.5C52.5228 3.5 52.4687 3.5 52.4147 3.5C52.3606 3.5 52.3066 3.5 52.2525 3.5C52.1985 3.5 52.1445 3.5 52.0905 3.5C52.0365 3.5 51.9825 3.5 51.9285 3.5C51.8745 3.5 51.8205 3.5 51.7665 3.5C51.7125 3.5 51.6586 3.5 51.6046 3.5C51.5507 3.5 51.4967 3.5 51.4428 3.5C51.3889 3.5 51.3349 3.5 51.281 3.5C51.2271 3.5 51.1732 3.5 51.1193 3.5C51.0654 3.5 51.0115 3.5 50.9576 3.5C50.9037 3.5 50.8499 3.5 50.796 3.5C50.7421 3.5 50.6883 3.5 50.6344 3.5C50.5806 3.5 50.5267 3.5 50.4729 3.5C50.4191 3.5 50.3652 3.5 50.3114 3.5C50.2576 3.5 50.2038 3.5 50.15 3.5C50.0962 3.5 50.0424 3.5 49.9886 3.5C49.9348 3.5 49.881 3.5 49.8273 3.5C49.7735 3.5 49.7197 3.5 49.666 3.5C49.6122 3.5 49.5584 3.5 49.5047 3.5C49.4509 3.5 49.3972 3.5 49.3435 3.5C49.2897 3.5 49.236 3.5 49.1823 3.5C49.1286 3.5 49.0748 3.5 49.0211 3.5C48.9674 3.5 48.9137 3.5 48.86 3.5C48.8063 3.5 48.7526 3.5 48.6989 3.5C48.6452 3.5 48.5916 3.5 48.5379 3.5C48.4842 3.5 48.4305 3.5 48.3769 3.5C48.3232 3.5 48.2695 3.5 48.2159 3.5C48.1622 3.5 48.1086 3.5 48.0549 3.5C48.0013 3.5 47.9476 3.5 47.894 3.5C47.8403 3.5 47.7867 3.5 47.7331 3.5C47.6794 3.5 47.6258 3.5 47.5722 3.5C47.5185 3.5 47.4649 3.5 47.4113 3.5C47.3577 3.5 47.3041 3.5 47.2505 3.5C47.1968 3.5 47.1432 3.5 47.0896 3.5C47.036 3.5 46.9824 3.5 46.9288 3.5C46.8752 3.5 46.8216 3.5 46.768 3.5C46.7144 3.5 46.6608 3.5 46.6072 3.5C46.5537 3.5 46.5001 3.5 46.4465 3.5C46.3929 3.5 46.3393 3.5 46.2857 3.5C46.2321 3.5 46.1786 3.5 46.125 3.5C46.0714 3.5 46.0178 3.5 45.9643 3.5C45.9107 3.5 45.8571 3.5 45.8035 3.5C45.75 3.5 45.6964 3.5 45.6428 3.5C45.5892 3.5 45.5357 3.5 45.4821 3.5C45.4285 3.5 45.375 3.5 45.3214 3.5C45.2678 3.5 45.2143 3.5 45.1607 3.5C45.1071 3.5 45.0536 3.5 45 3.5C44.9464 3.5 44.8929 3.5 44.8393 3.5C44.7857 3.5 44.7322 3.5 44.6786 3.5C44.625 3.5 44.5715 3.5 44.5179 3.5C44.4643 3.5 44.4108 3.5 44.3572 3.5C44.3036 3.5 44.25 3.5 44.1965 3.5C44.1429 3.5 44.0893 3.5 44.0357 3.5C43.9822 3.5 43.9286 3.5 43.875 3.5C43.8214 3.5 43.7679 3.5 43.7143 3.5C43.6607 3.5 43.6071 3.5 43.5535 3.5C43.4999 3.5 43.4463 3.5 43.3928 3.5C43.3392 3.5 43.2856 3.5 43.232 3.5C43.1784 3.5 43.1248 3.5 43.0712 3.5C43.0176 3.5 42.964 3.5 42.9104 3.5C42.8568 3.5 42.8032 3.5 42.7495 3.5C42.6959 3.5 42.6423 3.5 42.5887 3.5C42.5351 3.5 42.4815 3.5 42.4278 3.5C42.3742 3.5 42.3206 3.5 42.2669 3.5C42.2133 3.5 42.1597 3.5 42.106 3.5C42.0524 3.5 41.9987 3.5 41.9451 3.5C41.8914 3.5 41.8378 3.5 41.7841 3.5C41.7305 3.5 41.6768 3.5 41.6231 3.5C41.5695 3.5 41.5158 3.5 41.4621 3.5C41.4084 3.5 41.3548 3.5 41.3011 3.5C41.2474 3.5 41.1937 3.5 41.14 3.5C41.0863 3.5 41.0326 3.5 40.9789 3.5C40.9252 3.5 40.8714 3.5 40.8177 3.5C40.764 3.5 40.7103 3.5 40.6565 3.5C40.6028 3.5 40.5491 3.5 40.4953 3.5C40.4416 3.5 40.3878 3.5 40.334 3.5C40.2803 3.5 40.2265 3.5 40.1727 3.5C40.119 3.5 40.0652 3.5 40.0114 3.5C39.9576 3.5 39.9038 3.5 39.85 3.5C39.7962 3.5 39.7424 3.5 39.6886 3.5C39.6348 3.5 39.5809 3.5 39.5271 3.5C39.4733 3.5 39.4194 3.5 39.3656 3.5C39.3117 3.5 39.2579 3.5 39.204 3.5C39.1501 3.5 39.0963 3.5 39.0424 3.5C38.9885 3.5 38.9346 3.5 38.8807 3.5C38.8268 3.5 38.7729 3.5 38.719 3.5C38.6651 3.5 38.6111 3.5 38.5572 3.5C38.5033 3.5 38.4493 3.5 38.3954 3.5C38.3414 3.5 38.2875 3.5 38.2335 3.5C38.1795 3.5 38.1255 3.5 38.0715 3.5C38.0175 3.5 37.9635 3.5 37.9095 3.5C37.8555 3.5 37.8015 3.5 37.7475 3.5C37.6934 3.5 37.6394 3.5 37.5853 3.5C37.5313 3.5 37.4772 3.5 37.4231 3.5C37.3691 3.5 37.315 3.5 37.2609 3.5C37.2068 3.5 37.1527 3.5 37.0985 3.5C37.0444 3.5 36.9903 3.5 36.9362 3.5C36.882 3.5 36.8279 3.5 36.7737 3.5C36.7195 3.5 36.6654 3.5 36.6112 3.5C36.557 3.5 36.5028 3.5 36.4486 3.5C36.3943 3.5 36.3401 3.5 36.2859 3.5C36.2316 3.5 36.1774 3.5 36.1231 3.5C36.0689 3.5 36.0146 3.5 35.9603 3.5C35.906 3.5 35.8517 3.5 35.7974 3.5C35.7431 3.5 35.6888 3.5 35.6344 3.5C35.5801 3.5 35.5257 3.5 35.4713 3.5C35.417 3.5 35.3626 3.5 35.3082 3.5C35.2538 3.5 35.1994 3.5 35.145 3.5C35.0905 3.5 35.0361 3.5 34.9817 3.5C34.9272 3.5 34.8727 3.5 34.8183 3.5C34.7638 3.5 34.7093 3.5 34.6548 3.5C34.6003 3.5 34.5457 3.5 34.4912 3.5C34.4367 3.5 34.3821 3.5 34.3275 3.5C34.273 3.5 34.2184 3.5 34.1638 3.5C34.1092 3.5 34.0546 3.5 33.9999 3.5C33.9453 3.5 33.8907 3.5 33.836 3.5C33.7813 3.5 33.7267 3.5 33.672 3.5C33.6173 3.5 33.5626 3.5 33.5078 3.5C33.4531 3.5 33.3984 3.5 33.3436 3.5C33.2888 3.5 33.2341 3.5 33.1793 3.5C33.1245 3.5 33.0697 3.5 33.0148 3.5C32.96 3.5 32.9052 3.5 32.8503 3.5C32.7954 3.5 32.7406 3.5 32.6857 3.5C32.6308 3.5 32.5759 3.5 32.5209 3.5C32.466 3.5 32.411 3.5 32.3561 3.5C32.3011 3.5 32.2461 3.5 32.1911 3.5C32.1361 3.5 32.0811 3.5 32.0261 3.5C31.971 3.5 31.916 3.5 31.8609 3.5C31.8058 3.5 31.7507 3.5 31.6956 3.5C31.6405 3.5 31.5854 3.5 31.5302 3.5C31.475 3.5 31.4199 3.5 31.3647 3.5C31.3095 3.5 31.2543 3.5 31.1991 3.5C31.1438 3.5 31.0886 3.5 31.0333 3.5C30.978 3.5 30.9228 3.5 30.8674 3.5C30.8121 3.5 30.7568 3.5 30.7015 3.5C30.6461 3.5 30.5907 3.5 30.5353 3.5C30.48 3.5 30.4245 3.5 30.3691 3.5C30.3137 3.5 30.2582 3.5 30.2028 3.5C30.1473 3.5 30.0918 3.5 30.0363 3.5C29.9808 3.5 29.9252 3.5 29.8697 3.5C29.8141 3.5 29.7585 3.5 29.7029 3.5C29.6473 3.5 29.5917 3.5 29.5361 3.5C29.4804 3.5 29.4248 3.5 29.3691 3.5C29.3134 3.5 29.2577 3.5 29.2019 3.5C29.1462 3.5 29.0905 3.5 29.0347 3.5C28.9789 3.5 28.9231 3.5 28.8673 3.5C28.8115 3.5 28.7556 3.5 28.6997 3.5C28.6439 3.5 28.588 3.5 28.5321 3.5C28.4762 3.5 28.4202 3.5 28.3643 3.5C28.3083 3.5 28.2523 3.5 28.1963 3.5C28.1403 3.5 28.0843 3.5 28.0282 3.5C27.9721 3.5 27.9161 3.5 27.86 3.5C27.8039 3.5 27.7477 3.5 27.6916 3.5C27.6354 3.5 27.5793 3.5 27.5231 3.5C27.4668 3.5 27.4106 3.5 27.3544 3.5C27.2981 3.5 27.2418 3.5 27.1855 3.5C27.1292 3.5 27.0729 3.5 27.0166 3.5C26.9602 3.5 26.9038 3.5 26.8474 3.5C26.791 3.5 26.7346 3.5 26.6782 3.5C26.6217 3.5 26.5652 3.5 26.5087 3.5C26.4522 3.5 26.3957 3.5 26.3391 3.5C26.2826 3.5 26.226 3.5 26.1694 3.5C26.1128 3.5 26.0561 3.5 25.9995 3.5C25.9428 3.5 25.8861 3.5 25.8294 3.5C25.7727 3.5 25.7159 3.5 25.6592 3.5C25.6024 3.5 25.5456 3.5 25.4888 3.5C25.4319 3.5 25.3751 3.5 25.3182 3.5C25.2613 3.5 25.2044 3.5 25.1475 3.5C25.0905 3.5 25.0336 3.5 24.9766 3.5C24.9196 3.5 24.8626 3.5 24.8055 3.5C24.7485 3.5 24.6914 3.5 24.6343 3.5C24.5772 3.5 24.5201 3.5 24.4629 3.5C24.4057 3.5 24.3485 3.5 24.2913 3.5C24.2341 3.5 24.1768 3.5 24.1196 3.5C24.0623 3.5 24.005 3.5 23.9476 3.5C23.8903 3.5 23.8329 3.5 23.7755 3.5C23.7181 3.5 23.6607 3.5 23.6033 3.5C23.5458 3.5 23.4883 3.5 23.4308 3.5C23.3733 3.5 23.3157 3.5 23.2582 3.5C23.2006 3.5 23.143 3.5 23.0854 3.5C23.0277 3.5 22.97 3.5 22.9123 3.5C22.8546 3.5 22.7969 3.5 22.7392 3.5C22.6814 3.5 22.6236 3.5 22.5658 3.5C22.508 3.5 22.4501 3.5 22.3922 3.5C22.3343 3.5 22.2764 3.5 22.2185 3.5C22.1605 3.5 22.1025 3.5 22.0445 3.5C21.9865 3.5 21.9285 3.5 21.8704 3.5C21.8123 3.5 21.7542 3.5 21.6961 3.5C21.6379 3.5 21.5797 3.5 21.5215 3.5C21.4633 3.5 21.4051 3.5 21.3468 3.5C21.2885 3.5 21.2302 3.5 21.1719 3.5C21.1136 3.5 21.0552 3.5 20.9968 3.5C20.9384 3.5 20.8799 3.5 20.8215 3.5C20.763 3.5 20.7045 3.5 20.646 3.5C20.5874 3.5 20.5288 3.5 20.4702 3.5C20.4116 3.5 20.353 3.5 20.2943 3.5C20.2356 3.5 20.1769 3.5 20.1182 3.5C20.0594 3.5 20.0007 3.5 19.9418 3.5C19.883 3.5 19.8242 3.5 19.7653 3.5C19.7064 3.5 19.6475 3.5 19.5885 3.5C19.5296 3.5 19.4706 3.5 19.4116 3.5C19.3526 3.5 19.2935 3.5 19.2344 3.5C19.1753 3.5 19.1162 3.5 19.057 3.5C18.9978 3.5 18.9386 3.5 18.8794 3.5C18.8202 3.5 18.7609 3.5 18.7016 3.5C18.6423 3.5 18.5829 3.5 18.5235 3.5C18.4641 3.5 18.4047 3.5 18.3453 3.5C18.2858 3.5 18.2263 3.5 18.1668 3.5C18.1073 3.5 18.0477 3.5 17.9881 3.5C17.9285 3.5 17.8688 3.5 17.8091 3.5C17.7495 3.5 17.6897 3.5 17.63 3.5C17.5702 3.5 17.5104 3.5 17.4506 3.5C17.3908 3.5 17.3309 3.5 17.271 3.5C17.2111 3.5 17.1511 3.5 17.0912 3.5C17.0312 3.5 16.9712 3.5 16.9111 3.5C16.851 3.5 16.7909 3.5 16.7308 3.5C16.6707 3.5 16.6105 3.5 16.5503 3.5C16.49 3.5 16.4298 3.5 16.3695 3.5C16.3092 3.5 16.2489 3.5 16.1885 3.5C16.1281 3.5 16.0677 3.5 16.0072 3.5C15.9468 3.5 15.8863 3.5 15.8258 3.5C15.7652 3.5 15.7047 3.5 15.644 3.5C15.5834 3.5 15.5228 3.5 15.4621 3.5C15.4014 3.5 15.3406 3.5 15.2799 3.5C15.2191 3.5 15.1583 3.5 15.0974 3.5C15.0366 3.5 14.9757 3.5 14.9147 3.5C14.8538 3.5 14.7928 3.5 14.7318 3.5C14.6708 3.5 14.6097 3.5 14.5486 3.5C14.4875 3.5 14.4263 3.5 14.3652 3.5C14.304 3.5 14.2427 3.5 14.1815 3.5C14.1202 3.5 14.0589 3.5 13.9975 3.5C13.9362 3.5 13.8748 3.5 13.8133 3.5C13.7519 3.5 13.6904 3.5 13.6289 3.5C13.5673 3.5 13.5058 3.5 13.4441 3.5C13.3825 3.5 13.3209 3.5 13.2592 3.5C13.1975 3.5 13.1357 3.5 13.0739 3.5C13.0122 3.5 12.9503 3.5 12.8885 3.5C12.8266 3.5 12.7647 3.5 12.7027 3.5C12.6407 3.5 12.5787 3.5 12.5167 3.5C12.4546 3.5 12.3925 3.5 12.3304 3.5C12.2683 3.5 12.2061 3.5 12.1439 3.5C12.0816 3.5 12.0194 3.5 11.957 3.5C11.8947 3.5 11.8324 3.5 11.77 3.5C11.7076 3.5 11.6451 3.5 11.5826 3.5C11.5201 3.5 11.4576 3.5 11.395 3.5C11.3324 3.5 11.2698 3.5 11.2071 3.5C11.1444 3.5 11.0817 3.5 11.0189 3.5C10.9561 3.5 10.8933 3.5 10.8305 3.5C10.7676 3.5 10.7047 3.5 10.6417 3.5C10.5788 3.5 10.5158 3.5 10.4527 3.5C10.3897 3.5 10.3266 3.5 10.2634 3.5C10.2003 3.5 10.1371 3.5 10.0739 3.5C10.0106 3.5 9.94733 3.5 9.884 3.5C9.82067 3.5 9.75729 3.5 9.69387 3.5C9.63044 3.5 9.56697 3.5 9.50344 3.5C9.43992 3.5 9.37635 3.5 9.31273 3.5C9.24911 3.5 9.18545 3.5 9.12173 3.5C9.05802 3.5 8.99426 3.5 8.93044 3.5C8.86663 3.5 8.80277 3.5 8.73886 3.5C8.67496 3.5 8.611 3.5 8.54699 3.5C8.48299 3.5 8.41893 3.5 8.35483 3.5C8.29072 3.5 8.22657 3.5 8.16236 3.5C8.09816 3.5 8.03391 3.5 7.9696 3.5C7.9053 3.5 7.84095 3.5 7.77655 3.5C7.71215 3.5 7.64769 3.5 7.58319 3.5C7.51869 3.5 7.45414 3.5 7.38953 3.5C7.32493 3.5 7.26028 3.5 7.19557 3.5C7.13087 3.5 7.06611 3.5 7.00131 3.5C6.9365 3.5 6.87165 3.5 6.80674 3.5C6.74183 3.5 6.67687 3.5 6.61186 3.5C6.54685 3.5 6.48179 3.5 6.41668 3.5C6.35157 3.5 6.2864 3.5 6.22119 3.5C6.15597 3.5 6.09071 3.5 6.02539 3.5C5.96007 3.5 5.89469 3.5 5.82927 3.5C5.76385 3.5 5.69837 3.5 5.63284 3.5C5.56731 3.5 5.50173 3.5 5.4361 3.5C5.37046 3.5 5.30478 3.5 5.23904 3.5C5.1733 3.5 5.10751 3.5 5.04166 3.5C4.97582 3.5 4.90992 3.5 4.84397 3.5C4.77801 3.5 4.71201 3.5 4.64595 3.5C4.57989 3.5 4.51378 3.5 4.44761 3.5C4.38145 3.5 4.31523 3.5 4.24895 3.5C4.18268 3.5 4.11635 3.5 4.04997 3.5C3.98358 3.5 3.91715 3.5 3.85065 3.5C3.78416 3.5 3.71762 3.5 3.65102 3.5C3.58442 3.5 3.51776 3.5 3.45105 3.5C3.38434 3.5 3.31757 3.5 3.25075 3.5C3.18393 3.5 3.11706 3.5 3.05012 3.5C2.98319 3.5 2.91621 3.5 2.84916 3.5C2.78212 3.5 2.71502 3.5 2.64787 3.5C2.58071 3.5 2.5135 3.5 2.44624 3.5C2.37897 3.5 2.31165 3.5 2.24427 3.5C2.17689 3.5 2.10946 3.5 2.04196 3.5C1.97447 3.5 1.90692 3.5 1.83932 3.5C1.77171 3.5 1.70405 3.5 1.63633 3.5C1.56861 3.5 1.50084 3.5 1.433 3.5C1.36517 3.5 1.29728 3.5 1.22933 3.5C1.16138 3.5 1.09338 3.5 1.02531 3.5C0.95725 3.5 0.889129 3.5 0.820949 3.5C0.75277 3.5 0.684533 3.5 0.616237 3.5C0.547942 3.5 0.479588 3.5 0.411176 3.5C0.342764 3.5 0.274293 3.5 0.205764 3.5C0.137235 3.5 0.0686468 3.5 0 3.5V4.5Z" fill="#2C1E2F"/>
</svg>
