<svg width="50" height="50" viewBox="0 0 50 50" fill="none" xmlns="http://www.w3.org/2000/svg">
<path d="M32.4005 30.2999H31.1428C29.1773 30.2999 27.4458 29.7086 25.998 28.5434C24.5881 27.4092 23.5376 25.7737 22.9589 23.8135L21.4497 18.7024C21.3057 18.2128 21.3607 17.6963 21.6054 17.2482C21.8498 16.8001 22.2544 16.4739 22.744 16.33C23.2337 16.186 23.7502 16.241 24.1982 16.4865C24.6463 16.731 24.9725 17.1355 25.1164 17.6252L26.6248 22.7354C26.9811 23.9433 27.5927 24.922 28.3929 25.5666C29.1396 26.1676 30.064 26.4715 31.1432 26.4715H32.401C33.4792 26.4715 34.4047 26.1665 35.1513 25.5666C35.9512 24.9229 36.5629 23.9444 36.9194 22.7354L38.4287 17.6243C38.7255 16.6138 39.7894 16.0331 40.8003 16.3303C41.29 16.4742 41.6946 16.8004 41.9389 17.2485C42.1834 17.6966 42.2386 18.213 42.0955 18.7027V18.7035L40.5863 23.8146C40.0076 25.7747 38.9568 27.41 37.5472 28.5445C36.0971 29.7086 34.3667 30.2998 32.4004 30.2998L32.4005 30.2999ZM23.2848 17.142C23.188 17.142 23.0912 17.1562 22.9949 17.1839C22.7326 17.2611 22.5167 17.4355 22.3861 17.6747C22.2555 17.9146 22.2262 18.1903 22.3027 18.4526L23.8119 23.5628C24.339 25.3485 25.2885 26.8312 26.5557 27.8516C27.842 28.8862 29.385 29.4116 31.1434 29.4116H32.4012C34.1592 29.4116 35.7025 28.887 36.9888 27.8516C38.2572 26.8312 39.2056 25.3485 39.7327 23.5628L41.2419 18.4517C41.3183 18.1895 41.289 17.9141 41.1585 17.6749C41.0279 17.435 40.8119 17.2606 40.5496 17.1841C40.0084 17.0251 39.4403 17.3362 39.2812 17.8767L37.772 22.9877C37.3641 24.37 36.6504 25.5014 35.7089 26.2598C34.8004 26.9905 33.6877 27.3611 32.4014 27.3611H31.1437C29.8574 27.3611 28.7446 26.9906 27.8361 26.2598C26.8947 25.5017 26.181 24.3709 25.7731 22.9877L24.2639 17.8767C24.1866 17.6144 24.0122 17.3984 23.7731 17.2679C23.6199 17.1836 23.4536 17.142 23.2848 17.142L23.2848 17.142ZM41.667 18.5776H41.6678H41.667Z" fill="black"/>
<path d="M22.9035 17.1913C22.7071 17.1913 22.5274 17.0607 22.4741 16.8615L19.8636 7.11865C19.5249 5.85272 19.7765 4.58436 20.5748 3.54443C21.3722 2.50536 22.533 1.93286 23.8424 1.93286H25.2547C25.5 1.93286 25.6992 2.13208 25.6992 2.37734C25.6992 2.6226 25.5 2.82182 25.2547 2.82182H23.8424C22.8005 2.82182 21.9144 3.25904 21.2796 4.08575C20.6448 4.91246 20.452 5.88125 20.7224 6.88846L23.3332 16.6313C23.3962 16.8688 23.2559 17.1123 23.0185 17.1754C22.98 17.1868 22.9417 17.1913 22.9035 17.1913L22.9035 17.1913Z" fill="black"/>
<path d="M26.7475 4.31551C25.6791 4.31551 24.8105 3.44608 24.8105 2.37858C24.8105 1.31108 25.68 0.44165 26.7475 0.44165C27.815 0.44165 28.6853 1.31108 28.6853 2.37858C28.6853 3.44608 27.8161 4.31551 26.7475 4.31551ZM26.7475 1.32972C26.1696 1.32972 25.6995 1.79987 25.6995 2.37772C25.6995 2.95557 26.1696 3.42572 26.7475 3.42572C27.3253 3.42572 27.7964 2.95558 27.7964 2.37772C27.7966 1.79988 27.3262 1.32972 26.7475 1.32972Z" fill="black"/>
<path d="M40.6403 17.1915C40.6021 17.1915 40.5639 17.1861 40.5248 17.1764C40.2874 17.1133 40.147 16.8689 40.2101 16.6323L42.8209 6.88944C43.091 5.8833 42.8982 4.91344 42.2637 4.08672C41.6289 3.26001 40.7427 2.8228 39.7009 2.8228H38.2882C38.043 2.8228 37.8438 2.62357 37.8438 2.37832C37.8438 2.13306 38.043 1.93384 38.2882 1.93384H39.7006C41.0109 1.93384 42.1708 2.50638 42.9682 3.54541C43.7656 4.58444 44.0178 5.8537 43.6794 7.11962L41.0697 16.8625C41.0165 17.0609 40.8368 17.1914 40.6403 17.1914L40.6403 17.1915Z" fill="black"/>
<path d="M36.7952 4.31551C35.7269 4.31551 34.8574 3.44608 34.8574 2.37858C34.8574 1.31108 35.7269 0.44165 36.7952 0.44165C37.8636 0.44165 38.7322 1.31108 38.7322 2.37858C38.7322 3.44608 37.863 4.31551 36.7952 4.31551ZM36.7952 1.32972C36.2174 1.32972 35.7464 1.79987 35.7464 2.37772C35.7464 2.95557 36.2165 3.42572 36.7952 3.42572C37.3739 3.42572 37.8432 2.95558 37.8432 2.37772C37.8432 1.79988 37.3731 1.32972 36.7952 1.32972Z" fill="black"/>
<path d="M32.4005 30.2999H31.1428C29.1773 30.2999 27.4458 29.7086 25.998 28.5434C24.5881 27.4092 23.5376 25.7737 22.9589 23.8135L21.4497 18.7024C21.3057 18.2128 21.3607 17.6963 21.6054 17.2482C21.8498 16.8001 22.2544 16.4739 22.744 16.33C23.2337 16.186 23.7502 16.241 24.1982 16.4865C24.6463 16.731 24.9725 17.1355 25.1164 17.6252L26.6248 22.7354C26.9811 23.9433 27.5927 24.922 28.3929 25.5666C29.1396 26.1676 30.064 26.4715 31.1432 26.4715H32.401C33.4792 26.4715 34.4047 26.1665 35.1513 25.5666C35.9512 24.9229 36.5629 23.9444 36.9194 22.7354L38.4287 17.6243C38.7255 16.6138 39.7894 16.0331 40.8003 16.3303C41.29 16.4742 41.6946 16.8004 41.9389 17.2485C42.1834 17.6966 42.2386 18.213 42.0955 18.7027V18.7035L40.5863 23.8146C40.0076 25.7747 38.9568 27.41 37.5472 28.5445C36.0971 29.7086 34.3667 30.2998 32.4004 30.2998L32.4005 30.2999ZM23.2848 17.142C23.188 17.142 23.0912 17.1562 22.9949 17.1839C22.7326 17.2611 22.5167 17.4355 22.3861 17.6747C22.2555 17.9146 22.2262 18.1903 22.3027 18.4526L23.8119 23.5628C24.339 25.3485 25.2885 26.8312 26.5557 27.8516C27.842 28.8862 29.385 29.4116 31.1434 29.4116H32.4012C34.1592 29.4116 35.7025 28.887 36.9888 27.8516C38.2572 26.8312 39.2056 25.3485 39.7327 23.5628L41.2419 18.4517C41.3183 18.1895 41.289 17.9141 41.1585 17.6749C41.0279 17.435 40.8119 17.2606 40.5496 17.1841C40.0084 17.0251 39.4403 17.3362 39.2812 17.8767L37.772 22.9877C37.3641 24.37 36.6504 25.5014 35.7089 26.2598C34.8004 26.9905 33.6877 27.3611 32.4014 27.3611H31.1437C29.8574 27.3611 28.7446 26.9906 27.8361 26.2598C26.8947 25.5017 26.181 24.3709 25.7731 22.9877L24.2639 17.8767C24.1866 17.6144 24.0122 17.3984 23.7731 17.2679C23.6199 17.1836 23.4536 17.142 23.2848 17.142L23.2848 17.142ZM41.667 18.5776H41.6678H41.667Z" fill="black"/>
<path d="M22.9035 17.1913C22.7071 17.1913 22.5274 17.0607 22.4741 16.8615L19.8636 7.11865C19.5249 5.85272 19.7765 4.58436 20.5748 3.54443C21.3722 2.50536 22.533 1.93286 23.8424 1.93286H25.2547C25.5 1.93286 25.6992 2.13208 25.6992 2.37734C25.6992 2.6226 25.5 2.82182 25.2547 2.82182H23.8424C22.8005 2.82182 21.9144 3.25904 21.2796 4.08575C20.6448 4.91246 20.452 5.88125 20.7224 6.88846L23.3332 16.6313C23.3962 16.8688 23.2559 17.1123 23.0185 17.1754C22.98 17.1868 22.9417 17.1913 22.9035 17.1913L22.9035 17.1913Z" fill="black"/>
<path d="M26.7475 4.31551C25.6791 4.31551 24.8105 3.44608 24.8105 2.37858C24.8105 1.31108 25.68 0.44165 26.7475 0.44165C27.815 0.44165 28.6853 1.31108 28.6853 2.37858C28.6853 3.44608 27.8161 4.31551 26.7475 4.31551ZM26.7475 1.32972C26.1696 1.32972 25.6995 1.79987 25.6995 2.37772C25.6995 2.95557 26.1696 3.42572 26.7475 3.42572C27.3253 3.42572 27.7964 2.95558 27.7964 2.37772C27.7966 1.79988 27.3262 1.32972 26.7475 1.32972Z" fill="black"/>
<path d="M40.6403 17.1915C40.6021 17.1915 40.5639 17.1861 40.5248 17.1764C40.2874 17.1133 40.147 16.8689 40.2101 16.6323L42.8209 6.88944C43.091 5.8833 42.8982 4.91344 42.2637 4.08672C41.6289 3.26001 40.7427 2.8228 39.7009 2.8228H38.2882C38.043 2.8228 37.8438 2.62357 37.8438 2.37832C37.8438 2.13306 38.043 1.93384 38.2882 1.93384H39.7006C41.0109 1.93384 42.1708 2.50638 42.9682 3.54541C43.7656 4.58444 44.0178 5.8537 43.6794 7.11962L41.0697 16.8625C41.0165 17.0609 40.8368 17.1914 40.6403 17.1914L40.6403 17.1915Z" fill="black"/>
<path d="M36.7952 4.31551C35.7269 4.31551 34.8574 3.44608 34.8574 2.37858C34.8574 1.31108 35.7269 0.44165 36.7952 0.44165C37.8636 0.44165 38.7322 1.31108 38.7322 2.37858C38.7322 3.44608 37.863 4.31551 36.7952 4.31551ZM36.7952 1.32972C36.2174 1.32972 35.7464 1.79987 35.7464 2.37772C35.7464 2.95557 36.2165 3.42572 36.7952 3.42572C37.3739 3.42572 37.8432 2.95558 37.8432 2.37772C37.8432 1.79988 37.3731 1.32972 36.7952 1.32972Z" fill="black"/>
<path d="M28.6922 39.5591H15.0865C14.0385 39.5591 13.051 39.1492 12.3078 38.4062C11.5639 37.6632 11.1548 36.6754 11.1548 35.6274V34.198C11.1548 33.15 11.5647 32.1626 12.3078 31.4193C13.0508 30.6763 14.0385 30.2664 15.0865 30.2664H15.291C15.548 30.2664 15.7904 30.1651 15.9737 29.9821C16.1568 29.799 16.2581 29.5563 16.2581 29.2993V28.1765C16.2581 27.9195 16.1568 27.6771 15.9737 27.4938C15.7899 27.3099 15.548 27.2094 15.291 27.2094L13.3516 27.2097C12.3036 27.2097 11.3161 26.7998 10.5729 26.0568C9.82899 25.3138 9.41992 24.3261 9.41992 23.2781V14.6524C9.41992 14.5929 9.42355 14.5332 9.43052 14.4738C9.45982 14.2302 9.6822 14.0569 9.92467 14.0862C10.1683 14.1155 10.3415 14.3368 10.3122 14.5804C10.3094 14.6035 10.3078 14.6284 10.3078 14.6515V23.2772C10.3078 24.0878 10.625 24.8515 11.2003 25.4274C11.7762 26.0033 12.5399 26.32 13.3505 26.32H15.2899C15.784 26.32 16.25 26.5136 16.6018 26.8649C16.9528 27.2159 17.1467 27.6819 17.1467 28.1759V29.2987C17.1467 29.7929 16.9531 30.2588 16.6018 30.6107C16.2508 30.9617 15.7848 31.1556 15.2908 31.1556H15.0862C14.2757 31.1556 13.512 31.4728 12.9361 32.0481C12.3602 32.624 12.0435 33.3877 12.0435 34.1983V35.6277C12.0435 36.4383 12.3608 37.2019 12.9361 37.7779C13.512 38.3538 14.2757 38.6704 15.0862 38.6704H28.6927C29.5032 38.6704 30.2669 38.3532 30.8428 37.7779C31.4187 37.202 31.7354 36.4383 31.7354 35.6277V29.8554C31.7354 29.6102 31.9346 29.411 32.1798 29.411C32.4251 29.411 32.6243 29.6102 32.6243 29.8554V35.6277C32.6243 36.6766 32.2144 37.6631 31.4714 38.4064C30.7275 39.1491 29.7409 39.5591 28.6921 39.5591L28.6922 39.5591ZM28.6922 37.4834H15.0865C14.5923 37.4834 14.1264 37.2898 13.7754 36.9385C13.4244 36.5875 13.2305 36.1215 13.2305 35.6275V34.198C13.2305 33.7039 13.4241 33.238 13.7754 32.887C14.1264 32.5359 14.5924 32.342 15.0865 32.342H15.291C16.1016 32.342 16.8652 32.0248 17.4411 31.4495C18.017 30.8736 18.3337 30.1099 18.3337 29.2993V28.1765C18.3337 27.366 18.0165 26.6015 17.4411 26.0264C16.8652 25.4505 16.1016 25.1338 15.291 25.1338L13.3516 25.1341C12.8574 25.1341 12.3915 24.9405 12.0405 24.5892C11.6895 24.2382 11.4956 23.7722 11.4956 23.2781V14.6524C11.4956 14.6284 11.4939 14.6044 11.4911 14.5804C11.4618 14.3368 11.6359 14.1156 11.8795 14.0863C12.1222 14.057 12.3443 14.2311 12.3736 14.4747C12.3806 14.5333 12.3842 14.5938 12.3842 14.6524V23.2781C12.3842 23.5351 12.4855 23.7776 12.6686 23.9609C12.8516 24.1439 13.0943 24.2452 13.3513 24.2452H15.2907C16.3387 24.2452 17.3262 24.6551 18.0695 25.3981C18.8133 26.1411 19.2224 27.1288 19.2224 28.1768V29.2996C19.2224 30.3476 18.8125 31.335 18.0695 32.0783C17.3256 32.8222 16.3387 33.2313 15.2907 33.2313H15.0862C14.8292 33.2313 14.5868 33.3325 14.4035 33.5156C14.2196 33.6994 14.1192 33.9414 14.1192 34.1983V35.6278C14.1192 35.8847 14.2204 36.1272 14.4035 36.3105C14.5873 36.4944 14.8301 36.5948 15.0862 36.5948H28.6926C28.9496 36.5948 29.1921 36.4936 29.3754 36.3105C29.5593 36.1266 29.6597 35.8839 29.6597 35.6278V29.8555C29.6597 29.8262 29.6606 29.7969 29.6625 29.7684C29.6776 29.5232 29.8874 29.3373 30.1327 29.3516C30.3779 29.3666 30.5646 29.5773 30.5495 29.8217C30.5487 29.8332 30.5487 29.844 30.5487 29.8555V35.6278C30.5487 36.1219 30.355 36.5878 30.0037 36.9388C29.6522 37.2898 29.1863 37.4835 28.6921 37.4835L28.6922 37.4834Z" fill="black"/>
<path d="M10.9015 15.0942C8.29271 15.0942 6.16992 12.9715 6.16992 10.3627C6.16992 7.75389 8.29242 5.6311 10.9015 5.6311C13.5103 5.6311 15.6331 7.75389 15.6331 10.3627C15.6328 12.9715 13.5111 15.0942 10.9015 15.0942ZM10.9015 6.51996C8.78235 6.51996 7.05885 8.24346 7.05885 10.3626C7.05885 12.4817 8.78235 14.2052 10.9015 14.2052C13.0206 14.2052 14.7441 12.4817 14.7441 10.3626C14.7441 8.24346 13.0204 6.51996 10.9015 6.51996Z" fill="black"/>
<path d="M10.901 12.4943C9.72575 12.4943 8.76953 11.5378 8.76953 10.3629C8.76925 9.1877 9.72575 8.2312 10.901 8.2312C12.0762 8.2312 13.0324 9.18684 13.0324 10.3626C13.0324 11.5378 12.0759 12.4943 10.901 12.4943ZM10.901 9.12099C10.2157 9.12099 9.65825 9.67819 9.65825 10.3637C9.65825 11.049 10.2154 11.6064 10.901 11.6064C11.5862 11.6064 12.1437 11.0492 12.1437 10.3637C12.1434 9.67843 11.5862 9.12099 10.901 9.12099Z" fill="black"/>
</svg>
