<svg width="48" height="58" viewBox="0 0 48 58" fill="none" xmlns="http://www.w3.org/2000/svg">
<path d="M36.5 11.5V5C36.5 2.79086 34.7091 1 32.5 1H4.5C2.29086 1 0.5 2.79086 0.5 5V53C0.5 55.2091 2.29086 57 4.5 57H32.5C34.7091 57 36.5 55.2091 36.5 53V35.5864" stroke="#2C1E2F" stroke-width="0.6"/>
<path d="M33.5 35.5V51C33.5 52.6569 32.1569 54 30.5 54H6.5C4.84315 54 3.5 52.6569 3.5 51V8C3.5 6.34314 4.84315 5 6.5 5H10.3633C11.059 5 11.694 5.39606 12 6.02083V6.02083C12.306 6.64561 12.941 7.04167 13.6367 7.04167H23.3633C24.059 7.04167 24.694 6.64561 25 6.02083V6.02083C25.306 5.39606 25.941 5 26.6367 5H30.5C32.1569 5 33.5 6.34315 33.5 8V11.5" stroke="#2C1E2F" stroke-width="0.6"/>
<circle cx="35" cy="23.5" r="12.2" stroke="#2C1E2F" stroke-width="0.6"/>
<path fill-rule="evenodd" clip-rule="evenodd" d="M36.9992 17.2002C37.7172 17.2002 38.2992 17.7822 38.2992 18.5002V20.2002H39.9992C40.7172 20.2002 41.2992 20.7822 41.2992 21.5002V25.5002C41.2992 26.2182 40.7172 26.8002 39.9992 26.8002H38.2992V28.5002C38.2992 29.2182 37.7172 29.8002 36.9992 29.8002H32.9992C32.2812 29.8002 31.6992 29.2182 31.6992 28.5002V26.8002H29.9992C29.2812 26.8002 28.6992 26.2182 28.6992 25.5002V21.5002C28.6992 20.7822 29.2812 20.2002 29.9992 20.2002H31.6992V18.5002C31.6992 17.7822 32.2812 17.2002 32.9992 17.2002H36.9992ZM32.2992 26.5002L32.2992 28.5002C32.2992 28.8868 32.6126 29.2002 32.9992 29.2002H36.9992C37.3858 29.2002 37.6992 28.8868 37.6992 28.5002V26.5002C37.6992 26.3345 37.8335 26.2002 37.9992 26.2002H39.9992C40.3858 26.2002 40.6992 25.8868 40.6992 25.5002V21.5002C40.6992 21.1136 40.3858 20.8002 39.9992 20.8002H37.9992C37.8335 20.8002 37.6992 20.6659 37.6992 20.5002V18.5002C37.6992 18.1136 37.3858 17.8002 36.9992 17.8002H32.9992C32.6126 17.8002 32.2992 18.1136 32.2992 18.5002V20.5002C32.2992 20.6659 32.1649 20.8002 31.9992 20.8002H29.9992C29.6126 20.8002 29.2992 21.1136 29.2992 21.5002V25.5002C29.2992 25.8868 29.6126 26.2002 29.9992 26.2002H31.9992C32.1649 26.2002 32.2992 26.3345 32.2992 26.5002Z" fill="#2C1E2F"/>
<path d="M23 13.8C23.1657 13.8 23.3 13.6657 23.3 13.5C23.3 13.3343 23.1657 13.2 23 13.2V13.8ZM20 26.8C20.1657 26.8 20.3 26.6657 20.3 26.5C20.3 26.3343 20.1657 26.2 20 26.2V26.8ZM11.5 13.8H23V13.2H11.5V13.8ZM20 26.2H11.5V26.8H20V26.2ZM8.8 23.5V16.5H8.2V23.5H8.8ZM11.5 26.2C10.0088 26.2 8.8 24.9912 8.8 23.5H8.2C8.2 25.3225 9.67746 26.8 11.5 26.8V26.2ZM11.5 13.2C9.67746 13.2 8.2 14.6775 8.2 16.5H8.8C8.8 15.0088 10.0088 13.8 11.5 13.8V13.2Z" fill="#2C1E2F"/>
<path d="M9 30.2C8.83431 30.2 8.7 30.3343 8.7 30.5C8.7 30.6657 8.83431 30.8 9 30.8V30.2ZM15 30.8C15.1657 30.8 15.3 30.6657 15.3 30.5C15.3 30.3343 15.1657 30.2 15 30.2V30.8ZM18 30.2C17.8343 30.2 17.7 30.3343 17.7 30.5C17.7 30.6657 17.8343 30.8 18 30.8V30.2ZM20.5 30.8C20.6657 30.8 20.8 30.6657 20.8 30.5C20.8 30.3343 20.6657 30.2 20.5 30.2V30.8ZM9 30.8H15V30.2H9V30.8ZM18 30.8H20.5V30.2H18V30.8Z" fill="#2C1E2F"/>
<mask id="path-7-inside-1_746_1419" fill="white">
<path fill-rule="evenodd" clip-rule="evenodd" d="M14.63 42.166C12.7434 43.42 11.5 45.5647 11.5 47.9999H25.5C25.5 45.5647 24.2566 43.42 22.37 42.166C21.4531 43.2855 20.06 43.9999 18.5 43.9999C16.94 43.9999 15.5469 43.2855 14.63 42.166Z"/>
</mask>
<path d="M14.63 42.166L15.0942 41.7858L14.7501 41.3657L14.2979 41.6663L14.63 42.166ZM11.5 47.9999H10.9V48.5999H11.5V47.9999ZM25.5 47.9999V48.5999H26.1V47.9999H25.5ZM22.37 42.166L22.7021 41.6663L22.2499 41.3657L21.9058 41.7858L22.37 42.166ZM14.2979 41.6663C12.2511 43.0268 10.9 45.3554 10.9 47.9999H12.1C12.1 45.774 13.2358 43.8132 14.9621 42.6657L14.2979 41.6663ZM11.5 48.5999H25.5V47.3999H11.5V48.5999ZM26.1 47.9999C26.1 45.3554 24.7489 43.0268 22.7021 41.6663L22.0379 42.6657C23.7642 43.8132 24.9 45.774 24.9 47.9999H26.1ZM21.9058 41.7858C21.098 42.7721 19.8725 43.3999 18.5 43.3999V44.5999C20.2474 44.5999 21.8082 43.7988 22.8342 42.5462L21.9058 41.7858ZM18.5 43.3999C17.1275 43.3999 15.902 42.7721 15.0942 41.7858L14.1658 42.5462C15.1918 43.7988 16.7526 44.5999 18.5 44.5999V43.3999Z" fill="#2C1E2F" mask="url(#path-7-inside-1_746_1419)"/>
<path d="M23.2 40C23.2 42.5554 21.1391 44.2 18.5 44.2C15.8609 44.2 13.8 42.5554 13.8 40C13.8 37.4043 15.9043 35.3 18.5 35.3C21.0957 35.3 23.2 37.4043 23.2 40Z" stroke="#2C1E2F" stroke-width="0.6"/>
</svg>
