<svg width="50" height="50" viewBox="0 0 50 50" fill="none" xmlns="http://www.w3.org/2000/svg">
<path d="M7.37266 41.9666C7.27266 41.9666 7.1671 41.9277 7.08932 41.8499C6.93377 41.6943 6.93377 41.4444 7.08932 41.2888L19.4949 28.8833C19.6504 28.7277 19.9004 28.7277 20.056 28.8833C20.2115 29.0388 20.2115 29.2888 20.056 29.4444L7.65044 41.8499C7.57822 41.9277 7.47266 41.9666 7.37266 41.9666Z" fill="#2C1E2F"/>
<path d="M7.37266 41.9666C7.27266 41.9666 7.1671 41.9277 7.08932 41.85C6.93377 41.6944 6.93377 41.4444 7.08932 41.2889L19.4949 28.8833C19.6504 28.7277 19.9004 28.7277 20.056 28.8833C20.2115 29.0388 20.2115 29.2888 20.056 29.4444L7.65044 41.85C7.57822 41.9277 7.47266 41.9666 7.37266 41.9666Z" fill="#2C1E2F"/>
<path d="M28.9781 20.3667C28.8781 20.3667 28.7726 20.3278 28.6948 20.25C28.5392 20.0945 28.5392 19.8445 28.6948 19.6889L41.4448 6.93893C41.6004 6.78338 41.8504 6.78338 42.0059 6.93893C42.1615 7.09449 42.1615 7.34449 42.0059 7.50004L29.2559 20.25C29.1781 20.3278 29.0781 20.3667 28.9781 20.3667Z" fill="#2C1E2F"/>
<path d="M25 50C11.2167 50 0 38.7833 0 25C0 11.2167 11.2167 0 25 0C38.7833 0 50 11.2167 50 25C50 38.7833 38.7833 50 25 50ZM25 0.794445C11.65 0.794445 0.794447 11.6556 0.794447 25C0.794447 38.3444 11.6556 49.2056 25 49.2056C38.3444 49.2056 49.2056 38.3444 49.2056 25C49.2056 11.6556 38.3444 0.794445 25 0.794445Z" fill="#2C1E2F"/>
<path d="M18.7769 41.689C18.7547 41.4779 18.3269 36.5279 24.9325 32.789C28.6991 30.6557 30.688 27.8557 30.5325 24.9057C30.3825 21.989 28.1714 19.2557 24.7714 17.7723C18.0214 14.8334 18.6825 8.37233 18.688 8.30566L19.4769 8.39455C19.4491 8.639 18.888 14.3446 25.088 17.0446C28.7714 18.6446 31.1603 21.639 31.3269 24.8612C31.4991 28.1334 29.3658 31.189 25.3269 33.4779C19.1936 36.9501 19.5491 41.4168 19.5658 41.6057L18.7769 41.689Z" fill="#2C1E2F"/>
<path d="M31.2552 41.6723L30.4607 41.6112C30.4718 41.4223 30.7163 36.889 24.7107 33.5834C20.6885 31.3667 18.544 28.3556 18.6885 25.1056C18.8274 21.8445 21.2274 18.7945 24.9441 17.1445C31.0718 14.4278 30.5274 8.44449 30.5218 8.38338L31.3107 8.30005C31.3163 8.36672 31.9163 14.9167 25.2718 17.8667C21.8829 19.3723 19.6107 22.2223 19.4885 25.1334C19.3607 28.0667 21.3552 30.8167 25.1052 32.8778C31.5718 36.4556 31.2663 41.4612 31.2552 41.6723Z" fill="#2C1E2F"/>
<path d="M29.6167 12.5112H20V13.3057H29.6167V12.5112Z" fill="#2C1E2F"/>
<path d="M29.7768 37.4944H20.1602V38.2888H29.7768V37.4944Z" fill="#2C1E2F"/>
<path d="M29.5106 28.8279H20.4551V29.6223H29.5106V28.8279Z" fill="#2C1E2F"/>
<path d="M30.8597 24.9111H19.3652V25.7056H30.8597V24.9111Z" fill="#2C1E2F"/>
<path d="M29.8049 21.1724H20.4883V21.9668H29.8049V21.1724Z" fill="#2C1E2F"/>
</svg>
