<svg width="45" height="53" viewBox="0 0 45 53" fill="none" xmlns="http://www.w3.org/2000/svg">
<path d="M8.68102 27.3762L12.3121 20.8067C13.1557 19.3373 14.5473 18.2535 16.1888 17.7873C17.8303 17.3212 19.591 17.5099 21.0936 18.3129C22.5962 19.116 23.7211 20.4696 24.2272 22.0835C24.7334 23.6975 24.5806 25.4434 23.8015 26.9472L13.3418 46.1465C12.9452 46.912 12.398 47.5915 11.7325 48.1451C11.067 48.6986 10.2965 49.1151 9.46617 49.3701C8.63585 49.6251 7.76242 49.7135 6.89713 49.6301C6.03183 49.5466 5.19208 49.2931 4.42713 48.8842C3.66217 48.4754 2.98741 47.9195 2.44242 47.2492C1.89742 46.5789 1.49317 45.8077 1.25336 44.9808C1.01354 44.1538 0.943007 43.2878 1.04588 42.4336C1.14875 41.5793 1.42296 40.7539 1.85243 40.0059L4.10153 35.8765L8.68102 27.3762Z" stroke="#2C1E2F" stroke-width="0.7" stroke-linecap="round" stroke-linejoin="round"/>
<path d="M20.6328 20.2705C21.4675 21.0828 21.9975 22.1523 22.1354 23.3028C22.2734 24.4532 22.011 25.6157 21.3915 26.5988" stroke="#2C1E2F" stroke-width="0.7" stroke-linecap="round" stroke-linejoin="round"/>
<path d="M9.27734 31.9077C11.3368 33.3289 16.1601 36.0908 18.897 35.9835" stroke="#2C1E2F" stroke-width="0.7" stroke-linecap="round" stroke-linejoin="round"/>
<path d="M20.3862 33.4629L24.3424 34.6695L36.3467 38.2895C38.1433 38.83 39.6495 40.0546 40.5337 41.694C41.4179 43.3334 41.6078 45.2532 41.0616 47.0311C40.5155 48.809 39.2779 50.2994 37.6212 51.1744C35.9646 52.0494 34.0245 52.2373 32.2278 51.6968L13.4492 45.9049" stroke="#2C1E2F" stroke-width="0.7" stroke-linecap="round" stroke-linejoin="round"/>
<path d="M24.2344 46.7097C24.2344 46.7097 28.7326 40.7301 27.2964 35.9839" stroke="#2C1E2F" stroke-width="0.7" stroke-linecap="round" stroke-linejoin="round"/>
<path d="M25.417 2.66812L25.393 2.6807C22.5914 4.15416 21.5274 7.59605 23.0164 10.3684L32.1347 27.3456C33.6238 30.1179 37.102 31.1709 39.9036 29.6974L39.9275 29.6848C42.7291 28.2114 43.7931 24.7695 42.3041 21.9971L33.1858 5.01995C31.6968 2.24761 28.2186 1.19466 25.417 2.66812Z" stroke="#2C1E2F" stroke-width="0.7" stroke-linecap="round" stroke-linejoin="round"/>
<path d="M26.7285 4.182C27.7526 3.98069 28.8155 4.13815 29.735 4.62738C30.6546 5.11662 31.3736 5.90715 31.7687 6.86346" stroke="#2C1E2F" stroke-width="0.7" stroke-linecap="round" stroke-linejoin="round"/>
<path d="M28.4902 18.1518C28.4902 18.1518 35.1291 16.7843 37.4595 13.0034" stroke="#2C1E2F" stroke-width="0.7" stroke-linecap="round" stroke-linejoin="round"/>
</svg>
