<svg width="50" height="50" viewBox="0 0 50 50" fill="none" xmlns="http://www.w3.org/2000/svg">
<path d="M7.37266 41.9666C7.27266 41.9666 7.1671 41.9277 7.08932 41.8499C6.93377 41.6944 6.93377 41.4444 7.08932 41.2888L17.2727 31.1055C17.4282 30.9499 17.2782 31.6611 17.2782 31.6611C17.4338 31.8166 17.2782 32.2222 17.2782 32.2222L7.65044 41.8499C7.57822 41.9277 7.47266 41.9666 7.37266 41.9666Z" fill="#2C1E2F"/>
<path d="M32.8668 16.4778C32.7668 16.4778 32.6612 16.4389 32.5835 16.3612C32.4279 16.2056 32.4279 15.9556 32.5835 15.8001L41.4446 6.93893C41.6001 6.78338 41.8501 6.78338 42.0057 6.93893C42.1612 7.09449 42.1612 7.34449 42.0057 7.50004L32.589 16.9167C32.5112 16.9945 32.9668 16.4778 32.8668 16.4778Z" fill="#2C1E2F"/>
<path d="M25 50C11.2167 50 0 38.7833 0 25C0 11.2167 11.2167 0 25 0C38.7833 0 50 11.2167 50 25C50 38.7833 38.7833 50 25 50ZM25 0.794445C11.65 0.794445 0.794447 11.6556 0.794447 25C0.794447 38.3444 11.6556 49.2056 25 49.2056C38.3444 49.2056 49.2056 38.3444 49.2056 25C49.2056 11.6556 38.3444 0.794445 25 0.794445Z" fill="#2C1E2F"/>
<path d="M25.027 18.3388C25.027 18.3388 25.0214 18.3388 25.027 18.3388C24.8658 18.3388 24.7158 18.2777 24.6047 18.161L23.4603 17.0166C21.0158 14.5721 21.0158 10.5999 23.4603 8.15547L24.6047 7.01103C24.7158 6.89992 24.8658 6.83325 25.027 6.83325C25.1881 6.83325 25.3381 6.89436 25.4492 7.01103L26.5936 8.15547C29.0381 10.5999 29.0381 14.5721 26.5936 17.0166L25.4492 18.161C25.3381 18.2721 25.1881 18.3388 25.027 18.3388ZM25.027 7.71103L24.0214 8.71659C21.8881 10.8499 21.8881 14.3221 24.0214 16.4555L25.027 17.461L26.0325 16.4555C28.1658 14.3221 28.1658 10.8499 26.0325 8.71659L25.027 7.71103Z" fill="#2C1E2F"/>
<path d="M26.8163 37.7112H25.1996C24.8718 37.7112 24.5996 37.4445 24.5996 37.1112V35.4945C24.5996 32.0389 27.4107 29.2278 30.8663 29.2278H32.483C32.8108 29.2278 33.083 29.4945 33.083 29.8278V31.4445C33.083 34.9 30.2719 37.7112 26.8163 37.7112ZM25.3941 36.9167H26.8163C29.833 36.9167 32.2885 34.4612 32.2885 31.4445V30.0222H30.8663C27.8496 30.0222 25.3941 32.4778 25.3941 35.4945V36.9167Z" fill="#2C1E2F"/>
<path d="M26.8163 30.3777H25.1996C24.8718 30.3777 24.5996 30.111 24.5996 29.7776V28.161C24.5996 24.7054 27.4107 21.8943 30.8663 21.8943H32.483C32.8108 21.8943 33.083 22.161 33.083 22.4943V24.111C33.083 27.5665 30.2719 30.3777 26.8163 30.3777ZM25.3941 29.5832H26.8163C29.833 29.5832 32.2885 27.1276 32.2885 24.111V22.6887H30.8663C27.8496 22.6887 25.3941 25.1443 25.3941 28.161V29.5832Z" fill="#2C1E2F"/>
<path d="M26.8163 23.0388H25.1996C24.8718 23.0388 24.5996 22.7721 24.5996 22.4388V20.8221C24.5996 17.3665 27.4107 14.5554 30.8663 14.5554H32.483C32.8108 14.5554 33.083 14.8221 33.083 15.1554V16.7721C33.083 20.2276 30.2719 23.0388 26.8163 23.0388ZM25.3941 22.2443H26.8163C29.833 22.2443 32.2885 19.7888 32.2885 16.7721V15.3499H30.8663C27.8496 15.3499 25.3941 17.8054 25.3941 20.8221V22.2443Z" fill="#2C1E2F"/>
<path d="M24.772 37.7112H23.1553C19.6998 37.7112 16.8887 34.9 16.8887 31.4445V29.8278C16.8887 29.5 17.1553 29.2278 17.4887 29.2278H19.1053C22.5609 29.2278 25.372 32.0389 25.372 35.4945V37.1167C25.372 37.4445 25.1053 37.7112 24.772 37.7112ZM17.6831 30.0222V31.4445C17.6831 34.4612 20.1387 36.9167 23.1553 36.9167H24.5775V35.4945C24.5775 32.4778 22.122 30.0222 19.1053 30.0222H17.6831Z" fill="#2C1E2F"/>
<path d="M24.772 30.3777H23.1553C19.6998 30.3777 16.8887 27.5665 16.8887 24.111V22.4943C16.8887 22.1665 17.1553 21.8943 17.4887 21.8943H19.1053C22.5609 21.8943 25.372 24.7054 25.372 28.161V29.7776C25.372 30.1054 25.1053 30.3777 24.772 30.3777ZM17.6831 22.6887V24.111C17.6831 27.1276 20.1387 29.5832 23.1553 29.5832H24.5775V28.161C24.5775 25.1443 22.122 22.6887 19.1053 22.6887H17.6831Z" fill="#2C1E2F"/>
<path d="M24.772 23.0388H23.1553C19.6998 23.0388 16.8887 20.2276 16.8887 16.7721V15.1554C16.8887 14.8276 17.1553 14.5554 17.4887 14.5554H19.1053C22.5609 14.5554 25.372 17.3665 25.372 20.8221V22.4388C25.372 22.7721 25.1053 23.0388 24.772 23.0388ZM17.6831 15.3499V16.7721C17.6831 19.7888 20.1387 22.2443 23.1553 22.2443H24.5775V20.8221C24.5775 17.8054 22.122 15.3499 19.1053 15.3499H17.6831Z" fill="#2C1E2F"/>
<path d="M25.2769 18.4556H24.4824V43.1112H25.2769V18.4556Z" fill="#2C1E2F"/>
</svg>
