<svg width="50" height="50" viewBox="0 0 50 50" fill="none" xmlns="http://www.w3.org/2000/svg">
<path d="M18.1127 30.286L7.10547 41.2932L7.66722 41.855L18.6744 30.8477L18.1127 30.286Z" fill="#2C1E2F"/>
<path d="M29.106 20.3612L28.5449 19.8001L41.4616 6.93896L42.0227 7.50008L29.106 20.3612Z" fill="#2C1E2F"/>
<path d="M25 50C11.2167 50 0 38.7833 0 25C0 11.2167 11.2111 0 25 0C38.7889 0 50 11.2167 50 25C50 38.7833 38.7833 50 25 50ZM25 0.794445C11.6556 0.794445 0.794447 11.6556 0.794447 25C0.794447 38.3444 11.6556 49.2056 25 49.2056C38.35 49.2056 49.2056 38.3444 49.2056 25C49.2056 11.6556 38.3444 0.794445 25 0.794445Z" fill="#2C1E2F"/>
<path d="M19.8729 31.4332C19.834 31.4332 19.7951 31.4277 19.7618 31.4165L9.86733 28.5277C9.71177 28.4832 9.60066 28.3499 9.58399 28.1888L8.30622 16.0332C8.2951 15.9054 8.34511 15.7777 8.43956 15.6888C8.534 15.5999 8.67289 15.5721 8.80067 15.6054L18.5951 18.161C18.7562 18.1999 18.8729 18.3388 18.8895 18.4999L20.2729 30.9888C20.2895 31.1221 20.234 31.2499 20.134 31.3332C20.0562 31.3999 19.9618 31.4332 19.8729 31.4332ZM10.3451 27.8388L19.4118 30.4888L18.1284 18.861L9.15622 16.5165L10.3451 27.8388Z" fill="#2C1E2F"/>
<path d="M19.8716 31.4334C19.8105 31.4334 19.7494 31.4167 19.6938 31.3889C19.5771 31.3278 19.4938 31.2112 19.4771 31.0778L18.0938 18.5889C18.0771 18.4223 18.166 18.2612 18.3216 18.1889L27.8272 13.6778C27.9438 13.6223 28.0772 13.6278 28.1938 13.6889C28.3049 13.75 28.3827 13.8667 28.3938 13.9945L28.9938 20.1167C29.0161 20.3278 28.8661 20.5167 28.6605 20.55L22.1883 21.5167L20.7105 30.8334C20.6938 30.9501 20.6216 31.0556 20.516 31.1112L20.066 31.3723C20.0105 31.4112 19.9382 31.4334 19.8716 31.4334ZM18.916 18.7834L20.1105 29.5667L21.4494 21.1056C21.4771 20.9334 21.6105 20.8 21.7827 20.7778L28.1716 19.8223L27.6605 14.6334L18.916 18.7834Z" fill="#2C1E2F"/>
<path d="M18.4886 18.9444C18.4553 18.9444 18.4219 18.9389 18.3886 18.9333L8.59415 16.3777C8.43303 16.3333 8.31082 16.1944 8.29971 16.0222C8.2886 15.8555 8.38303 15.6944 8.53859 15.6277L17.9997 11.5111C18.0775 11.4777 18.1664 11.4666 18.2442 11.4889L28.083 13.65C28.2497 13.6889 28.3719 13.8222 28.3942 13.9944C28.4108 14.1611 28.3219 14.3277 28.1664 14.4L18.6608 18.9111C18.6053 18.9277 18.5497 18.9444 18.4886 18.9444ZM9.91082 15.8944L18.4497 18.1222L26.7775 14.1722L18.1997 12.2889L9.91082 15.8944Z" fill="#2C1E2F"/>
<path d="M28.7388 38.9889C28.6666 38.9889 28.5944 38.9722 28.5333 38.9333L19.7221 33.5833C19.5833 33.5 19.511 33.3389 19.5333 33.1833L19.9277 30.7111C19.961 30.4944 20.1499 30.3444 20.3833 30.3833C20.5999 30.4167 20.7499 30.6222 20.7166 30.8389L20.3666 33.05L28.4333 37.9445L30.1999 26.3833L28.8999 25.6444C28.711 25.5333 28.6444 25.2944 28.7499 25.1055C28.8555 24.9111 29.0999 24.85 29.2888 24.9555L30.8222 25.8278C30.9666 25.9111 31.0444 26.0722 31.0166 26.2333L29.1166 38.6556C29.0999 38.7889 29.0111 38.9 28.8888 38.9556C28.8555 38.9778 28.7944 38.9889 28.7388 38.9889Z" fill="#2C1E2F"/>
<path d="M20.317 31.1723C20.3004 31.1723 20.2782 31.1723 20.2559 31.1667C20.0393 31.1334 19.8893 30.9279 19.9226 30.7112L21.4448 21.1112C21.467 20.9834 21.5504 20.8723 21.667 20.8167C21.7837 20.7612 21.917 20.7612 22.0337 20.8279L29.2948 24.9556C29.4837 25.0667 29.5504 25.3056 29.4448 25.4945C29.3337 25.6834 29.0893 25.7501 28.9059 25.6445L22.1393 21.8001L20.7115 30.8334C20.6782 31.0334 20.5115 31.1723 20.317 31.1723Z" fill="#2C1E2F"/>
<path d="M28.7379 38.9888C28.6434 38.9888 28.549 38.9555 28.4767 38.8888C28.3767 38.7999 28.3267 38.6666 28.349 38.5333L30.249 26.111C30.2712 25.9444 30.4045 25.811 30.5712 25.7777L40.9212 23.8777C41.049 23.8555 41.1823 23.8944 41.2712 23.9833C41.3657 24.0722 41.4046 24.2055 41.3823 24.3277L39.4823 35.8277C39.4545 35.9833 39.3434 36.1055 39.1934 36.1444L28.849 38.9666C28.8045 38.9888 28.7712 38.9888 28.7379 38.9888ZM30.9823 26.511L29.2212 38.0499L38.7323 35.4555L40.5045 24.7666L30.9823 26.511Z" fill="#2C1E2F"/>
<path d="M30.6336 26.5721C30.4447 26.5721 30.278 26.4388 30.2447 26.2444C30.2058 26.0277 30.3503 25.8221 30.5614 25.7833L39.767 24.0944L31.9725 20.0555L28.6558 20.5499C28.4169 20.5833 28.2391 20.4333 28.2058 20.2166C28.1725 19.9999 28.3225 19.7999 28.5391 19.7666L31.9836 19.2499C32.0725 19.2388 32.1503 19.2499 32.228 19.2888L41.1725 23.9221C41.3225 23.9999 41.4059 24.1666 41.3836 24.3333C41.3559 24.4999 41.2281 24.6333 41.0614 24.6666L30.7114 26.5666C30.6836 26.5666 30.6614 26.5721 30.6336 26.5721Z" fill="#2C1E2F"/>
<path d="M21.8385 21.5666C21.6441 21.5666 21.4774 21.4277 21.4441 21.2277C21.4108 21.011 21.5608 20.811 21.7774 20.7777L28.5385 19.7666C28.7719 19.7388 28.9552 19.8833 28.9885 20.0999C29.0219 20.3166 28.8719 20.5166 28.6552 20.5499L21.8941 21.561C21.8774 21.5666 21.8552 21.5666 21.8385 21.5666Z" fill="#2C1E2F"/>
</svg>
