<svg width="36" height="42" viewBox="0 0 36 42" fill="none" xmlns="http://www.w3.org/2000/svg">
<path fill-rule="evenodd" clip-rule="evenodd" d="M28 11C28 16.5228 23.5229 21 18 21C12.4772 21 8 16.5228 8 11C8 5.47715 12.4772 1 18 1C23.5229 1 28 5.47715 28 11ZM29 11C29 17.0751 24.0751 22 18 22C11.9249 22 7 17.0751 7 11C7 4.92487 11.9249 0 18 0C24.0751 0 29 4.92487 29 11ZM29.6875 21.6343C29.4856 21.446 29.1692 21.457 28.9809 21.659C28.7925 21.861 28.8036 22.1774 29.0056 22.3657C30.0171 23.3089 31.6098 25.6209 32.8284 28.157C33.4341 29.4177 33.9364 30.7115 34.2262 31.8936C34.5189 33.0875 34.5804 34.1111 34.3657 34.8626C34.1661 35.5613 33.4848 36.3204 32.3465 37.0755C31.2264 37.8185 29.7435 38.5054 28.0839 39.091C24.7621 40.2631 20.8189 41 17.8477 41C14.8678 41 11.1711 40.385 8.0402 39.3383C6.47552 38.8152 5.06966 38.1901 3.97188 37.4921C2.86395 36.7877 2.12325 36.0428 1.80603 35.303C1.48324 34.5501 1.43109 33.5326 1.60806 32.3485C1.78368 31.1734 2.17713 29.8856 2.68887 28.6291C3.71958 26.0983 5.18581 23.799 6.18672 22.8657C6.38868 22.6774 6.39974 22.361 6.21142 22.159C6.0231 21.957 5.70671 21.946 5.50475 22.1343C4.35221 23.209 2.81846 25.6597 1.76273 28.2519C1.23124 29.5569 0.80986 30.9239 0.619044 32.2007C0.429578 33.4684 0.459384 34.6999 0.886955 35.697C1.3201 36.7072 2.25784 37.5873 3.43533 38.336C4.62297 39.0911 6.10951 39.7473 7.72315 40.2867C10.9488 41.365 14.7524 42 17.8477 42C20.9515 42 25.0078 41.2369 28.4166 40.034C30.1223 39.4321 31.6875 38.7127 32.8993 37.9088C34.0928 37.1171 35.0269 36.1887 35.3273 35.1374C35.6125 34.1389 35.5058 32.9135 35.1974 31.6555C34.8862 30.3858 34.3548 29.0248 33.7297 27.7239C32.4868 25.1371 30.8294 22.6991 29.6875 21.6343Z" fill="#2C1E2F"/>
</svg>
