<svg width="50" height="50" viewBox="0 0 50 50" fill="none" xmlns="http://www.w3.org/2000/svg">
<path d="M42.1281 24.0258C41.8828 24.0258 41.6836 23.8266 41.6836 23.5814V13.2313C41.6836 12.9861 41.8828 12.7869 42.1281 12.7869C42.3733 12.7869 42.5726 12.9861 42.5726 13.2313V23.5814C42.5723 23.8269 42.3733 24.0258 42.1281 24.0258Z" fill="black"/>
<path d="M42.1275 27.3602C40.9631 27.3602 40.0156 26.4126 40.0156 25.2483C40.0156 24.084 40.9632 23.1365 42.1275 23.1365C43.2918 23.1365 44.2393 24.084 44.2393 25.2483C44.2393 26.4127 43.2918 27.3602 42.1275 27.3602ZM42.1275 24.0259C41.4528 24.0259 40.9043 24.5745 40.9043 25.2491C40.9043 25.9238 41.4528 26.4723 42.1275 26.4723C42.8022 26.4723 43.3507 25.9238 43.3507 25.2491C43.3496 24.5745 42.801 24.0259 42.1275 24.0259Z" fill="black"/>
<path d="M42.1281 33.5436C41.3095 33.5436 40.4908 33.341 39.9521 32.9364C39.865 32.8706 39.8045 32.7754 39.7833 32.668C39.4473 30.9934 40.1725 28.028 40.6348 26.4094C40.7023 26.1731 40.9476 26.0369 41.1842 26.1045C41.4205 26.172 41.5567 26.4183 41.4892 26.6538C40.7791 29.141 40.4688 31.1845 40.6242 32.3179C41.3887 32.7607 42.8662 32.7607 43.6295 32.3179C43.786 31.1845 43.4758 29.1418 42.7646 26.6538C42.6971 26.4175 42.8338 26.172 43.0695 26.1045C43.305 26.0369 43.5514 26.1736 43.6189 26.4094C44.0813 28.028 44.8064 30.9934 44.4705 32.668C44.4493 32.7746 44.3887 32.8706 44.3017 32.9364C43.7646 33.3407 42.9457 33.5436 42.1281 33.5436H42.1281ZM44.0363 32.5807H44.0372H44.0363Z" fill="black"/>
<path d="M24.0066 19.9987C23.9569 19.9987 23.9078 19.9906 23.8598 19.9739L5.73912 13.651C5.56055 13.5888 5.44141 13.4208 5.44141 13.2314C5.44141 13.0419 5.56055 12.8739 5.73912 12.8117L23.8598 6.48807C23.955 6.45515 24.0579 6.45515 24.1522 6.48807L42.273 12.8117C42.4515 12.8739 42.5707 13.0419 42.5707 13.2314C42.5707 13.4208 42.4507 13.5888 42.273 13.651L24.1522 19.9747C24.1054 19.9906 24.0565 19.9986 24.0066 19.9986V19.9987ZM7.23517 13.2314L24.0066 19.0838L40.778 13.2314L24.0066 7.37819L7.23517 13.2314Z" fill="black"/>
<path d="M24.006 30.5029H23.9971C20.3589 30.4345 16.7035 29.4219 13.1342 27.4948C12.9902 27.4175 12.9004 27.2671 12.9004 27.1036V15.8336C12.9004 15.5884 13.0996 15.3892 13.3449 15.3892C13.5901 15.3892 13.7893 15.5884 13.7893 15.8336V26.8365C17.1566 28.6133 20.5921 29.5465 24.0051 29.6133C27.4183 29.5474 30.8538 28.6133 34.2208 26.8365V15.8336C34.2208 15.5884 34.42 15.3892 34.6653 15.3892C34.9105 15.3892 35.1097 15.5884 35.1097 15.8336V27.1029C35.1097 27.2664 35.0199 27.4168 34.8759 27.4941C31.3061 29.4212 27.6509 30.4335 24.0131 30.5022C24.0111 30.503 24.0086 30.503 24.0058 30.503L24.006 30.5029Z" fill="black"/>
</svg>
