<svg width="48" height="56" viewBox="0 0 48 56" fill="none" xmlns="http://www.w3.org/2000/svg">
<rect x="0.8" y="0.3" width="35.4" height="55.4" rx="3.7" stroke="#2C1E2F" stroke-width="0.6"/>
<path d="M3.8 7C3.8 5.50883 5.00883 4.3 6.5 4.3H10.3633C10.9445 4.3 11.4749 4.63086 11.7306 5.15279C12.087 5.88041 12.8265 6.34167 13.6367 6.34167H23.3633C24.1735 6.34167 24.913 5.88041 25.2694 5.15279C25.5251 4.63086 26.0555 4.3 26.6367 4.3H30.5C31.9912 4.3 33.2 5.50883 33.2 7V50C33.2 51.4912 31.9912 52.7 30.5 52.7H6.5C5.00883 52.7 3.8 51.4912 3.8 50V7Z" stroke="#2C1E2F" stroke-width="0.6"/>
<circle cx="35" cy="22.5" r="12.2" fill="white" stroke="#2C1E2F" stroke-width="0.6"/>
<path fill-rule="evenodd" clip-rule="evenodd" d="M36.9992 16.2002C37.7172 16.2002 38.2992 16.7822 38.2992 17.5002V19.2002H39.9992C40.7172 19.2002 41.2992 19.7822 41.2992 20.5002V24.5002C41.2992 25.2182 40.7172 25.8002 39.9992 25.8002H38.2992V27.5002C38.2992 28.2182 37.7172 28.8002 36.9992 28.8002H32.9992C32.2812 28.8002 31.6992 28.2182 31.6992 27.5002V25.8002H29.9992C29.2812 25.8002 28.6992 25.2182 28.6992 24.5002V20.5002C28.6992 19.7822 29.2812 19.2002 29.9992 19.2002H31.6992V17.5002C31.6992 16.7822 32.2812 16.2002 32.9992 16.2002H36.9992ZM32.2992 25.5002L32.2992 27.5002C32.2992 27.8868 32.6126 28.2002 32.9992 28.2002H36.9992C37.3858 28.2002 37.6992 27.8868 37.6992 27.5002V25.5002C37.6992 25.3345 37.8335 25.2002 37.9992 25.2002H39.9992C40.3858 25.2002 40.6992 24.8868 40.6992 24.5002V20.5002C40.6992 20.1136 40.3858 19.8002 39.9992 19.8002H37.9992C37.8335 19.8002 37.6992 19.6659 37.6992 19.5002V17.5002C37.6992 17.1136 37.3858 16.8002 36.9992 16.8002H32.9992C32.6126 16.8002 32.2992 17.1136 32.2992 17.5002V19.5002C32.2992 19.6659 32.1649 19.8002 31.9992 19.8002H29.9992C29.6126 19.8002 29.2992 20.1136 29.2992 20.5002V24.5002C29.2992 24.8868 29.6126 25.2002 29.9992 25.2002H31.9992C32.1649 25.2002 32.2992 25.3345 32.2992 25.5002Z" fill="#2C1E2F"/>
<path d="M23 12.8C23.1657 12.8 23.3 12.6657 23.3 12.5C23.3 12.3343 23.1657 12.2 23 12.2V12.8ZM20 25.8C20.1657 25.8 20.3 25.6657 20.3 25.5C20.3 25.3343 20.1657 25.2 20 25.2V25.8ZM11.5 12.8H23V12.2H11.5V12.8ZM20 25.2H11.5V25.8H20V25.2ZM8.8 22.5V15.5H8.2V22.5H8.8ZM11.5 25.2C10.0088 25.2 8.8 23.9912 8.8 22.5H8.2C8.2 24.3225 9.67746 25.8 11.5 25.8V25.2ZM11.5 12.2C9.67746 12.2 8.2 13.6775 8.2 15.5H8.8C8.8 14.0088 10.0088 12.8 11.5 12.8V12.2Z" fill="#2C1E2F"/>
<path d="M9 29.2C8.83431 29.2 8.7 29.3343 8.7 29.5C8.7 29.6657 8.83431 29.8 9 29.8V29.2ZM15 29.8C15.1657 29.8 15.3 29.6657 15.3 29.5C15.3 29.3343 15.1657 29.2 15 29.2V29.8ZM18 29.2C17.8343 29.2 17.7 29.3343 17.7 29.5C17.7 29.6657 17.8343 29.8 18 29.8V29.2ZM20.5 29.8C20.6657 29.8 20.8 29.6657 20.8 29.5C20.8 29.3343 20.6657 29.2 20.5 29.2V29.8ZM9 29.8H15V29.2H9V29.8ZM18 29.8H20.5V29.2H18V29.8Z" fill="#2C1E2F"/>
<mask id="path-7-inside-1_746_1374" fill="white">
<path fill-rule="evenodd" clip-rule="evenodd" d="M25.5 47C25.5 43.134 22.366 40 18.5 40C14.634 40 11.5 43.134 11.5 47H25.5Z"/>
</mask>
<path fill-rule="evenodd" clip-rule="evenodd" d="M25.5 47C25.5 43.134 22.366 40 18.5 40C14.634 40 11.5 43.134 11.5 47H25.5Z" fill="white"/>
<path d="M25.5 47V47.6H26.1V47H25.5ZM11.5 47H10.9V47.6H11.5V47ZM18.5 40.6C22.0346 40.6 24.9 43.4654 24.9 47H26.1C26.1 42.8026 22.6974 39.4 18.5 39.4V40.6ZM12.1 47C12.1 43.4654 14.9654 40.6 18.5 40.6V39.4C14.3026 39.4 10.9 42.8026 10.9 47H12.1ZM11.5 47.6H25.5V46.4H11.5V47.6Z" fill="#2C1E2F" mask="url(#path-7-inside-1_746_1374)"/>
<circle cx="18.5" cy="38" r="4.7" fill="white" stroke="#2C1E2F" stroke-width="0.6"/>
</svg>
