<svg width="50" height="50" viewBox="0 0 50 50" fill="none" xmlns="http://www.w3.org/2000/svg">
<path d="M32.0529 39.5593H19.7101C19.4648 39.5593 19.2656 39.36 19.2656 39.1148V35.1859C19.2656 34.9407 19.4648 34.7415 19.7101 34.7415H32.0522C32.2975 34.7415 32.4967 34.9407 32.4967 35.1859V39.1148C32.4975 39.36 32.2983 39.5593 32.0531 39.5593H32.0529ZM20.1544 38.6703H31.6079V35.6304H20.1544V38.6703Z" fill="black"/>
<path d="M24.0089 35.6301C23.7637 35.6301 23.5645 35.4308 23.5645 35.1856V30.9518C23.5645 30.7065 23.7637 30.5073 24.0089 30.5073C24.2542 30.5073 24.4534 30.7065 24.4534 30.9518V35.1856C24.4534 35.4317 24.2542 35.6301 24.0089 35.6301Z" fill="black"/>
<path d="M27.755 35.63C27.5098 35.63 27.3105 35.4308 27.3105 35.1855V30.8407C27.3105 30.5955 27.5098 30.3962 27.755 30.3962C28.0003 30.3962 28.1995 30.5955 28.1995 30.8407V35.1855C28.1992 35.4316 28.0003 35.63 27.755 35.63Z" fill="black"/>
<path d="M25.5192 31.4985C23.3797 31.4985 21.2676 30.9368 19.3635 29.8381C19.3484 29.8291 19.3334 29.8194 19.32 29.8096C17.7466 28.8914 16.3752 27.6185 15.3512 26.1252C15.2126 25.9226 15.2642 25.6461 15.4668 25.5074C15.6693 25.3688 15.9458 25.4204 16.0845 25.6229C17.0435 27.0211 18.3317 28.2122 19.8099 29.0666C19.8242 29.0747 19.8384 29.0844 19.8518 29.0942C22.4935 30.6046 25.5619 31.0027 28.499 30.2158C31.4395 29.4282 33.8999 27.5473 35.4306 24.9173C35.4368 24.903 35.444 24.888 35.4518 24.8746C36.9817 22.2247 37.3888 19.1405 36.5986 16.1896C36.0785 14.2474 35.0537 12.4714 33.6352 11.0526C33.4982 10.9156 33.3562 10.7805 33.213 10.6508C33.0308 10.4865 33.0166 10.2055 33.1809 10.0233C33.3453 9.84109 33.6262 9.82686 33.8084 9.9912C33.963 10.1307 34.1168 10.2766 34.2635 10.424C35.7915 11.9519 36.8963 13.8667 37.4572 15.9591C38.3051 19.1245 37.874 22.4337 36.2437 25.2805C36.2376 25.2956 36.2295 25.3098 36.2214 25.3241C34.5736 28.1784 31.912 30.2208 28.7293 31.0735C27.6684 31.3581 26.5908 31.4984 25.5197 31.4984L25.5192 31.4985ZM35.8371 25.1012H35.8379H35.8371ZM25.5178 28.5786C23.9001 28.5786 22.3044 28.159 20.8644 27.3359C20.8493 27.3298 20.8342 27.3217 20.8208 27.3136C20.2734 26.9972 19.7558 26.6247 19.282 26.205C19.0982 26.0424 19.0811 25.7614 19.2438 25.5775C19.4065 25.3936 19.6875 25.3766 19.8713 25.5393C20.289 25.9098 20.746 26.2407 21.2276 26.5214C21.2419 26.5276 21.2561 26.5348 21.2695 26.5426C23.241 27.6813 25.5416 27.9826 27.7449 27.3925C29.9475 26.8024 31.7876 25.3908 32.9279 23.4165C32.936 23.4023 32.9449 23.3889 32.9547 23.3755C34.0722 21.4128 34.3646 19.1302 33.7778 16.9408C33.3911 15.499 32.6276 14.1763 31.5679 13.1177C31.4594 13.0103 31.3475 12.9034 31.2337 12.8013C31.0515 12.6369 31.0364 12.356 31.1999 12.1738C31.3634 11.9916 31.6452 11.9765 31.8274 12.14C31.9527 12.253 32.0771 12.3702 32.1963 12.4893C33.3659 13.6581 34.2097 15.1188 34.6363 16.7106C35.2886 19.1445 34.9563 21.6838 33.7002 23.862C33.6913 23.8771 33.6824 23.8913 33.6717 23.9047C32.4114 26.0612 30.39 27.6034 27.9747 28.2513C27.1622 28.4703 26.3372 28.5789 25.5177 28.5789L25.5178 28.5786Z" fill="black"/>
<path d="M20.3884 26.317H12.5656C12.3203 26.317 12.1211 26.1178 12.1211 25.8725V22.7721C12.1211 22.5269 12.3203 22.3276 12.5656 22.3276H20.3884C20.6337 22.3276 20.8329 22.5269 20.8329 22.7721V25.8725C20.8329 26.1181 20.6337 26.317 20.3884 26.317ZM13.0099 25.4284H19.944V23.2169L13.0099 23.2166V25.4284Z" fill="black"/>
<path d="M31.2026 12.9391C29.6825 12.9391 28.4453 11.7028 28.4453 10.1818C28.4453 8.66092 29.6817 7.42456 31.2026 7.42456C32.7235 7.42456 33.9599 8.66199 33.9599 10.1818C33.9599 11.7019 32.7235 12.9391 31.2026 12.9391ZM31.2026 8.31442C30.1724 8.31442 29.334 9.15256 29.334 10.183C29.334 11.2131 30.1722 12.0516 31.2026 12.0516C32.2327 12.0516 33.0711 11.2134 33.0711 10.183C33.0711 9.1517 32.2327 8.31442 31.2026 8.31442Z" fill="black"/>
<path d="M23.3172 18.5134C23.1989 18.5134 23.0862 18.4662 23.0025 18.3837L16.7919 12.173C16.7084 12.0896 16.6621 11.9766 16.6621 11.8583C16.6621 11.74 16.7093 11.6273 16.7919 11.5436L25.9976 2.33856C26.4543 1.88181 27.0643 1.63013 27.7141 1.63013C28.3638 1.63013 28.9736 1.8818 29.4306 2.33856L32.8368 5.74484C33.627 6.5342 33.771 7.79648 33.18 8.74648C33.0503 8.95547 32.7766 9.01853 32.5676 8.88878C32.3597 8.75904 32.2955 8.48533 32.4253 8.27634C32.8003 7.67366 32.7088 6.8737 32.2085 6.37313L28.8022 2.96684C28.5134 2.67806 28.1267 2.51874 27.7143 2.51874C27.302 2.51874 26.9152 2.67778 26.6265 2.96684L17.7351 11.8583L23.3174 17.4406L29.2543 11.5036C29.4276 11.3304 29.7094 11.3304 29.8826 11.5036C30.0559 11.6769 30.0559 11.9587 29.8826 12.132L23.6321 18.3825C23.5484 18.4665 23.4356 18.5134 23.3173 18.5134L23.3172 18.5134Z" fill="black"/>
<path d="M32.5217 6.50387C32.4078 6.50387 32.294 6.46035 32.207 6.37413C32.0337 6.20086 32.0337 5.91905 32.207 5.74578L33.6604 4.29235L30.8836 1.51442L29.4302 2.96785C29.2569 3.14112 28.9751 3.14112 28.8018 2.96785C28.6286 2.79458 28.6286 2.51277 28.8018 2.3395L30.57 0.57136C30.7432 0.398088 31.025 0.398088 31.1983 0.57136L34.6038 3.97679C34.777 4.15006 34.777 4.43187 34.6038 4.60514L32.8353 6.37328C32.7491 6.46034 32.6355 6.50386 32.5217 6.50386L32.5217 6.50387Z" fill="black"/>
<path d="M21.6885 20.1414C21.5702 20.1414 21.4575 20.0942 21.3738 20.0116L15.1632 13.801C14.9899 13.6277 14.9899 13.3459 15.1632 13.1726L16.7915 11.5443C16.9648 11.371 17.2466 11.371 17.4199 11.5443C17.5931 11.7175 17.5931 11.9993 17.4199 12.1726L16.1059 13.4865L21.6882 19.0688L23.0021 17.7549C23.1754 17.5816 23.4572 17.5816 23.6305 17.7549C23.8038 17.9282 23.8038 18.21 23.6305 18.3832L22.0021 20.0116C21.9187 20.095 21.8057 20.1413 21.6885 20.1413V20.1414Z" fill="black"/>
</svg>
