<svg width="101" height="24" viewBox="0 0 101 24" fill="none" xmlns="http://www.w3.org/2000/svg">
<g clip-path="url(#clip0_744_1237)">
<path d="M37.7132 13.6463C37.7132 16.5023 37.2325 18.4196 36.2833 19.4241C35.336 20.4294 33.7254 20.9316 31.4912 20.9316C30.1798 20.9316 29.0754 20.6809 28.1667 20.1778C27.257 19.6756 26.6202 18.9485 26.2439 18.0232C25.8667 17.0845 25.6851 15.6294 25.6851 13.6587V0.542275H22.6325V13.6729C22.6325 16.0792 22.9316 17.9841 23.5158 19.3716C24.1009 20.7601 25.0877 21.8178 26.4518 22.5583C27.8289 23.2854 29.5947 23.6561 31.7509 23.6561C33.9719 23.6561 35.7649 23.2329 37.1412 22.4001C38.5053 21.5529 39.4535 20.4694 39.986 19.1201C40.5053 17.7716 40.7781 15.9601 40.7781 13.6863V0.542275H37.7132V13.6463ZM9.39737 23.5103C10.8781 23.5103 12.1377 23.3778 13.164 23.1272C14.1904 22.8756 15.0342 22.4925 15.7228 21.9894C16.3982 21.4872 16.9693 20.7734 17.4368 19.8472C17.8946 18.9151 18.1304 17.8874 18.1254 16.8463C18.1254 15.5103 17.7482 14.3467 16.9825 13.3689C16.2289 12.3903 15.1386 11.6889 13.736 11.2801C14.8263 10.7503 15.6447 10.0498 16.1904 9.17694C16.7184 8.34982 16.9981 7.38516 16.9956 6.40005C16.9956 5.34228 16.6974 4.33783 16.086 3.3725C15.4763 2.40716 14.6316 1.6925 13.5535 1.23027C12.4754 0.768053 11.0465 0.52983 9.26754 0.52983H0.5V23.5103H9.39737ZM3.59123 3.2525H8.25439C9.92982 3.2525 11.1114 3.35916 11.8 3.57072C12.4886 3.78228 13.0211 4.17872 13.3851 4.76094C13.7623 5.34228 13.943 6.01694 13.943 6.76983C13.943 7.57694 13.7482 8.23828 13.3465 8.7805C12.943 9.30939 12.3588 9.6925 11.5658 9.93072C10.9693 10.1023 9.99474 10.1947 8.61842 10.1947H3.59211V3.25339L3.59123 3.2525ZM3.59123 12.9058H8.98246C10.4632 12.9058 11.6061 13.0383 12.3982 13.2889C13.1912 13.5405 13.8018 13.9903 14.2561 14.6249C14.6974 15.2596 14.9184 16.0001 14.9184 16.8596C14.9184 17.5867 14.7623 18.2347 14.4509 18.7903C14.1386 19.3449 13.7491 19.7681 13.2684 20.0721C12.7886 20.3636 12.2035 20.5752 11.4895 20.6943C11.086 20.7734 10.3851 20.8001 9.38509 20.8001H3.59123V12.9058ZM49.2456 10.6312V3.0285H56.6237C58.3518 3.0285 59.6114 3.3725 60.4167 4.07294C61.2219 4.77339 61.6114 5.65961 61.6114 6.75739C61.6114 7.49783 61.4035 8.18494 60.9886 8.81961C60.5728 9.45428 59.9754 9.91739 59.1702 10.1947C58.3772 10.4863 57.2737 10.6312 55.8579 10.6312H49.2456ZM67.4044 23.4445L57.793 13.0641L58.2474 13.0249C60.4816 12.7209 62.1439 12.0063 63.2097 10.8961C64.2746 9.77161 64.8202 8.40983 64.8202 6.77072C64.8202 5.50139 64.4956 4.35028 63.8465 3.30583C63.1965 2.26139 62.3386 1.53427 61.2482 1.1245C60.1693 0.714719 58.5851 0.502275 56.507 0.502275H46.1684V23.4845H49.2597V13.2756H54.1044L63.6509 23.4445H67.4053H67.4044ZM87.6544 18.4596C85.9526 20.2312 83.8351 21.1441 81.3412 21.1707C79.043 21.1965 76.9772 20.3369 75.2105 18.6312C73.4316 16.9254 72.5088 14.7041 72.4825 12.0329C72.457 9.48183 73.3018 7.31294 74.9904 5.55383C76.6789 3.78228 78.7825 2.86939 81.2632 2.84272C83.7447 2.81694 85.8746 3.68983 87.5763 5.42139C89.2904 7.15472 90.1605 9.33605 90.1868 11.9138C90.2 14.4658 89.3553 16.6605 87.6544 18.4596ZM89.6412 3.45161C87.3167 1.1245 84.1605 -0.0257252 80.9395 0.000941454C77.6789 0.0276081 75.1851 1.24361 72.886 3.59739C70.5737 5.95028 69.4175 8.77961 69.4561 12.0196C69.4956 15.7085 70.8211 18.7236 73.3921 20.9716C75.743 23.0072 78.4061 24.0258 81.3281 23.9992C84.6272 23.9601 87.4719 22.7565 89.7842 20.4169C92.0833 18.0889 93.2395 15.2329 93.2 11.9138C93.1746 8.62139 91.9667 5.77872 89.6412 3.45161ZM98.9667 23.9467C99.375 23.9467 99.7665 23.7824 100.055 23.4898C100.344 23.1973 100.506 22.8005 100.506 22.3867C100.506 21.973 100.344 21.5762 100.055 21.2836C99.7665 20.9911 99.375 20.8267 98.9667 20.8267C98.7645 20.8267 98.5643 20.8671 98.3775 20.9455C98.1908 21.0239 98.021 21.1388 97.8781 21.2836C97.7351 21.4285 97.6217 21.6005 97.5444 21.7897C97.467 21.979 97.4272 22.1819 97.4272 22.3867C97.4272 22.5916 97.467 22.7944 97.5444 22.9837C97.6217 23.173 97.7351 23.3449 97.8781 23.4898C98.021 23.6347 98.1908 23.7496 98.3775 23.828C98.5643 23.9064 98.7645 23.9467 98.9667 23.9467Z" fill="#2C1E2F"/>
</g>
<defs>
<clipPath id="clip0_744_1237">
<rect width="100" height="24" fill="white" transform="translate(0.5)"/>
</clipPath>
</defs>
</svg>
