<svg width="71" height="28" viewBox="0 0 71 28" fill="none" xmlns="http://www.w3.org/2000/svg">
<g clip-path="url(#clip0_368_693)">
<path fill-rule="evenodd" clip-rule="evenodd" d="M3.07211 26.6457H0.966797V27.0307H12.6245V20.1008H12.2789C12.2789 20.1008 12.2789 24.0988 10.8649 25.4018C9.67084 26.5272 8.41394 26.6161 6.37147 26.6161V13.8521C6.37147 13.8521 7.78548 13.7632 8.47678 14.4147C9.54513 15.4216 9.67084 16.7247 9.67084 18.5312H10.0479V8.75826H9.67084C9.67084 10.5648 9.5766 11.8679 8.47678 12.8747C7.78548 13.5263 6.37147 13.4375 6.37147 13.4375V1.32494C8.41394 1.32494 9.38805 1.44339 10.5821 2.53915C11.9647 3.84221 11.9961 7.84021 11.9961 7.84021H12.3417V0.939941H0.966797V1.32494H3.07211V26.6457Z" fill="#2C1E2F"/>
<path fill-rule="evenodd" clip-rule="evenodd" d="M25.8539 1.32494V26.6457C27.8963 26.6457 29.1533 26.5272 30.3473 25.4315C31.73 24.1284 31.7613 20.1304 31.7613 20.1304H32.107V27.0603H20.4492V26.6753H22.5545V1.29532H20.4492V0.939941H27.7707V1.32494H25.8539Z" fill="#2C1E2F"/>
<path fill-rule="evenodd" clip-rule="evenodd" d="M44.5804 1.32494V26.6457C46.6229 26.6457 47.8798 26.5272 49.0738 25.4315C50.4564 24.1284 50.4879 20.1304 50.4879 20.1304H50.8335V27.0603H39.1758V26.6753H41.2811V1.29532H39.1758V0.939941H46.4972V1.32494H44.5804Z" fill="#2C1E2F"/>
<path fill-rule="evenodd" clip-rule="evenodd" d="M60.4802 26.6457H58.375V27.0307H70.0328V20.1008H69.6871C69.6871 20.1008 69.6871 24.0988 68.2731 25.4018C67.079 26.5272 65.8221 26.6161 63.7797 26.6161V13.8521C63.7797 13.8521 65.1937 13.7632 65.885 14.4147C66.9533 15.4216 67.079 16.7247 67.079 18.5312H67.4561V8.75826H67.079C67.079 10.5648 66.9848 11.8679 65.885 12.8747C65.1937 13.5263 63.7797 13.4375 63.7797 13.4375V1.32494C65.8221 1.32494 66.7962 1.44339 67.9903 2.53915C69.3729 3.84221 69.4043 7.84021 69.4043 7.84021H69.7499V0.939941H58.375V1.32494H60.4802V26.6457Z" fill="#2C1E2F"/>
</g>
<defs>
<clipPath id="clip0_368_693">
<rect width="70" height="27" fill="white" transform="translate(0.5 0.5)"/>
</clipPath>
</defs>
</svg>
