<svg width="85" height="22" viewBox="0 0 85 22" fill="none" xmlns="http://www.w3.org/2000/svg">
<g clip-path="url(#clip0_368_691)">
<path fill-rule="evenodd" clip-rule="evenodd" d="M48.1645 7.30011C49.2259 6.72176 50.2868 6.43202 51.6374 6.43202C54.918 6.43202 57.4264 9.32715 57.4264 13.2826C57.4264 18.3 54.3391 21.4843 49.2254 21.4843C47.3917 21.4843 45.558 21.1946 43.8213 20.8084C43.9183 18.782 44.0158 6.43202 43.8213 4.11638C43.6303 2.958 43.3394 2.47604 42.4719 2.28325L41.7966 2.18686V1.60795L48.2614 0.450684C48.1645 1.41517 48.1645 4.21277 48.1645 7.30011ZM48.2604 20.3264C48.549 20.4223 49.032 20.4223 49.4182 20.4223C51.4446 20.4223 52.8921 17.4319 52.8927 13.5712C52.8927 10.4844 51.7349 7.97598 49.6109 7.97598C49.1278 7.97598 48.7423 8.07234 48.1634 8.26571C48.0675 13.2826 48.1634 18.9759 48.2604 20.3264ZM0.5 0.836253H17.4815L17.5785 6.52897L16.6135 6.8187C15.649 3.92359 14.2984 2.28381 11.6925 2.28381H8.31601C8.21906 4.11693 8.1227 7.20428 8.1227 10.4849L10.4378 10.388C11.8853 10.388 12.5595 9.23073 12.8498 7.59043H13.7184V14.4387H12.8498C12.56 12.799 11.8853 11.6411 10.4378 11.6411L8.12211 11.5447C8.12211 14.0526 8.21853 16.079 8.31548 17.3338C8.50826 19.1675 8.99077 20.0356 10.245 20.1314L11.4028 20.3253V21.097H0.5V20.3253L1.46503 20.1314C2.71922 20.0362 3.20118 19.1675 3.39396 17.3338C3.5873 14.344 3.68424 8.07182 3.39396 4.59833C3.20173 2.76521 2.71866 1.99352 1.46503 1.80073L0.5 1.70434V0.836253ZM30.2179 13.8614C30.2179 9.51993 27.806 6.23924 22.9814 6.23924C18.1568 6.23924 15.4557 9.71271 15.4557 13.8614C15.4557 18.2036 17.8676 21.4848 22.6916 21.4848C27.5163 21.4848 30.2179 18.0102 30.2179 13.8614ZM19.9899 13.8614C19.9899 10.0989 20.5688 7.20428 22.6916 7.20428C24.7187 7.20428 25.6826 10.1952 25.6826 13.8614C25.6826 17.6241 25.1025 20.5187 22.885 20.5187C20.9549 20.5187 19.9899 17.5277 19.9899 13.8614ZM66.1094 6.23924C61.1884 6.23924 58.6801 10.0024 58.6801 13.9584C58.6801 18.3969 61.7673 21.4843 66.1094 21.4848C68.8108 21.4848 70.9331 20.1331 71.898 18.7825L71.5129 18.3005C70.5473 18.9764 69.7757 19.3614 68.2317 19.3614C64.7577 19.3614 63.021 16.756 63.1179 13.1862H72.0913C72.0913 9.23073 70.1608 6.23924 66.1094 6.23924ZM67.6527 12.0284L63.1179 12.1253C63.2138 9.90549 64.0835 7.20428 65.7232 7.20428C67.3628 7.20428 67.6527 10.0989 67.6527 12.0284ZM79.1366 6.23924C80.8731 6.23924 82.4164 6.52842 83.5746 7.01149L83.6731 10.7741L82.9981 10.9669C82.1285 8.36154 80.9711 7.30011 79.2352 7.30011C78.0777 7.30011 77.2075 8.16876 77.2075 9.42298C77.2075 10.6777 78.1717 11.3531 80.8738 12.4139C83.3826 13.3795 84.4441 14.5368 84.4441 16.5632C84.4441 19.5536 82.0319 21.4843 78.2683 21.4843C76.4352 21.4843 74.3129 21.0976 73.1547 20.6156L73.0581 16.3705L73.7338 16.1766C74.7946 19.0717 76.146 20.1325 77.9792 20.1325C79.5231 20.1325 80.3914 19.0717 80.3914 17.9138C80.3914 16.756 79.7157 16.0802 77.3041 15.2126C74.9859 14.4404 73.3473 13.3795 73.3473 10.8705C73.3473 8.36154 75.5676 6.23924 79.1366 6.23924ZM36.6823 9.61688C38.2257 6.14284 41.1207 5.66144 42.7605 6.62537L41.2165 10.5819C39.2871 9.32768 37.1642 9.90602 36.6823 10.5819C36.5854 12.8975 36.5854 16.5638 36.7781 18.3975C36.8751 19.5542 37.1648 20.1331 38.1292 20.2301L39.287 20.327V21.0987H30.3143V20.327L30.9896 20.2301C31.8588 20.1331 32.2438 19.5542 32.3408 18.3975C32.4372 16.3716 32.5336 12.3186 32.3408 10.003C32.2438 8.74822 31.8588 8.26624 30.9896 8.16929L30.3143 8.07293V7.494L36.7781 6.23979L36.6823 9.61688Z" fill="#2C1E2F"/>
</g>
<defs>
<clipPath id="clip0_368_691">
<rect width="84" height="21.0986" fill="white" transform="translate(0.5 0.450684)"/>
</clipPath>
</defs>
</svg>
