<svg width="101" height="26" viewBox="0 0 101 26" fill="none" xmlns="http://www.w3.org/2000/svg">
<g clip-path="url(#clip0_744_1239)">
<path fill-rule="evenodd" clip-rule="evenodd" d="M24.3337 18.4492L26.2396 15.2862C27.1812 16.1422 30.3238 18.1512 35.7891 18.1512C39.0525 18.1512 41.6988 17.1312 41.7266 14.9922C41.7266 13.9022 40.7863 13.2762 39.1426 12.9472C37.5841 12.6192 35.7604 12.6512 34.7307 12.5862C31.4693 12.3862 25.0366 12.2552 25.0366 7.08316C25.0366 2.63917 29.5317 0.826172 34.7307 0.826172C39.4654 0.826172 42.609 2.07617 45.018 3.92017L43.0781 6.95017C41.2863 5.43516 38.4079 4.25117 34.7921 4.25117C32.205 4.25117 28.8554 5.03917 28.8554 6.85318C28.8554 8.66715 33.7069 8.69717 34.7921 8.76217C38.5238 8.96119 45.4297 8.99215 45.3988 14.9242C45.3988 19.3032 41.4594 21.6422 35.8198 21.6422C31.4693 21.6422 27.5327 20.7842 24.3327 18.4482L24.3337 18.4492ZM52.484 21.6432C49.4535 21.6102 47.9309 20.2592 47.9309 16.7662V9.12716H45.6367V5.70315H47.9309V1.84617H51.6031V5.70217H55.9496V9.12617H51.6031V16.6002C51.6031 17.6222 51.8949 18.1502 53.1309 18.1192C54.4227 18.1192 55.9496 17.4912 55.9496 17.4912L56.8 20.8822C56.8 20.8822 54.1562 21.6092 52.5098 21.6092L52.4832 21.6422L52.484 21.6432ZM61.8258 25.8262L64.6199 20.6542L57.1543 5.70217H61.4762L66.6773 16.6002L72.0535 5.70217H76.109L65.884 25.8272H61.8258V25.8262ZM77.2863 21.1492V1.25417H80.9891V21.1492H77.2863ZM86.3375 14.9922C86.8691 17.0292 89.1902 18.0192 91.3348 18.0192C95.418 18.0192 97.0605 16.8352 98.0625 15.9762L99.9148 18.8462C97.7395 20.5912 95.5625 21.6112 91.3336 21.6442C85.6328 21.6442 82.3375 18.1522 82.3375 13.4412C82.3375 8.56619 86.009 5.30516 91.302 5.33718C96.591 5.33718 100.469 8.20518 100.5 15.0232H86.3645L86.3375 14.9922ZM86.3375 11.7282H96.2387C95.7395 9.95017 93.684 8.83017 91.2734 8.83017C88.8039 8.83017 86.8367 9.91618 86.3367 11.7282H86.3375ZM0.5 21.1792V1.48317H4.37525V21.1792H0.5ZM18.8079 13.2102C18.8079 9.95018 18.1594 8.96218 14.9841 8.96218C12.1931 8.96218 10.1663 10.3452 9.84355 10.6762V21.1792H6.17031V5.76918H9.72477V6.85519C10.6069 6.32715 12.397 5.37016 15.1317 5.37016C20.4495 5.37016 22.5059 7.35017 22.5386 11.9932V21.1802H18.7763L18.8079 13.2102Z" fill="#2C1E2F"/>
</g>
<defs>
<clipPath id="clip0_744_1239">
<rect width="100" height="26" fill="white" transform="translate(0.5)"/>
</clipPath>
</defs>
</svg>
