<svg width="131" height="24" viewBox="0 0 131 24" fill="none" xmlns="http://www.w3.org/2000/svg">
<path d="M47.5488 9.16308V23.3412L52.5665 23.339L52.5559 6.41113L47.5488 9.16308Z" fill="#2C1E2F"/>
<path d="M52.6845 2.0356C52.4941 1.48245 52.0918 0.951326 51.5865 0.585901C50.4449 -0.120619 48.8048 0.081737 47.9258 1.04026C47.2612 1.67757 46.9429 2.74442 47.1141 3.76459C47.2488 4.71834 48.01 5.48355 48.6556 5.79029C49.7198 6.22722 51.3025 6.13812 52.2677 4.91593C52.8143 4.24393 52.9905 3.03127 52.6845 2.03313V2.0356Z" fill="#2C1E2F"/>
<path d="M22.5671 9.16506C22.3118 8.10857 21.4371 7.19755 20.4395 6.95558C18.1328 6.37399 16.0336 7.27596 14.8205 9.36856L14.7065 9.56336L14.626 9.35278C14.0215 7.80446 13.0656 6.9467 11.7847 6.8055C9.65259 6.46572 8.00722 7.29832 6.43829 9.5073L6.2418 9.78511V6.5752C5.94705 6.72955 1.39062 9.109 1.39062 9.109V23.3601H6.2418L6.25173 12.6906C6.25173 11.8575 7.05759 11.1257 7.86441 11.1528C8.62042 11.1779 9.38028 11.9098 9.38028 12.6906C9.38028 12.6906 9.38269 23.1539 9.38269 23.3482H14.4451C14.4451 23.1539 14.4363 12.6906 14.4363 12.6906C14.4449 11.8478 15.3123 11.1151 16.1395 11.1528C16.896 11.1871 17.6185 11.9198 17.6185 12.6906V23.344H22.7093L22.7007 11.0004C22.7007 10.492 22.7007 9.75552 22.5671 9.16506Z" fill="#2C1E2F"/>
<path d="M36.7433 21.3459C36.3089 21.303 36.1894 20.3583 36.1894 20.3583C36.1894 20.3494 35.2662 14.7311 35.2662 14.7311C35.2662 14.7382 35.0479 13.6391 35.0479 13.6391C34.8235 12.4703 34.5898 11.2596 34.1557 10.1473C32.7371 6.77444 28.6666 6.21964 25.6688 7.13066C25.1882 7.28041 24.7327 7.53323 24.7327 7.53323V9.62386C25.9653 9.07532 27.168 9.04178 28.1412 9.51619C29.4069 10.1448 29.7638 11.7449 29.8295 12.4072C29.8295 12.4185 29.9406 13.1478 29.9406 13.1478C28.4784 13.3739 26.6617 13.7443 25.3217 14.7132C23.8246 15.8078 23.0367 17.5519 23.2115 19.3736C23.266 21.3115 24.7282 22.8628 26.1402 23.4002C28.0168 24.0802 30.5924 23.9704 32.1243 22.1621C32.1332 22.153 32.3119 21.9482 32.3119 21.9482L32.7456 22.3813C33.8632 23.5832 35.0875 23.5453 36.5061 23.5026L37.2586 23.4872L37.2581 21.4251C37.2581 21.4251 36.7564 21.351 36.7433 21.3459ZM30.3107 15.6281L31.227 20.1849C28.8668 22.9761 24.9792 18.0773 30.3107 15.6281Z" fill="#2C1E2F"/>
<path d="M46.3433 6.42691C44.1305 6.42691 42.9234 9.05919 42.9105 9.08845L42.7011 9.59442V9.27157L42.6991 6.41113L37.7734 9.16176L37.7779 23.3811L42.7206 23.3793V14.2782L42.7403 13.9384C42.7839 13.1883 42.8253 12.4139 43.1681 11.7605C43.9078 10.2945 45.6211 10.3258 46.819 10.4846L47.6873 6.66412C47.6873 6.66412 47.1418 6.42905 46.3433 6.42691Z" fill="#2C1E2F"/>
<path d="M116.926 6.66428C116.926 6.66428 116.38 6.42938 115.581 6.42708C113.369 6.42708 112.162 9.05935 112.149 9.08878L111.939 9.59475V9.27157L111.937 6.41113L107.012 9.16209L107.016 23.3813L111.959 23.3793V14.2782L111.978 13.9384C112.022 13.1883 112.063 12.4141 112.406 11.7605C113.146 10.2947 114.859 10.3258 116.057 10.4847L116.926 6.66428Z" fill="#2C1E2F"/>
<path d="M106.536 1.87137C106.346 1.31822 105.944 0.786763 105.438 0.421503C104.296 -0.285346 102.656 -0.0826614 101.777 0.875695C101.113 1.51301 100.794 2.58019 100.966 3.60002C101.101 4.55378 101.862 5.31931 102.507 5.62605C103.571 6.06298 105.154 5.97389 106.119 4.75137C106.666 4.07953 106.842 2.86671 106.536 1.86874V1.87137Z" fill="#2C1E2F"/>
<path d="M123.751 21.2127C121.794 21.065 120.864 17.3531 120.864 17.3531L129.372 14.5341C129.372 14.5341 129.212 10.7219 127.159 8.65276C125.28 6.75906 122.429 6.19539 119.806 7.30432C118.246 7.92421 116.803 9.58909 116.134 11.5431C114.826 15.263 115.604 19.425 118.07 21.8976C120.346 24.1324 123.886 24.0908 126.442 23.3054C126.432 23.3077 127.729 22.7373 127.729 22.7373L127.728 20.3758C127.728 20.3758 126.174 21.3943 123.751 21.2127ZM120.748 14.9759C120.613 13.3753 120.805 11.6644 121.181 10.8792C121.562 10.0813 121.993 9.77369 122.521 9.70827C124.776 9.4275 125.026 13.6714 125.026 13.6714L120.748 14.986C120.751 14.9886 120.748 14.9736 120.748 14.9759Z" fill="#2C1E2F"/>
<path d="M101.402 9.16308V23.3412L106.42 23.339L106.409 6.41113L101.402 9.16308Z" fill="#2C1E2F"/>
<path d="M64.8115 8.65283C62.9321 6.75896 60.0815 6.19529 57.4588 7.30455C55.898 7.92428 54.4556 9.58899 53.786 11.543C52.4783 15.2629 53.2562 19.4249 55.7225 21.8977C57.998 24.1332 61.5384 24.0911 64.0936 23.3056C64.084 23.3076 65.3819 22.7372 65.3819 22.7372L65.3795 20.376C65.3795 20.376 63.8265 21.3945 61.4036 21.2124C59.4459 21.0653 58.5166 17.3533 58.5166 17.3533L67.0244 14.534C67.0244 14.534 66.8645 10.7221 64.8115 8.65283ZM58.4002 14.9862C58.4028 14.9887 58.4002 14.9735 58.4002 14.9765C58.2651 13.3759 58.4581 11.6647 58.8338 10.8791C59.2143 10.0812 59.6448 9.77392 60.1725 9.7085C62.4287 9.42773 62.6786 13.6713 62.6786 13.6713L58.4002 14.9862Z" fill="#2C1E2F"/>
<path d="M77.6379 20.6516C76.3222 19.9498 75.2217 18.9191 75.081 15.9617C74.9172 12.5172 75.5848 10.0971 77.3782 9.39572C78.739 8.86345 80.6069 10.0376 80.6069 10.0376L80.6255 7.2538C80.6255 7.2538 78.0644 5.98049 75.1894 6.92224C72.5936 7.77309 70.9206 9.84794 70.3275 13.241C69.8955 15.7128 70.2382 18.4429 71.4317 20.5891C72.8069 22.9125 75.4133 24.1212 78.3867 23.7071C79.1956 23.5944 80.8804 23.0622 80.8804 23.0622L80.857 20.49C80.857 20.49 78.9941 21.3755 77.6379 20.6516Z" fill="#2C1E2F"/>
<path d="M100.372 21.181C99.9375 21.1383 99.8179 20.1939 99.8179 20.1939C99.8179 20.185 98.8951 14.5667 98.8951 14.5667C98.8951 14.5731 98.6768 13.4747 98.6768 13.4747C98.4521 12.306 98.2186 11.0953 97.7846 9.98257C96.366 6.60975 92.2955 6.05528 89.2977 6.96596C88.8171 7.11572 88.3612 7.3687 88.3612 7.3687V9.45917C89.5942 8.91062 90.7969 8.87725 91.7698 9.3515C93.0358 9.98043 93.3929 11.5802 93.4583 12.2428C93.4583 12.254 93.5695 12.9836 93.5695 12.9836C92.107 13.2093 90.2903 13.5796 88.9506 14.549C87.4535 15.6433 86.6656 17.3872 86.8404 19.2089C86.8948 21.1472 88.3571 22.6981 89.7689 23.2355C91.6457 23.916 94.221 23.8061 95.7532 21.9974C95.7617 21.9885 95.9408 21.784 95.9408 21.784L96.3746 22.2166C97.4919 23.4188 98.7161 23.381 100.135 23.3382L100.887 23.3225L100.887 21.2601C100.887 21.2601 100.385 21.1866 100.372 21.181ZM93.9396 15.4636L94.8559 20.0203C92.4957 22.8117 88.6078 17.9129 93.9396 15.4636Z" fill="#2C1E2F"/>
<path d="M81.3672 23.3098H86.2986V1.31494L81.3672 4.023V23.3098Z" fill="#2C1E2F"/>
</svg>
