<svg width="127" height="24" viewBox="0 0 127 24" fill="none" xmlns="http://www.w3.org/2000/svg">
<mask id="mask0_744_1257" style="mask-type:alpha" maskUnits="userSpaceOnUse" x="0" y="0" width="126" height="24">
<path fill-rule="evenodd" clip-rule="evenodd" d="M0.5 0.5H125.826V23.5H0.5V0.5Z" fill="white"/>
</mask>
<g mask="url(#mask0_744_1257)">
</g>
<mask id="mask1_744_1257" style="mask-type:alpha" maskUnits="userSpaceOnUse" x="0" y="0" width="126" height="24">
<path fill-rule="evenodd" clip-rule="evenodd" d="M0.5 0.5H125.826V23.5H0.5V0.5Z" fill="white"/>
</mask>
<g mask="url(#mask1_744_1257)">
</g>
<mask id="mask2_744_1257" style="mask-type:alpha" maskUnits="userSpaceOnUse" x="0" y="0" width="126" height="24">
<path fill-rule="evenodd" clip-rule="evenodd" d="M0.5 0.5H125.826V23.5H0.5V0.5Z" fill="white"/>
</mask>
<g mask="url(#mask2_744_1257)">
</g>
<mask id="mask3_744_1257" style="mask-type:alpha" maskUnits="userSpaceOnUse" x="0" y="0" width="126" height="24">
<path fill-rule="evenodd" clip-rule="evenodd" d="M0.5 0.5H125.826V23.5H0.5V0.5Z" fill="white"/>
</mask>
<g mask="url(#mask3_744_1257)">
</g>
<mask id="mask4_744_1257" style="mask-type:alpha" maskUnits="userSpaceOnUse" x="0" y="0" width="126" height="24">
<path fill-rule="evenodd" clip-rule="evenodd" d="M0.5 0.5H125.826V23.5H0.5V0.5Z" fill="white"/>
</mask>
<g mask="url(#mask4_744_1257)">
</g>
<mask id="mask5_744_1257" style="mask-type:alpha" maskUnits="userSpaceOnUse" x="0" y="0" width="126" height="24">
<path fill-rule="evenodd" clip-rule="evenodd" d="M0.5 0.5H125.826V23.5H0.5V0.5Z" fill="white"/>
</mask>
<g mask="url(#mask5_744_1257)">
<path d="M7.84438 8.95588C7.84438 5.30294 7.37273 3.95 6.36203 3.95C5.55347 3.95 4.67754 4.49117 4.67754 12C4.67754 19.3059 5.08182 20.05 6.36203 20.05C7.70962 20.05 7.97914 18.0206 8.04652 14.7735L11.4155 14.9088C11.4155 18.7647 10.8765 23.4323 6.15989 23.4323C1.91497 23.5 0.5 19.3059 0.5 12C0.5 3.54412 3.06043 0.5 6.22727 0.5C10.8765 0.5 11.4155 4.76177 11.4155 8.82059L7.84438 8.95588Z" fill="#2C1E2F"/>
<path fill-rule="evenodd" clip-rule="evenodd" d="M22.8706 12C22.8706 3.27353 20.5797 0.5 17.0085 0.5C13.4374 0.5 11.1465 3.27353 11.1465 12C11.1465 20.7265 13.4374 23.5 17.0085 23.5C20.5797 23.5 22.8706 20.7265 22.8706 12ZM17.0085 20.05C16.0652 20.05 15.5262 19.1029 15.5262 14.3V9.63233C15.5262 4.82942 16.0652 3.88236 17.0085 3.88236C17.9518 3.88236 18.4909 4.82942 18.4909 9.63233V14.3C18.4909 19.1029 17.9518 20.05 17.0085 20.05Z" fill="#2C1E2F"/>
<path d="M26.239 16.6677C26.239 17.8853 26.239 20.1177 27.9909 20.1177C29.3385 20.1177 29.8101 18.9 29.8101 17.9529C29.8101 14.0294 22.5331 13.0823 22.5331 6.52059C22.4657 3.20588 24.285 0.5 27.6539 0.5C31.2924 0.5 32.64 3.27353 32.7748 7.26471H29.2037C29.2037 6.04706 29.2037 3.95 27.5865 3.95C26.6432 3.95 26.1042 4.76177 26.1042 5.97941C26.1042 9.76767 33.3812 10.9853 33.3812 17.4794C33.3812 20.8617 31.4946 23.5677 27.8561 23.5677C23.5438 23.5677 22.6679 19.7794 22.6679 16.7353H26.239V16.6677Z" fill="#2C1E2F"/>
<path d="M41.938 0.905762L40.0515 12.2705H39.9841L38.2322 0.905762H32.8418V23.094H35.8065V6.8587H35.8739L38.5691 23.094H40.7926L43.5551 6.8587H43.6225V23.094H47.1936V0.905762H41.938Z" fill="#2C1E2F"/>
<path fill-rule="evenodd" clip-rule="evenodd" d="M58.9174 12C58.9174 3.27353 56.6265 0.5 53.0554 0.5C49.4843 0.5 47.1934 3.27353 47.1934 12C47.1934 20.7265 49.4843 23.5 53.0554 23.5C56.6265 23.5 58.9174 20.7265 58.9174 12ZM53.0554 20.05C52.1121 20.05 51.5731 19.1029 51.5731 14.3V9.63233C51.5731 4.82942 52.1121 3.88236 53.0554 3.88236C53.9988 3.88236 54.5378 4.82942 54.5378 9.63233V14.3C54.5378 19.1029 53.9988 20.05 53.0554 20.05Z" fill="#2C1E2F"/>
<path fill-rule="evenodd" clip-rule="evenodd" d="M62.9608 0.905762H58.918V23.0264H62.9608V14.1646H64.5779C68.3511 14.1646 69.9009 11.5264 69.9009 7.53517C69.9009 2.73224 67.4752 0.905762 62.9608 0.905762V0.905762ZM63.2978 10.9852H62.9608V4.35575H63.2978C64.6453 4.35575 65.8582 4.49105 65.8582 7.67046C65.8582 10.3087 64.9149 10.9852 63.2978 10.9852Z" fill="#2C1E2F"/>
<path fill-rule="evenodd" clip-rule="evenodd" d="M81.3549 12C81.3549 3.27353 79.0639 0.5 75.4929 0.5C71.9218 0.5 69.6309 3.27353 69.6309 12C69.6309 20.7265 71.9218 23.5 75.4929 23.5C79.0639 23.5 81.3549 20.7265 81.3549 12ZM75.4929 20.05C74.5496 20.05 74.0105 19.1029 74.0105 14.3V9.63233C74.0105 4.82942 74.5496 3.88236 75.4929 3.88236C76.4362 3.88236 76.9752 4.82942 76.9752 9.63233V14.3C76.9752 19.1029 76.4362 20.05 75.4929 20.05Z" fill="#2C1E2F"/>
<path d="M81.3555 0.905762V23.094H90.5193V19.644H85.3308V0.905762H81.3555Z" fill="#2C1E2F"/>
<path d="M90.6543 0.905762H94.6969V23.0264H90.6543V0.905762Z" fill="#2C1E2F"/>
<path d="M94.8984 0.905762V4.35576H98.3348V23.094H102.378V4.35576H105.815V0.905762H94.8984Z" fill="#2C1E2F"/>
<path fill-rule="evenodd" clip-rule="evenodd" d="M103.32 23.0264L106.42 0.905762H112.214L114.91 23.0264H111.069L110.463 18.0881H107.228L106.69 23.0264H103.32ZM110.126 14.9087L108.913 4.35575L107.633 14.9087H110.126Z" fill="#2C1E2F"/>
<path d="M122.592 0.905762V12.6087H122.524L118.886 0.905762H114.91V23.094H118.347V9.6999H118.414L122.727 23.094H125.825V0.905762H122.592Z" fill="#2C1E2F"/>
</g>
</svg>
