<svg width="6" height="9" viewBox="0 0 6 9" fill="none" xmlns="http://www.w3.org/2000/svg">
    <path d="M0.407449 4.16746L0.407511 4.1674L4.22338 0.362081L4.22341 0.36205C4.40708 0.178995 4.7044 0.179333 4.88771 0.362968L4.88774 0.363002C5.07101 0.546718 5.07049 0.84423 4.88682 1.0274L4.88682 1.0274L1.40459 4.50001L4.88695 7.97261L4.88697 7.97263C5.0706 8.15581 5.07112 8.45317 4.88789 8.6369L4.88784 8.63695C4.79605 8.7289 4.67541 8.775 4.55517 8.775C4.43528 8.775 4.31508 8.72922 4.22343 8.63787L4.2234 8.63784L0.407634 4.83274C0.407613 4.83272 0.407591 4.8327 0.407569 4.83268C0.319009 4.74453 0.269425 4.62472 0.269425 4.50001C0.269425 4.3751 0.319246 4.25552 0.407449 4.16746Z" fill="#1C131E" stroke="#1C131E" stroke-width="0.3"/>
</svg>
