<svg width="45" height="45" viewBox="0 0 45 45" fill="none" xmlns="http://www.w3.org/2000/svg">
<path d="M22.5 44.4062C10.2577 44.4062 0.296875 34.4455 0.296875 22.2031C0.296875 9.96078 10.2577 0 22.5 0C34.7423 0 44.7031 9.96078 44.7031 22.2031C44.7031 34.4455 34.7423 44.4062 22.5 44.4062ZM22.5 1.53125C11.0998 1.53125 1.82812 10.803 1.82812 22.2031C1.82812 33.6033 11.0998 42.875 22.5 42.875C33.9002 42.875 43.1719 33.6033 43.1719 22.2031C43.1719 10.803 33.9002 1.53125 22.5 1.53125ZM23.2656 32.8147V16.8438C23.2656 16.4227 22.9211 16.0781 22.5 16.0781C22.0789 16.0781 21.7344 16.4227 21.7344 16.8438V32.8147C21.7344 33.2358 22.0789 33.5803 22.5 33.5803C22.9211 33.5803 23.2656 33.2358 23.2656 32.8147ZM23.2656 12.5562V11.4844C23.2656 11.0633 22.9211 10.7188 22.5 10.7188C22.0789 10.7188 21.7344 11.0633 21.7344 11.4844V12.5562C21.7344 12.9773 22.0789 13.3219 22.5 13.3219C22.9211 13.3219 23.2656 12.9773 23.2656 12.5562Z" fill="#F7B801"/>
</svg>
