<svg width="15" height="15" viewBox="0 0 15 15" fill="none" xmlns="http://www.w3.org/2000/svg">
<path d="M7.5 15C3.36445 15 0 11.6356 0 7.5C0 3.36445 3.36445 0 7.5 0C11.6356 0 15 3.36445 15 7.5C15 11.6356 11.6356 15 7.5 15ZM7.5 1.0714C3.95531 1.0714 1.0714 3.95531 1.0714 7.5C1.0714 11.0447 3.95531 13.9286 7.5 13.9286C11.0447 13.9286 13.9286 11.0447 13.9286 7.5C13.9286 3.95531 11.0447 1.0714 7.5 1.0714Z" fill="#BDBDBD"/>
<path d="M10.1785 10.7143C10.0414 10.7143 9.90432 10.662 9.79972 10.5573L4.44263 5.20019C4.23332 4.99088 4.23332 4.65191 4.44263 4.44271C4.65183 4.23351 4.99092 4.2334 5.20011 4.44271L10.5572 9.7998C10.7665 10.0091 10.7665 10.3481 10.5572 10.5573C10.4526 10.662 10.3156 10.7143 10.1785 10.7143Z" fill="#BDBDBD"/>
<path d="M4.82131 10.7143C4.68421 10.7143 4.54723 10.662 4.44263 10.5573C4.23332 10.3481 4.23332 10.009 4.44263 9.79978L9.79972 4.44269C10.009 4.23338 10.348 4.23338 10.5572 4.44269C10.7664 4.65189 10.7665 4.99098 10.5572 5.20017L5.20011 10.5573C5.09551 10.662 4.95841 10.7143 4.82131 10.7143Z" fill="#BDBDBD"/>
</svg>
