<svg width="28" height="28" viewBox="0 0 28 28" fill="none" xmlns="http://www.w3.org/2000/svg">
    <path d="M14 0.25C11.2805 0.25 8.62209 1.05642 6.36092 2.56729C4.09974 4.07816 2.33737 6.22562 1.29666 8.73811C0.255958 11.2506 -0.0163382 14.0153 0.514209 16.6825C1.04476 19.3497 2.35432 21.7998 4.27729 23.7227C6.20026 25.6457 8.65028 26.9553 11.3175 27.4858C13.9848 28.0164 16.7494 27.7441 19.2619 26.7034C21.7744 25.6626 23.9218 23.9003 25.4327 21.6391C26.9436 19.3779 27.75 16.7195 27.75 14C27.7457 10.3546 26.2957 6.85973 23.718 4.28203C21.1403 1.70434 17.6454 0.254301 14 0.25ZM19.3025 17.5363C19.4219 17.6516 19.5171 17.7895 19.5826 17.942C19.6481 18.0945 19.6826 18.2585 19.6841 18.4245C19.6855 18.5905 19.6539 18.7551 19.591 18.9087C19.5282 19.0623 19.4354 19.2019 19.318 19.3193C19.2006 19.4366 19.0611 19.5294 18.9074 19.5923C18.7538 19.6551 18.5892 19.6868 18.4233 19.6853C18.2573 19.6839 18.0933 19.6494 17.9408 19.5839C17.7882 19.5184 17.6503 19.4231 17.535 19.3038L14 15.7675L10.465 19.3038C10.2293 19.5315 9.9135 19.6574 9.58575 19.6546C9.25801 19.6518 8.94449 19.5203 8.71273 19.2885C8.48097 19.0568 8.34951 18.7433 8.34666 18.4155C8.34382 18.0878 8.46981 17.772 8.69751 17.5363L12.2325 14L8.69751 10.4638C8.57812 10.3484 8.48289 10.2105 8.41738 10.058C8.35187 9.90551 8.31739 9.74148 8.31594 9.57551C8.3145 9.40953 8.34613 9.24493 8.40898 9.09131C8.47183 8.93769 8.56465 8.79813 8.68201 8.68076C8.79938 8.56339 8.93894 8.47058 9.09256 8.40773C9.24618 8.34488 9.41078 8.31325 9.57676 8.31469C9.74273 8.31613 9.90676 8.35062 10.0593 8.41613C10.2118 8.48164 10.3497 8.57687 10.465 8.69625L14 12.2325L17.535 8.69625C17.6503 8.57687 17.7882 8.48164 17.9408 8.41613C18.0933 8.35062 18.2573 8.31613 18.4233 8.31469C18.5892 8.31325 18.7538 8.34488 18.9074 8.40773C19.0611 8.47058 19.2006 8.56339 19.318 8.68076C19.4354 8.79813 19.5282 8.93769 19.591 9.09131C19.6539 9.24493 19.6855 9.40953 19.6841 9.57551C19.6826 9.74148 19.6481 9.90551 19.5826 10.058C19.5171 10.2105 19.4219 10.3484 19.3025 10.4638L15.7675 14L19.3025 17.5363Z" fill="#2D1E2F"/>
</svg>