<svg width="30" height="30" viewBox="0 0 30 30" fill="none" xmlns="http://www.w3.org/2000/svg">
<path d="M20.3573 21.4286C20.0831 21.4286 19.8089 21.324 19.5997 21.1146L8.8855 10.4004C8.46688 9.98176 8.46688 9.30381 8.8855 8.88542C9.3039 8.46702 9.98207 8.46679 10.4005 8.88542L21.1147 19.5996C21.5333 20.0182 21.5333 20.6962 21.1147 21.1146C20.9055 21.324 20.6315 21.4286 20.3573 21.4286Z" fill="#BDBDBD"/>
<path d="M9.64287 21.4286C9.36867 21.4286 9.0947 21.324 8.8855 21.1146C8.46688 20.6962 8.46688 20.018 8.8855 19.5996L19.5997 8.88541C20.0183 8.46679 20.6963 8.46679 21.1147 8.88541C21.5331 9.30381 21.5333 9.98198 21.1147 10.4004L10.4005 21.1146C10.1913 21.324 9.91707 21.4286 9.64287 21.4286Z" fill="#BDBDBD"/>
</svg>
