<svg width="81" height="80" viewBox="0 0 81 80" fill="none" xmlns="http://www.w3.org/2000/svg">
    <path d="M12.2958 67.1466C12.1358 67.1466 11.9669 67.0844 11.8424 66.96C11.5935 66.7111 11.5935 66.3111 11.8424 66.0622L28.1358 49.7689C28.3847 49.52 28.1447 50.6578 28.1447 50.6578C28.3935 50.9067 28.1447 51.5556 28.1447 51.5556L12.7402 66.96C12.6247 67.0844 12.4558 67.1466 12.2958 67.1466Z" fill="white"/>
    <path d="M53.0868 26.3645C52.9268 26.3645 52.7579 26.3022 52.6334 26.1778C52.3846 25.9289 52.3846 25.5289 52.6334 25.28L66.8112 11.1022C67.0601 10.8533 67.4601 10.8533 67.709 11.1022C67.9579 11.3511 67.9579 11.7511 67.709 12L52.6423 27.0667C52.5179 27.1911 53.2468 26.3645 53.0868 26.3645Z" fill="white"/>
    <path d="M40.5 80C18.4467 80 0.5 62.0533 0.5 40C0.5 17.9467 18.4467 0 40.5 0C62.5533 0 80.5 17.9467 80.5 40C80.5 62.0533 62.5533 80 40.5 80ZM40.5 1.27111C19.14 1.27111 1.77112 18.6489 1.77112 40C1.77112 61.3511 19.1489 78.7289 40.5 78.7289C61.8511 78.7289 79.2289 61.3511 79.2289 40C79.2289 18.6489 61.8511 1.27111 40.5 1.27111Z" fill="white"/>
    <path d="M40.5445 29.3422C40.5445 29.3422 40.5356 29.3422 40.5445 29.3422C40.2867 29.3422 40.0467 29.2444 39.8689 29.0578L38.0378 27.2267C34.1267 23.3155 34.1267 16.96 38.0378 13.0489L39.8689 11.2178C40.0467 11.04 40.2867 10.9333 40.5445 10.9333C40.8023 10.9333 41.0423 11.0311 41.22 11.2178L43.0512 13.0489C46.9623 16.96 46.9623 23.3155 43.0512 27.2267L41.22 29.0578C41.0423 29.2355 40.8023 29.3422 40.5445 29.3422ZM40.5445 12.3378L38.9356 13.9467C35.5223 17.36 35.5223 22.9155 38.9356 26.3289L40.5445 27.9378L42.1534 26.3289C45.5667 22.9155 45.5667 17.36 42.1534 13.9467L40.5445 12.3378Z" fill="white"/>
    <path d="M43.407 60.3378H40.8204C40.2959 60.3378 39.8604 59.9111 39.8604 59.3778V56.7911C39.8604 51.2622 44.3581 46.7644 49.8871 46.7644H52.4737C52.9982 46.7644 53.4337 47.191 53.4337 47.7244V50.3111C53.4337 55.84 48.9359 60.3378 43.407 60.3378ZM41.1315 59.0667H43.407C48.2337 59.0667 52.1626 55.1378 52.1626 50.3111V48.0355H49.8871C45.0604 48.0355 41.1315 51.9644 41.1315 56.7911V59.0667Z" fill="white"/>
    <path d="M43.407 48.6045H40.8204C40.2959 48.6045 39.8604 48.1778 39.8604 47.6445V45.0578C39.8604 39.5289 44.3581 35.0311 49.8871 35.0311H52.4737C52.9982 35.0311 53.4337 35.4578 53.4337 35.9911V38.5778C53.4337 44.1067 48.9359 48.6045 43.407 48.6045ZM41.1315 47.3334H43.407C48.2337 47.3334 52.1626 43.4045 52.1626 38.5778V36.3022H49.8871C45.0604 36.3022 41.1315 40.2311 41.1315 45.0578V47.3334Z" fill="white"/>
    <path d="M43.407 36.8622H40.8204C40.2959 36.8622 39.8604 36.4355 39.8604 35.9022V33.3155C39.8604 27.7867 44.3581 23.2889 49.8871 23.2889H52.4737C52.9982 23.2889 53.4337 23.7155 53.4337 24.2489V26.8355C53.4337 32.3644 48.9359 36.8622 43.407 36.8622ZM41.1315 35.5911H43.407C48.2337 35.5911 52.1626 31.6622 52.1626 26.8355V24.56H49.8871C45.0604 24.56 41.1315 28.4889 41.1315 33.3155V35.5911Z" fill="white"/>
    <path d="M40.1358 60.3378H37.5491C32.0202 60.3378 27.5225 55.84 27.5225 50.3111V47.7244C27.5225 47.1999 27.9491 46.7644 28.4825 46.7644H31.0691C36.598 46.7644 41.0958 51.2622 41.0958 56.7911V59.3867C41.0958 59.9111 40.6691 60.3378 40.1358 60.3378ZM28.7936 48.0355V50.3111C28.7936 55.1378 32.7224 59.0667 37.5491 59.0667H39.8246V56.7911C39.8246 51.9644 35.8958 48.0355 31.0691 48.0355H28.7936Z" fill="white"/>
    <path d="M40.1358 48.6045H37.5491C32.0202 48.6045 27.5225 44.1067 27.5225 38.5778V35.9911C27.5225 35.4667 27.9491 35.0311 28.4825 35.0311H31.0691C36.598 35.0311 41.0958 39.5289 41.0958 45.0578V47.6445C41.0958 48.1689 40.6691 48.6045 40.1358 48.6045ZM28.7936 36.3022V38.5778C28.7936 43.4045 32.7224 47.3334 37.5491 47.3334H39.8246V45.0578C39.8246 40.2311 35.8958 36.3022 31.0691 36.3022H28.7936Z" fill="white"/>
    <path d="M40.1358 36.8622H37.5491C32.0202 36.8622 27.5225 32.3644 27.5225 26.8355V24.2489C27.5225 23.7244 27.9491 23.2889 28.4825 23.2889H31.0691C36.598 23.2889 41.0958 27.7867 41.0958 33.3155V35.9022C41.0958 36.4355 40.6691 36.8622 40.1358 36.8622ZM28.7936 24.56V26.8355C28.7936 31.6622 32.7224 35.5911 37.5491 35.5911H39.8246V33.3155C39.8246 28.4889 35.8958 24.56 31.0691 24.56H28.7936Z" fill="white"/>
    <path d="M40.9445 29.5289H39.6733V68.9778H40.9445V29.5289Z" fill="white"/>
</svg>