<svg width="28" height="28" viewBox="0 0 28 28" fill="none" xmlns="http://www.w3.org/2000/svg">
    <path d="M7.00019 0.4H20.9998C24.6285 0.4 27.5997 3.37118 27.5997 6.99983V21.0002C27.5997 24.6278 24.6285 27.6 20.9998 27.6H7.00019C3.37158 27.6 0.400366 24.6278 0.400366 21.0002V6.99983C0.400366 3.37118 3.37154 0.4 7.00019 0.4ZM20.9998 26.0666C23.7947 26.0666 26.0663 23.7934 26.0663 21.0002V6.99983C26.0663 4.20584 23.7947 1.93339 20.9998 1.93339H7.00019C4.20652 1.93339 1.93376 4.20578 1.93376 6.99983V21.0002C1.93376 23.7935 4.20648 26.0666 7.00019 26.0666H20.9998Z" fill="black" stroke="white" stroke-width="0.8"/>
    <path d="M22.9343 6.41646C22.9343 7.16202 22.3299 7.76642 21.5843 7.76642C20.8387 7.76642 20.2344 7.16202 20.2344 6.41646C20.2344 5.6709 20.8387 5.0665 21.5843 5.0665C22.3299 5.0665 22.9343 5.6709 22.9343 6.41646Z" fill="black" stroke="white" stroke-width="0.8"/>
    <path d="M7.40012 13.9996C7.40012 10.3541 10.3542 7.39976 14 7.39976C17.6447 7.39976 20.5998 10.3541 20.5998 13.9996C20.5998 17.6437 17.6446 20.6001 14 20.6001C10.3543 20.6001 7.40012 17.6437 7.40012 13.9996ZM8.93351 13.9996C8.93351 16.7982 11.202 19.0667 14 19.0667C16.7979 19.0667 19.0664 16.7982 19.0664 13.9996C19.0664 11.2009 16.7978 8.93315 14 8.93315C11.2021 8.93315 8.93351 11.2009 8.93351 13.9996Z" fill="black" stroke="white" stroke-width="0.8"/>
</svg>
