<svg width="44" height="44" viewBox="0 0 44 44" fill="none" xmlns="http://www.w3.org/2000/svg">
<path fill-rule="evenodd" clip-rule="evenodd" d="M40.25 22C40.25 32.0792 32.0792 40.25 22 40.25C11.9208 40.25 3.75 32.0792 3.75 22C3.75 11.9208 11.9208 3.75 22 3.75C32.0792 3.75 40.25 11.9208 40.25 22ZM41.25 22C41.25 32.6315 32.6315 41.25 22 41.25C11.3685 41.25 2.75 32.6315 2.75 22C2.75 11.3685 11.3685 2.75 22 2.75C32.6315 2.75 41.25 11.3685 41.25 22ZM7.1 22C7.1 13.771 13.771 7.1 22 7.1V6.1C13.2187 6.1 6.1 13.2187 6.1 22H7.1ZM29.6609 18.0179C30.0191 17.7977 30.4538 17.2921 30.7291 16.0376C31.0132 14.7431 30.8999 14.0082 30.7025 13.5949C30.5221 13.2174 30.201 12.9621 29.6674 12.7909C29.1069 12.6111 28.3963 12.5542 27.5851 12.5502C27.2344 12.5485 26.8846 12.5564 26.5309 12.5643H26.5308H26.5308H26.5307H26.5307L26.3825 12.5676C25.9865 12.5762 25.5814 12.5834 25.2048 12.5717C23.8941 12.5307 22.2494 12.6822 20.9717 13.1115C19.6046 13.571 19.15 14.1526 19.15 14.692C19.15 15.5616 19.5592 16.1944 20.2252 16.6159C20.9215 17.0566 21.9119 17.2637 22.9538 17.1318C23.8137 17.023 24.786 17.293 25.5814 17.5318C25.7553 17.584 25.9256 17.6364 26.0927 17.6879C26.7737 17.8976 27.4022 18.0911 28.0138 18.1896C28.7643 18.3105 29.2858 18.2485 29.6609 18.0179ZM25.7682 18.6346C28.1475 19.3684 30.8397 20.1988 31.7059 16.252C32.7653 11.4242 29.2708 11.5026 26.5076 11.5645H26.5075C26.0565 11.5747 25.6251 11.5843 25.236 11.5722C22.4632 11.4855 18.15 12.1961 18.15 14.692C18.15 17.188 20.6147 18.4358 23.0794 18.1239C23.8119 18.0312 24.762 18.3243 25.7682 18.6346ZM22 13.2V16.5H23V13.2H22ZM24.8 17.05V12.65H25.8V17.05H24.8ZM27.55 12.65V17.05H28.55V12.65H27.55Z" fill="#2C1E2F"/>
<path d="M14.3709 30.8713C14.2506 30.6228 13.9515 30.5189 13.703 30.6393C13.4545 30.7596 13.3506 31.0587 13.471 31.3072L14.3709 30.8713ZM15.7451 33.3355C16.0202 33.3119 16.2241 33.0697 16.2004 32.7945C16.1768 32.5194 15.9346 32.3155 15.6594 32.3392L15.7451 33.3355ZM16.7265 32.6113C16.4542 32.6578 16.2712 32.9161 16.3177 33.1883C16.3641 33.4605 16.6225 33.6435 16.8947 33.5971L16.7265 32.6113ZM17.9634 33.4147C18.2356 33.3682 18.4186 33.1099 18.3722 32.8377C18.3257 32.5655 18.0674 32.3825 17.7952 32.4289L17.9634 33.4147ZM19.667 33.1071C19.5813 33.7029 19.267 34.0493 18.8043 34.2394C18.3095 34.4428 17.6181 34.4731 16.8326 34.3183C15.2512 34.0067 13.5577 33.0023 12.8043 31.7746L11.952 32.2977C12.8892 33.8247 14.8635 34.9495 16.6392 35.2994C17.5323 35.4754 18.4418 35.4695 19.1844 35.1644C19.959 34.8461 20.5184 34.2119 20.6568 33.2495L19.667 33.1071ZM12.8043 31.7746C12.0285 30.5106 11.7397 28.6979 12.0309 27.2613C12.1757 26.5471 12.4544 25.9718 12.8382 25.6C13.207 25.2429 13.7036 25.0418 14.3825 25.1144L14.4889 24.12C13.5251 24.017 12.7318 24.311 12.1426 24.8816C11.5685 25.4376 11.2211 26.2225 11.0508 27.0626C10.7119 28.7346 11.0372 30.8071 11.952 32.2977L12.8043 31.7746ZM14.3825 25.1144C15.091 25.1901 15.3735 25.4389 15.5086 25.6901C15.6675 25.9853 15.6977 26.4159 15.6333 26.9838C15.6022 27.2588 15.5518 27.5446 15.4968 27.8383C15.4429 28.1259 15.3829 28.4286 15.3395 28.711C15.2962 28.9933 15.2647 29.2828 15.2738 29.5523C15.2827 29.8187 15.3321 30.1097 15.4879 30.364L16.3405 29.8413C16.3118 29.7945 16.2792 29.6993 16.2732 29.5189C16.2673 29.3416 16.2879 29.1238 16.328 28.8628C16.368 28.6019 16.4229 28.3255 16.4797 28.0225C16.5353 27.7258 16.5915 27.4098 16.627 27.0964C16.696 26.4874 16.7003 25.7943 16.3893 25.2163C16.0545 24.5942 15.4231 24.2199 14.4889 24.12L14.3825 25.1144ZM15.4879 30.364C15.7931 30.8618 16.3805 31.0408 16.8466 31.1417C17.0979 31.1961 17.3684 31.2375 17.6237 31.2773C17.8852 31.3182 18.1357 31.3582 18.3742 31.4114C18.8638 31.5207 19.2141 31.6683 19.4267 31.8946C19.6136 32.0937 19.7642 32.4317 19.667 33.1071L20.6568 33.2495C20.7838 32.3667 20.6078 31.6917 20.1557 31.2101C19.7291 30.7558 19.1279 30.555 18.5919 30.4354C18.3175 30.3742 18.0366 30.3297 17.7781 30.2893C17.5132 30.248 17.2749 30.2113 17.0583 30.1644C16.5887 30.0627 16.4045 29.9457 16.3405 29.8413L15.4879 30.364ZM13.471 31.3072C13.6317 31.6391 13.92 32.1313 14.2747 32.5416C14.4521 32.7468 14.6606 32.9484 14.8934 33.0972C15.1245 33.2448 15.4173 33.3637 15.7451 33.3355L15.6594 32.3392C15.6283 32.3419 15.5558 32.3337 15.4317 32.2544C15.3093 32.1762 15.1726 32.0511 15.0312 31.8876C14.7484 31.5605 14.5049 31.1478 14.3709 30.8713L13.471 31.3072ZM16.8947 33.5971L17.9634 33.4147L17.7952 32.4289L16.7265 32.6113L16.8947 33.5971Z" fill="#2C1E2F"/>
<path fill-rule="evenodd" clip-rule="evenodd" d="M35.7759 21.919L36.2747 21.9536L36.3066 21.4924L35.8494 21.4244L35.7759 21.919ZM35.7759 21.919C35.8494 21.4244 35.8492 21.4244 35.8491 21.4244L35.8486 21.4243L35.8475 21.4242L35.844 21.4236L35.8325 21.422L35.7919 21.4166C35.7571 21.4121 35.7071 21.406 35.6435 21.3992C35.5163 21.3856 35.3341 21.3691 35.1089 21.3565C34.6593 21.3314 34.034 21.3218 33.3296 21.3843C31.9368 21.508 30.1564 21.9206 28.8461 23.1374C28.1705 23.7647 27.6933 24.6346 27.3555 25.5915C27.0164 26.552 26.8069 27.6309 26.6857 28.7095C26.6667 28.8781 26.6499 29.0471 26.6351 29.2161C25.156 29.2147 23.7485 29.1321 22.7414 29.0353L21.4323 28.9096L22.3272 29.8733L26.8492 34.7429L27.9014 35.876L27.7118 34.3413C27.5847 33.3124 27.4957 31.7974 27.5708 30.2058C27.9437 30.1972 28.3172 30.1827 28.6866 30.1616C29.7861 30.0985 30.8636 29.9748 31.7854 29.7596C32.6905 29.5483 33.5172 29.2331 34.0486 28.7397C34.5593 28.2655 34.9387 27.5832 35.2254 26.8739C35.5151 26.157 35.7267 25.37 35.8804 24.6472C36.0345 23.9227 36.1328 23.2515 36.1926 22.762C36.2225 22.5169 36.2429 22.3164 36.2559 22.1765C36.2624 22.1066 36.267 22.0517 36.27 22.0139L36.2734 21.9702L36.2743 21.9584L36.2745 21.9551L36.2746 21.9541L36.2746 21.9538C36.2746 21.9537 36.2747 21.9536 35.7759 21.919ZM23.9309 30.1307C24.7268 30.1798 25.6323 30.2136 26.5692 30.2159C26.525 31.2028 26.5409 32.1578 26.5894 32.9935L23.9309 30.1307ZM28.6293 29.1632C28.3021 29.182 27.9713 29.1953 27.6402 29.2038C27.6521 29.0761 27.6651 28.9485 27.6794 28.8211C27.7952 27.7903 27.9924 26.7911 28.2984 25.9245C28.6056 25.0544 29.0118 24.3482 29.5266 23.8701C30.597 22.8761 32.1113 22.4964 33.4181 22.3804C34.0635 22.3231 34.6392 22.3318 35.0531 22.3549C35.1166 22.3585 35.1763 22.3624 35.2317 22.3664C35.2227 22.4492 35.2122 22.541 35.2 22.6408C35.1426 23.1102 35.0487 23.7511 34.9023 24.4392C34.7556 25.1291 34.5585 25.8551 34.2982 26.4992C34.0349 27.1508 33.7231 27.6773 33.3681 28.0069C33.0337 28.3174 32.4195 28.5846 31.558 28.7858C30.7132 28.983 29.6983 29.1019 28.6293 29.1632ZM30.9178 24.8881C31.1953 25.1869 31.6624 25.2042 31.9613 24.9267C32.2601 24.6492 32.2774 24.182 31.9999 23.8832C31.7224 23.5844 31.2552 23.5671 30.9564 23.8446C30.6576 24.1221 30.6403 24.5893 30.9178 24.8881Z" fill="#2C1E2F"/>
</svg>
