<svg width="80" height="80" viewBox="0 0 80 80" fill="none" xmlns="http://www.w3.org/2000/svg">
<path d="M11.7958 67.1466C11.6358 67.1466 11.4669 67.0844 11.3424 66.96C11.0935 66.7111 11.0935 66.3111 11.3424 66.0622L31.1913 46.2133C31.4402 45.9645 31.8402 45.9645 32.0891 46.2133C32.338 46.4622 32.338 46.8622 32.0891 47.1111L12.2402 66.96C12.1247 67.0844 11.9558 67.1466 11.7958 67.1466Z" fill="white"/>
<path d="M11.7958 67.1467C11.6358 67.1467 11.4669 67.0845 11.3424 66.96C11.0935 66.7111 11.0935 66.3111 11.3424 66.0622L31.1913 46.2133C31.4402 45.9644 31.8402 45.9644 32.0891 46.2133C32.338 46.4622 32.338 46.8622 32.0891 47.1111L12.2402 66.96C12.1247 67.0845 11.9558 67.1467 11.7958 67.1467Z" fill="white"/>
<path d="M46.3646 32.5867C46.2046 32.5867 46.0357 32.5244 45.9113 32.4C45.6624 32.1511 45.6624 31.7511 45.9113 31.5022L66.3113 11.1022C66.5602 10.8533 66.9602 10.8533 67.2091 11.1022C67.458 11.3511 67.458 11.7511 67.2091 12L46.8091 32.4C46.6846 32.5244 46.5246 32.5867 46.3646 32.5867Z" fill="white"/>
<path d="M40 80C17.9467 80 0 62.0533 0 40C0 17.9467 17.9467 0 40 0C62.0533 0 80 17.9467 80 40C80 62.0533 62.0533 80 40 80ZM40 1.27111C18.64 1.27111 1.27112 18.6489 1.27112 40C1.27112 61.3511 18.6489 78.7289 40 78.7289C61.3511 78.7289 78.7289 61.3511 78.7289 40C78.7289 18.6489 61.3511 1.27111 40 1.27111Z" fill="white"/>
<path d="M30.0444 66.7022C30.0089 66.3644 29.3244 58.4444 39.8933 52.4622C45.92 49.0489 49.1022 44.5689 48.8533 39.8489C48.6133 35.1822 45.0755 30.8089 39.6355 28.4355C28.8355 23.7333 29.8933 13.3955 29.9022 13.2889L31.1644 13.4311C31.12 13.8222 30.2222 22.9511 40.1422 27.2711C46.0355 29.8311 49.8578 34.6222 50.1244 39.7778C50.4 45.0133 46.9867 49.9022 40.5244 53.5644C30.7111 59.12 31.28 66.2667 31.3067 66.5689L30.0444 66.7022Z" fill="white"/>
<path d="M50.0088 66.6756L48.7377 66.5778C48.7554 66.2756 49.1465 59.0223 39.5376 53.7334C33.1021 50.1867 29.671 45.3689 29.9021 40.1689C30.1243 34.9511 33.9643 30.0711 39.911 27.4311C49.7154 23.0845 48.8443 13.5111 48.8354 13.4133L50.0976 13.28C50.1065 13.3867 51.0665 23.8667 40.4354 28.5867C35.0132 30.9956 31.3776 35.5556 31.1821 40.2134C30.9776 44.9067 34.1687 49.3067 40.1688 52.6045C50.5154 58.3289 50.0265 66.3378 50.0088 66.6756Z" fill="white"/>
<path d="M47.3867 20.0178H32V21.2889H47.3867V20.0178Z" fill="white"/>
<path d="M47.6445 59.9911H32.2578V61.2622H47.6445V59.9911Z" fill="white"/>
<path d="M47.2179 46.1245H32.729V47.3956H47.2179V46.1245Z" fill="white"/>
<path d="M49.3779 39.8578H30.9868V41.1289H49.3779V39.8578Z" fill="white"/>
<path d="M47.6889 33.8755H32.7822V35.1467H47.6889V33.8755Z" fill="white"/>
</svg>
