<svg width="81" height="80" viewBox="0 0 81 80" fill="none" xmlns="http://www.w3.org/2000/svg">
<path d="M29.4787 48.4574L11.8672 66.069L12.766 66.9678L30.3775 49.3562L29.4787 48.4574Z" fill="white"/>
<path d="M47.0687 32.5778L46.1709 31.68L66.8376 11.1022L67.7354 12L47.0687 32.5778Z" fill="white"/>
<path d="M40.5 80C18.4467 80 0.5 62.0533 0.5 40C0.5 17.9467 18.4378 0 40.5 0C62.5622 0 80.5 17.9467 80.5 40C80.5 62.0533 62.5533 80 40.5 80ZM40.5 1.27111C19.1489 1.27111 1.77112 18.6489 1.77112 40C1.77112 61.3511 19.1489 78.7289 40.5 78.7289C61.86 78.7289 79.2289 61.3511 79.2289 40C79.2289 18.6489 61.8511 1.27111 40.5 1.27111Z" fill="white"/>
<path d="M32.2957 50.2933C32.2335 50.2933 32.1713 50.2844 32.1179 50.2666L16.2868 45.6444C16.038 45.5733 15.8602 45.36 15.8335 45.1022L13.7891 25.6533C13.7713 25.4489 13.8513 25.2444 14.0024 25.1022C14.1535 24.96 14.3757 24.9155 14.5802 24.9689L30.2513 29.0578C30.509 29.12 30.6957 29.3422 30.7224 29.6L32.9357 49.5822C32.9624 49.7955 32.8735 50 32.7135 50.1333C32.5891 50.24 32.4379 50.2933 32.2957 50.2933ZM17.0513 44.5422L31.558 48.7822L29.5046 30.1778L15.1491 26.4266L17.0513 44.5422Z" fill="white"/>
<path d="M32.2959 50.2933C32.1981 50.2933 32.1003 50.2666 32.0114 50.2222C31.8248 50.1244 31.6914 49.9378 31.6648 49.7244L29.4514 29.7422C29.4248 29.4755 29.567 29.2177 29.8159 29.1022L45.0248 21.8844C45.2115 21.7955 45.4248 21.8044 45.6115 21.9022C45.7892 22 45.9137 22.1866 45.9315 22.3911L46.8915 32.1866C46.927 32.5244 46.687 32.8266 46.3581 32.88L36.0026 34.4266L33.6381 49.3333C33.6114 49.52 33.4959 49.6889 33.327 49.7778L32.607 50.1955C32.5181 50.2578 32.4025 50.2933 32.2959 50.2933ZM30.767 30.0533L32.6781 47.3066L34.8203 33.7689C34.8648 33.4933 35.0781 33.28 35.3537 33.2444L45.5759 31.7155L44.7581 23.4133L30.767 30.0533Z" fill="white"/>
<path d="M30.0824 30.3111C30.0291 30.3111 29.9758 30.3022 29.9224 30.2933L14.2513 26.2044C13.9935 26.1333 13.798 25.9111 13.7802 25.6355C13.7624 25.3689 13.9135 25.1111 14.1624 25.0044L29.3002 18.4178C29.4247 18.3644 29.5669 18.3467 29.6913 18.3822L45.4335 21.84C45.7002 21.9022 45.8958 22.1155 45.9313 22.3911C45.958 22.6578 45.8158 22.9244 45.5669 23.04L30.358 30.2578C30.2691 30.2844 30.1802 30.3111 30.0824 30.3111ZM16.358 25.4311L30.0202 28.9955L43.3447 22.6755L29.6202 19.6622L16.358 25.4311Z" fill="white"/>
<path d="M46.4823 62.3822C46.3668 62.3822 46.2512 62.3555 46.1534 62.2933L32.0556 53.7333C31.8334 53.6 31.7179 53.3422 31.7534 53.0933L32.3845 49.1378C32.4379 48.7911 32.7401 48.5511 33.1134 48.6133C33.4601 48.6667 33.7001 48.9955 33.6468 49.3422L33.0868 52.88L45.9934 60.7111L48.8201 42.2133L46.7401 41.0311C46.4379 40.8533 46.3312 40.4711 46.5001 40.1689C46.669 39.8578 47.0601 39.76 47.3623 39.9289L49.8157 41.3244C50.0468 41.4578 50.1712 41.7155 50.1268 41.9733L47.0868 61.8489C47.0601 62.0622 46.9179 62.24 46.7223 62.3289C46.669 62.3644 46.5712 62.3822 46.4823 62.3822Z" fill="white"/>
<path d="M33.0067 49.8756C32.98 49.8756 32.9445 49.8756 32.9089 49.8667C32.5622 49.8133 32.3223 49.4844 32.3756 49.1378L34.8111 33.7778C34.8467 33.5733 34.98 33.3956 35.1667 33.3067C35.3533 33.2178 35.5667 33.2178 35.7534 33.3244L47.3711 39.9289C47.6733 40.1067 47.78 40.4889 47.6111 40.7911C47.4333 41.0933 47.0422 41.2 46.7489 41.0311L35.9222 34.88L33.6378 49.3333C33.5845 49.6533 33.3178 49.8756 33.0067 49.8756Z" fill="white"/>
<path d="M46.4826 62.3822C46.3315 62.3822 46.1804 62.3289 46.0648 62.2222C45.9048 62.08 45.8248 61.8666 45.8604 61.6533L48.9004 41.7778C48.9359 41.5111 49.1493 41.2978 49.4159 41.2444L65.976 38.2044C66.1804 38.1689 66.3938 38.2311 66.536 38.3733C66.6871 38.5155 66.7493 38.7289 66.7138 38.9244L63.6737 57.3244C63.6293 57.5733 63.4515 57.7689 63.2115 57.8311L46.6604 62.3466C46.5893 62.3822 46.5359 62.3822 46.4826 62.3822ZM50.0737 42.4178L47.2559 60.88L62.4737 56.7289L65.3093 39.6266L50.0737 42.4178Z" fill="white"/>
<path d="M49.5135 42.5155C49.2112 42.5155 48.9446 42.3022 48.8912 41.9911C48.829 41.6444 49.0601 41.3155 49.3979 41.2533L64.1268 38.5511L51.6557 32.0889L46.349 32.88C45.9668 32.9333 45.6823 32.6933 45.629 32.3467C45.5757 32 45.8157 31.68 46.1623 31.6267L51.6735 30.8C51.8157 30.7822 51.9401 30.8 52.0646 30.8622L66.3757 38.2755C66.6157 38.4 66.749 38.6666 66.7135 38.9333C66.669 39.2 66.4646 39.4133 66.1979 39.4666L49.6379 42.5066C49.5935 42.5066 49.5579 42.5155 49.5135 42.5155Z" fill="white"/>
<path d="M35.4423 34.5066C35.1311 34.5066 34.8645 34.2844 34.8111 33.9644C34.7578 33.6178 34.9978 33.2978 35.3445 33.2444L46.1622 31.6266C46.5356 31.5822 46.8289 31.8133 46.8822 32.16C46.9356 32.5066 46.6956 32.8266 46.3489 32.88L35.5311 34.4978C35.5045 34.5066 35.4689 34.5066 35.4423 34.5066Z" fill="white"/>
</svg>
