<svg width="44" height="46" viewBox="0 0 44 46" fill="none" xmlns="http://www.w3.org/2000/svg">
<path fill-rule="evenodd" clip-rule="evenodd" d="M20.9934 0.775024C19.0209 0.775024 17.9363 0.992721 17.2233 1.38575C16.8588 1.58669 16.6121 1.82192 16.4059 2.05342C16.3142 2.15645 16.2422 2.24328 16.1751 2.32429C16.0759 2.44399 15.9872 2.551 15.8607 2.67888C15.8229 2.71703 15.7822 2.76133 15.7392 2.81124C14.8915 2.73189 13.8652 2.77815 12.8592 3.10346C11.3663 3.58624 9.93318 4.68212 9.22669 6.82394L9.20152 6.90023V6.98056V6.98262V6.98468V6.98674V6.9888V6.99086V6.99292V6.99498V6.99704V6.9991V7.00116V7.00323V7.00529V7.00735V7.00942V7.01148V7.01354V7.01561V7.01767V7.01974V7.0218V7.02387V7.02594V7.028V7.03007V7.03214V7.0342V7.03627V7.03834V7.04041V7.04248V7.04455V7.04661V7.04868V7.05075V7.05282V7.05489V7.05696V7.05903V7.0611V7.06317V7.06524V7.06731V7.06938V7.07145V7.07352V7.07559V7.07766V7.07973V7.0818V7.08387V7.08594V7.08801V7.09008V7.09215V7.09422V7.09629V7.09836V7.10043V7.1025V7.10457V7.10664V7.10871V7.11078V7.11285V7.11492V7.11699V7.11906V7.12112V7.12319V7.12526V7.12733V7.12939V7.13146V7.13353V7.13559V7.13766V7.13972V7.14179V7.14385V7.14592V7.14798V7.15005V7.15211V7.15417V7.15624V7.1583V7.16036V7.16242V7.16448V7.16654V7.1686V7.17066V7.17272V7.17478V7.17684V7.17889V7.18095V7.18301V7.18506V7.18712V7.18917V7.19123V7.19328V7.19533V7.19738V7.19944V7.20149V7.20354V7.20559V7.20763V7.20968V7.21173V7.21378V7.21582V7.21787V7.21991V7.22195V7.224V7.22604V7.22808V7.23012V7.23216V7.2342V7.23624V7.23827V7.24031V7.24234V7.24438V7.24641V7.24844V7.25047V7.2525V7.25453V7.25656V7.25859V7.26062V7.26264V7.26467V7.26669V7.26871V7.27073V7.27275V7.27477V7.27679V7.27881V7.28082V7.28284V7.28485V7.28686V7.28888V7.29089V7.29289V7.2949V7.29691V7.29891V7.30092V7.30292V7.30492V7.30692V7.30892V7.31092V7.31292V7.31491V7.31691V7.3189V7.32089V7.32288V7.32487V7.32686V7.32884V7.33083V7.33281V7.33479V7.33677V7.33875V7.34073V7.3427V7.34468V7.34665V7.34862V7.35059V7.35256V7.35453V7.35649V7.35846V7.36042V7.36238V7.36434V7.3663V7.36825V7.36923C8.244 7.4478 7.3014 7.76893 6.57487 8.34448C5.70318 9.03501 5.16285 10.0803 5.29528 11.4186C5.52349 13.7248 6.60078 15.8986 8.46081 17.1199C8.55997 17.185 8.66107 17.2472 8.76408 17.3064L8.7603 17.5975C8.756 17.936 8.75005 18.4219 8.74344 19.0122C8.73022 20.1927 8.71436 21.7905 8.70378 23.4597C8.68271 26.7836 8.68209 30.4313 8.76857 31.5953C8.93404 33.8224 9.19449 34.6847 9.64965 36.1916L9.71412 36.4052L9.72108 36.4283L9.73021 36.4506L9.78211 36.5773L9.78213 36.5773C10.0773 37.2981 10.4431 38.1915 10.869 39.0472C11.3167 39.9468 11.8514 40.8485 12.4735 41.4772C13.6489 42.665 15.0446 43.6075 16.581 44.2506C18.1412 44.9037 20.6648 45.2248 22.2963 45.2248C23.9277 45.2248 26.4513 44.9037 28.0116 44.2506C29.548 43.6075 30.9436 42.665 32.119 41.4772C32.7412 40.8485 33.2759 39.9468 33.7236 39.0472C34.1494 38.1915 34.5152 37.2982 34.8104 36.5774L34.8104 36.5773L34.8104 36.5773L34.8623 36.4506L34.8715 36.4283L34.8784 36.4052C35.1339 35.5576 35.2843 34.7358 35.4125 33.9487C35.4399 33.7805 35.4662 33.6147 35.4922 33.4507L35.4924 33.4497C35.5894 32.8379 35.6823 32.2518 35.8133 31.6675C35.8674 31.4259 35.8999 30.9812 35.9227 30.4403C35.9463 29.8815 35.961 29.1714 35.969 28.3671C35.9851 26.7579 35.9744 24.7576 35.9531 22.8077C35.9318 20.8572 35.8998 18.9546 35.8732 17.5397C35.8599 16.8323 35.8479 16.2467 35.8392 15.8379L35.835 15.6429C36.084 15.558 36.3308 15.4417 36.5712 15.2885C37.3007 14.8238 37.9264 14.0485 38.389 12.8879C38.6067 12.433 38.7133 11.695 38.7243 11.0044C38.7355 10.3014 38.6505 9.50129 38.3793 8.95327C38.161 8.51208 37.8864 7.97171 37.3619 7.50629C36.8487 7.05098 36.1354 6.69883 35.0835 6.5067C35.0516 6.31012 34.9988 6.1136 34.9217 5.91877C34.4395 4.70071 33.6711 4.0075 32.6558 3.80228C31.693 3.6077 30.6014 3.87413 29.4921 4.32256L29.4017 4.35925C28.7269 3.6073 27.2864 2.60797 25.152 2.53484C24.6642 1.63532 23.4152 0.775024 20.9934 0.775024ZM14.8205 4.18981C14.8986 4.04684 14.9782 3.90885 15.0578 3.77759C14.4621 3.77386 13.806 3.8483 13.1669 4.05495C11.9624 4.44448 10.8053 5.30477 10.2015 7.06244V7.06317V7.06524V7.06731V7.06938V7.07145V7.07352V7.07559V7.07766V7.07973V7.0818V7.08387V7.08594V7.08801V7.09008V7.09215V7.09422V7.09629V7.09836V7.10043V7.1025V7.10457V7.10664V7.10871V7.11078V7.11285V7.11492V7.11699V7.11906V7.12112V7.12319V7.12526V7.12733V7.12939V7.13146V7.13353V7.13559V7.13766V7.13972V7.14179V7.14385V7.14592V7.14798V7.15005V7.15211V7.15417V7.15624V7.1583V7.16036V7.16242V7.16448V7.16654V7.1686V7.17066V7.17272V7.17478V7.17684V7.17889V7.18095V7.18301V7.18506V7.18712V7.18917V7.19123V7.19328V7.19533V7.19738V7.19944V7.20149V7.20354V7.20559V7.20763V7.20968V7.21173V7.21378V7.21582V7.21787V7.21991V7.22195V7.224V7.22604V7.22808V7.23012V7.23216V7.2342V7.23624V7.23827V7.24031V7.24234V7.24438V7.24641V7.24844V7.25047V7.2525V7.25453V7.25656V7.25859V7.26062V7.26264V7.26467V7.26669V7.26871V7.27073V7.27275V7.27477V7.27679V7.27881V7.28082V7.28284V7.28485V7.28686V7.28888V7.29089V7.29289V7.2949V7.29691V7.29891V7.30092V7.30292V7.30492V7.30692V7.30892V7.31092V7.31292V7.31491V7.31691V7.3189V7.32089V7.32288V7.32487V7.32686V7.32884V7.33083V7.33281V7.33479V7.33677V7.33875V7.34073V7.3427V7.34468V7.34665V7.34862V7.35059V7.35256V7.35453V7.35649V7.35846V7.36042V7.36238V7.36434V7.3663V7.36825V7.37021V7.37216V7.37411V7.37559C12.0409 7.55219 13.8873 8.65273 14.1078 10.8813C14.2297 12.1137 13.8336 13.0076 13.0792 13.491C12.361 13.9513 11.4364 13.9601 10.6388 13.7121C9.8368 13.4627 9.0647 12.9251 8.65042 12.1548C8.22009 11.3546 8.21248 10.3687 8.84195 9.35084C8.9872 9.11598 9.29534 9.04334 9.53019 9.18859C9.76505 9.33383 9.83769 9.64197 9.69244 9.87683C9.23619 10.6146 9.28288 11.2195 9.53114 11.6812C9.79545 12.1726 10.3262 12.5677 10.9357 12.7572C11.5496 12.9481 12.145 12.902 12.5397 12.6491C12.8982 12.4193 13.2078 11.9417 13.1127 10.9797C12.9429 9.26393 11.4122 8.3609 9.6984 8.35018C8.75337 8.34427 7.83648 8.62081 7.19582 9.12833C6.57314 9.6216 6.19366 10.3424 6.29042 11.3201C6.49651 13.4028 7.46042 15.2668 9.00964 16.2839C10.423 17.2119 12.4111 17.4913 14.9464 16.4587C14.6395 16.0852 14.4218 15.7341 14.2861 15.4041C14.0858 14.9167 14.0565 14.4517 14.2175 14.045C14.3773 13.6414 14.6942 13.3717 15.0365 13.2125C15.3765 13.0544 15.764 12.9927 16.1304 13.0095C16.4958 13.0263 16.8743 13.1229 17.1896 13.3176C17.5102 13.5156 17.7836 13.8296 17.8618 14.264C17.9388 14.6919 17.8095 15.1442 17.5201 15.593C17.3446 15.8651 17.1025 16.149 16.7874 16.4452C17.8648 16.7624 19.2627 17.0248 20.634 16.9921C22.1432 16.956 23.5374 16.5679 24.4798 15.5926C23.3776 15.2513 22.5172 14.8705 21.8632 14.4668C21.0748 13.9801 20.5565 13.441 20.3017 12.8689C20.0398 12.2809 20.0754 11.6974 20.324 11.2C20.5655 10.7166 20.9922 10.3421 21.4778 10.0993C22.4385 9.61902 23.7894 9.58275 24.7864 10.4336C25.6972 11.2109 26.1798 12.6112 25.9321 14.716C26.2839 14.6704 26.6373 14.64 26.9833 14.615C27.1743 14.6012 27.3611 14.5892 27.5446 14.5774L27.5447 14.5773L27.5447 14.5773C27.9253 14.5528 28.2917 14.5292 28.652 14.4928C29.581 14.3989 30.3144 14.2297 30.8302 13.8502C30.358 12.4614 30.384 11.4388 30.812 10.7929C31.2193 10.1781 31.886 10.0421 32.4492 10.2041C32.8468 9.80407 33.3271 9.21645 33.6719 8.56039C34.0901 7.76469 34.2605 6.96551 33.9919 6.28681C33.6054 5.31042 33.0709 4.90642 32.4576 4.78247C31.8536 4.66038 31.0875 4.79095 30.1576 5.13674C30.3334 5.44695 30.4154 5.81424 30.4425 6.15332C30.497 6.83608 30.3578 7.62466 30.0908 8.30744C29.8297 8.97513 29.4065 9.64139 28.8149 9.96786C28.5047 10.1391 28.1457 10.2166 27.7631 10.1398C27.3877 10.0643 27.0383 9.85016 26.7182 9.5267C26.1672 8.96982 25.8424 8.40882 25.7714 7.83747C25.6986 7.25187 25.9028 6.74214 26.2328 6.32157C26.5557 5.91017 27.0108 5.5664 27.4939 5.27617C27.787 5.10004 28.1008 4.9376 28.4185 4.78757C27.8628 4.28334 26.8517 3.66856 25.4017 3.55065C25.391 4.60282 25.1715 5.50628 24.6653 6.0325C24.3886 6.32013 24.0307 6.48758 23.6196 6.48758C23.2237 6.48758 22.8286 6.33284 22.4512 6.07857C22.0533 5.81049 21.7544 5.45269 21.6179 5.03876C21.4785 4.61634 21.5195 4.16409 21.7578 3.76281C22.1193 3.1539 22.8706 2.745 23.9327 2.59471C23.4793 2.17468 22.6128 1.77502 20.9934 1.77502C19.0571 1.77502 18.1874 1.99622 17.706 2.26152C17.4734 2.38974 17.313 2.53854 17.1527 2.7185C17.1067 2.77019 17.0518 2.83577 16.9909 2.90853L16.9908 2.90859L16.9908 2.90863C16.9607 2.9446 16.9291 2.98231 16.8964 3.02097C17.1612 3.10903 17.4377 3.2649 17.7027 3.44847C18.0167 3.66596 18.3459 3.94441 18.6643 4.25898C19.2977 4.88462 19.9207 5.68508 20.3047 6.4912C20.6757 7.26978 20.8913 8.20314 20.4403 8.96921C19.9807 9.74992 18.9769 10.1139 17.519 10.1139C16.038 10.1139 15.0172 9.74057 14.4264 9.02774C13.8372 8.31686 13.7847 7.39918 13.9322 6.56439C14.0809 5.72281 14.4468 4.87385 14.8205 4.18981ZM15.211 15.0239C15.3135 15.2731 15.5061 15.584 15.8317 15.9569C16.2496 15.6048 16.5181 15.3017 16.6797 15.051C16.8823 14.7369 16.8956 14.5411 16.8776 14.441C16.8607 14.3474 16.8016 14.2533 16.6642 14.1684C16.5215 14.0803 16.3163 14.0191 16.0845 14.0085C15.8538 13.9979 15.6306 14.0391 15.4582 14.1192C15.2882 14.1983 15.1912 14.3024 15.1473 14.4131C15.1047 14.5207 15.0823 14.7107 15.211 15.0239ZM9.7583 17.7624C11.4207 18.347 13.4666 18.2436 15.8044 17.1771C17.0144 17.6091 18.8425 18.0351 20.6579 17.9918C22.5043 17.9477 24.4436 17.4114 25.6307 15.7727C26.0842 15.6931 26.562 15.648 27.0553 15.6124C27.2291 15.5999 27.4067 15.5884 27.5858 15.5768H27.5858C27.9766 15.5516 28.3741 15.526 28.7525 15.4877C29.6901 15.393 30.6616 15.2115 31.415 14.6613C31.664 14.852 31.9776 15.0521 32.3312 15.2308C32.8869 15.5116 33.574 15.756 34.3062 15.8177C34.4811 15.8324 34.6592 15.8367 34.8388 15.8284L34.8394 15.859C34.8481 16.2672 34.86 16.852 34.8733 17.5586C34.8999 18.9718 34.9319 20.8716 34.9531 22.8186C34.9744 24.7662 34.985 26.7583 34.9691 28.3572C34.9611 29.157 34.9466 29.8549 34.9236 30.3981C34.8999 30.9592 34.8685 31.3105 34.8375 31.4489C34.6989 32.0671 34.5997 32.6935 34.5021 33.3094C34.4767 33.4697 34.4514 33.6293 34.4256 33.7878C34.3002 34.5569 34.1596 35.3188 33.9278 36.0939L33.8878 36.1916C33.5905 36.9175 33.2373 37.7799 32.8283 38.6017C32.393 39.4763 31.9153 40.2614 31.4082 40.7738C30.3252 41.8683 29.0398 42.7362 27.6254 43.3282C26.2349 43.9102 23.8587 44.2248 22.2963 44.2248C20.7339 44.2248 18.3576 43.9102 16.9671 43.3282C15.5528 42.7362 14.2673 41.8683 13.1843 40.7738C12.6773 40.2614 12.1995 39.4763 11.7642 38.6017C11.3553 37.7799 11.0021 36.9175 10.7048 36.1915L10.6646 36.0936L10.6042 35.8934C10.1605 34.4248 9.9232 33.6393 9.76582 31.5212C9.68315 30.4085 9.68254 26.8146 9.70376 23.466C9.71432 21.799 9.73017 20.2028 9.74338 19.0234C9.74905 18.5171 9.75423 18.0877 9.7583 17.7624ZM24.1373 11.1943C24.7032 11.6773 25.1805 12.7095 24.9288 14.684C23.8076 14.348 22.9808 13.9816 22.3885 13.6159C21.7023 13.1923 21.3605 12.7884 21.2152 12.4621C21.077 12.1518 21.1013 11.8815 21.2185 11.6469C21.3428 11.3982 21.5876 11.1624 21.925 10.9937C22.6103 10.6511 23.5112 10.66 24.1373 11.1943ZM32.7822 14.3383C32.5811 14.2367 32.4011 14.1298 32.2472 14.0272C33.0545 13.3953 33.4897 12.7426 33.6029 12.1103C33.6977 11.581 33.5567 11.1176 33.2894 10.774C33.716 10.3236 34.1962 9.71237 34.5571 9.02562C34.7959 8.57129 34.9949 8.05908 35.0789 7.52484C35.8867 7.69526 36.3734 7.96608 36.6982 8.25428C37.0639 8.57885 37.267 8.96014 37.483 9.39673C37.6462 9.72649 37.7349 10.3308 37.7244 10.9884C37.7139 11.6481 37.6063 12.2152 37.483 12.4644L37.4739 12.4829L37.4663 12.5021C37.061 13.5261 36.5494 14.1167 36.0339 14.4451C35.5196 14.7728 34.9554 14.8688 34.3902 14.8212C33.8195 14.7731 33.258 14.5787 32.7822 14.3383ZM31.6456 11.3452C31.4906 11.5791 31.3641 12.1354 31.6748 13.2052C32.3285 12.6828 32.5644 12.2362 32.6185 11.934C32.6803 11.5889 32.5229 11.3454 32.3103 11.2231C32.0525 11.0748 31.7904 11.1266 31.6456 11.3452ZM29.4457 6.23289C29.4152 5.85045 29.3158 5.6367 29.2094 5.52609C28.7847 5.71316 28.3731 5.91452 28.0089 6.13336C27.5747 6.39421 27.2355 6.6637 27.0195 6.93893C26.8107 7.20498 26.7316 7.45524 26.7637 7.71417C26.7977 7.98735 26.966 8.35541 27.429 8.82331C27.6518 9.04845 27.8317 9.13355 27.9602 9.15936C28.0814 9.18372 28.2009 9.16455 28.3317 9.09233C28.6223 8.93198 28.932 8.52479 29.1595 7.94321C29.3811 7.37672 29.4862 6.74022 29.4457 6.23289ZM22.6177 4.27334C22.7828 3.99527 23.2911 3.63319 24.4017 3.54873C24.3907 4.52048 24.1791 5.09545 23.9446 5.33919C23.8413 5.44656 23.7377 5.48758 23.6196 5.48758C23.4861 5.48758 23.284 5.43385 23.01 5.24923C22.7564 5.07842 22.621 4.88762 22.5676 4.72551C22.5169 4.57188 22.5302 4.42067 22.6177 4.27334ZM16.5279 3.95423C16.4211 3.92726 16.3053 3.9021 16.1817 3.8797C16.033 4.0954 15.8649 4.36374 15.698 4.66925C15.3524 5.30188 15.0397 6.04388 14.9169 6.7384C14.793 7.43972 14.8762 8.00329 15.1963 8.38964C15.5149 8.77402 16.1769 9.11389 17.519 9.11389C18.884 9.11389 19.4003 8.76467 19.5785 8.46188C19.7654 8.14444 19.7367 7.62398 19.402 6.92132C19.0803 6.2462 18.5361 5.53798 17.9615 4.97039C17.676 4.68835 17.3911 4.44905 17.1333 4.27051C16.8682 4.08684 16.6609 3.98782 16.5279 3.95423ZM13.2417 19.9034C12.9656 19.9034 12.7417 20.1273 12.7417 20.4034C12.7417 20.6796 12.9656 20.9034 13.2417 20.9034H18.322C18.5981 20.9034 18.822 20.6796 18.822 20.4034C18.822 20.1273 18.5981 19.9034 18.322 19.9034H13.2417ZM25.7709 20.4034C25.7709 20.1273 25.9948 19.9034 26.2709 19.9034H31.3511C31.6273 19.9034 31.8511 20.1273 31.8511 20.4034C31.8511 20.6796 31.6273 20.9034 31.3511 20.9034H26.2709C25.9948 20.9034 25.7709 20.6796 25.7709 20.4034ZM16.2159 25.4138C16.6954 25.4138 17.0842 25.0208 17.0842 24.536C17.0842 24.0512 16.6954 23.6583 16.2159 23.6583C15.7363 23.6583 15.3475 24.0512 15.3475 24.536C15.3475 25.0208 15.7363 25.4138 16.2159 25.4138ZM30.1134 24.536C30.1134 25.0208 29.7246 25.4138 29.2451 25.4138C28.7655 25.4138 28.3767 25.0208 28.3767 24.536C28.3767 24.0512 28.7655 23.6583 29.2451 23.6583C29.7246 23.6583 30.1134 24.0512 30.1134 24.536ZM13.0692 22.9027L19.3633 22.9027L18.8545 25.7305L13.5779 25.7305L13.0692 22.9027ZM12.085 23.0798C11.9746 22.4665 12.446 21.9027 13.0692 21.9027H19.3633C19.9864 21.9027 20.4578 22.4665 20.3475 23.0798L20.2654 23.5362H25.1963L25.1142 23.0798C25.0038 22.4665 25.4752 21.9027 26.0984 21.9027H32.3925C33.0156 21.9027 33.487 22.4665 33.3767 23.0798L32.8679 25.9076C32.7822 26.3839 32.3677 26.7305 31.8837 26.7305H26.6071C26.1232 26.7305 25.7086 26.3839 25.6229 25.9075L25.3762 24.5362H20.0855L19.8387 25.9076C19.753 26.3839 19.3385 26.7305 18.8545 26.7305H13.5779C13.094 26.7305 12.6795 26.3839 12.5937 25.9075L12.085 23.0798ZM32.3925 22.9027H26.0984L26.6071 25.7305H31.8837L32.3925 22.9027ZM22.6106 26.6842C22.8786 26.6179 23.1497 26.7815 23.216 27.0495L24.3655 31.6961C24.5215 32.3267 24.0443 32.9363 23.3948 32.9363H20.1248C19.8487 32.9363 19.6248 32.7124 19.6248 32.4363C19.6248 32.1601 19.8487 31.9363 20.1248 31.9363H23.3948L22.2453 27.2897C22.1789 27.0216 22.3425 26.7506 22.6106 26.6842ZM17.0653 35.7395C16.9327 35.4977 16.629 35.41 16.3871 35.5438C16.1451 35.6776 16.0565 35.9821 16.1891 36.2239C16.7174 37.1876 17.8401 38.3747 19.5168 38.8372C21.2171 39.3062 23.3919 39.0047 25.9546 37.1564C26.1789 36.9946 26.2305 36.6818 26.0699 36.4577C25.9092 36.2336 25.5971 36.1831 25.3728 36.3449C22.9966 38.0588 21.1302 38.2431 19.7855 37.8722C18.4173 37.4948 17.4912 36.5164 17.0653 35.7395Z" fill="#2C1E2F"/>
</svg>
