<svg width="45" height="45" viewBox="0 0 45 45" fill="none" xmlns="http://www.w3.org/2000/svg">
<path d="M22.2031 0C9.96078 0 0 9.96078 0 22.2031C0 34.4455 9.96078 44.4062 22.2031 44.4062C34.4455 44.4062 44.4062 34.4455 44.4062 22.2031C44.4062 9.96078 34.4455 0 22.2031 0ZM22.2031 42.875C10.803 42.875 1.53125 33.6033 1.53125 22.2031C1.53125 10.803 10.803 1.53125 22.2031 1.53125C33.6033 1.53125 42.875 10.803 42.875 22.2031C42.875 33.6033 33.6033 42.875 22.2031 42.875ZM34.5373 14.1564C34.8359 14.455 34.8359 14.9373 34.5373 15.2359L20.603 29.1703C20.4575 29.3158 20.2661 29.3923 20.0594 29.3923C19.8527 29.3923 19.6612 29.3081 19.5158 29.1703L12.0127 21.6672C11.7141 21.3686 11.7141 20.8862 12.0127 20.5877C12.3113 20.2891 12.7936 20.2891 13.0922 20.5877L20.0517 27.5472L33.4425 14.1564C33.7487 13.8578 34.2388 13.8578 34.5373 14.1564Z" fill="#28955B"/>
</svg>
