<svg width="26" height="23" viewBox="0 0 26 23" fill="none" xmlns="http://www.w3.org/2000/svg">
    <path fill-rule="evenodd" clip-rule="evenodd" d="M24.9641 0.517222C25.1463 0.448443 25.3338 0.605326 25.2981 0.79685L21.6009 20.6696C21.5678 20.8472 21.363 20.9322 21.2139 20.8302L12.5591 14.9084L17.7925 7.66208C18.2443 7.03658 17.5708 6.21866 16.8702 6.542L5.68835 11.7029L0.676494 10.1608C0.448776 10.0907 0.438841 9.77203 0.661751 9.68791L24.9641 0.517222ZM14.7711 17.0277L12.3337 15.3601L10.3155 21.0782L14.7711 17.0277ZM15.1952 17.3179L20.9316 21.2428C21.379 21.5489 21.9933 21.2939 22.0924 20.761L25.7897 0.888304C25.8966 0.31373 25.3344 -0.156916 24.7876 0.0494216L0.485223 9.22011C-0.183509 9.47246 -0.153702 10.4284 0.529451 10.6386L5.50577 12.1698L8.52388 22.0865C8.73471 22.7792 9.70764 22.8005 9.94863 22.1177L9.96435 22.0732L15.1952 17.3179ZM9.00222 21.9409L6.00888 12.1056L17.0798 6.99598C17.3133 6.8882 17.5378 7.16084 17.3872 7.36934L12.0036 14.8236L11.9825 14.8528L11.9705 14.8867L9.47714 21.9513C9.39681 22.1789 9.0725 22.1718 9.00222 21.9409Z" fill="#2C1E2F"/>
</svg>