<svg width="30" height="31" viewBox="0 0 30 31" fill="none" xmlns="http://www.w3.org/2000/svg">
<path d="M7.35327 22.6509C8.90351 27.0514 11.7497 30.0043 15.0019 30.0043C18.2542 30.0043 21.1004 27.0514 22.6506 22.6509C20.4114 23.4383 17.7948 23.8935 15.0019 23.8935C12.209 23.8935 9.59251 23.4383 7.35327 22.6509Z" fill="#2C1E2F"/>
<path d="M22.6467 7.35338C21.0965 2.95284 18.2503 0 14.998 0C11.7458 0 8.8996 2.95284 7.34937 7.35338C9.5886 6.56596 12.2051 6.11073 14.998 6.11073C17.7909 6.11073 20.4075 6.56596 22.6467 7.35338Z" fill="#2C1E2F"/>
<path d="M7.35338 7.35352C2.95284 8.90375 0 11.7499 0 15.0022C0 18.2544 2.95284 21.1006 7.35338 22.6508C6.56596 20.4116 6.11073 17.795 6.11073 15.0022C6.11073 12.2093 6.56186 9.59274 7.35338 7.35352Z" fill="#2C1E2F"/>
<path d="M30.0001 15.0022C30.0001 11.7499 27.0473 8.90375 22.6467 7.35352C23.4342 9.59274 23.8894 12.2093 23.8894 15.0022C23.8894 17.795 23.4383 20.4116 22.6467 22.6508C27.0514 21.1006 30.0001 18.2585 30.0001 15.0022Z" fill="#2C1E2F"/>
</svg>
