<svg width="24" height="25" viewBox="0 0 24 25" fill="none" xmlns="http://www.w3.org/2000/svg">
    <path d="M17.5376 14.0718L17.5374 14.0716C17.423 14.0026 17.2806 13.9093 17.133 13.8125L17.1263 13.8081L17.1263 13.8081C16.7385 13.5539 16.4052 13.3418 16.1083 13.193C15.8104 13.0437 15.5638 12.9658 15.3485 12.9658C15.2485 12.9658 15.1563 12.9827 15.074 13.0144L15.0739 13.0144C14.883 13.0879 14.7012 13.2261 14.5203 13.4069C14.3393 13.5877 14.1679 13.802 13.9931 14.0207L13.9931 14.0207L13.9857 14.03C13.8622 14.1845 13.6763 14.4171 13.5575 14.5266L13.5026 14.5772L13.429 14.5639C13.1776 14.5182 12.8152 14.3401 12.4007 14.0599C11.981 13.7762 11.4928 13.3775 10.9877 12.8729C10.4821 12.3677 10.0826 11.8795 9.79853 11.4599C9.51803 11.0456 9.33988 10.6834 9.29472 10.4325L9.28153 10.3592L9.3319 10.3044C9.44119 10.1855
                        9.67489 9.99905 9.83045 9.87494L9.84115 9.8664L9.84118 9.86638C10.0593 9.6924 10.2729 9.52181 10.4534 9.34171C10.6339 9.16163 10.7721 8.98069 10.846 8.79056C10.9338 8.56304 10.9041 8.29982 10.7602 7.95881C10.6157 7.61646 10.3673 7.22095 10.0516 6.74055L10.0516 6.74053L10.0479 6.73486C9.95084 6.5871 9.85706 6.44432 9.7883 6.33062L9.78817 6.3304C9.6662 6.1279 9.57154 5.95985 9.48885 5.81307L9.48521 5.8066L9.4852 5.80659C9.31011 5.49572 9.18033 5.26894 8.99842 5.11284C8.82613 4.965 8.59436 4.87168 8.19494 4.87168C7.95918 4.87168 7.65402 4.98564 7.33086 5.17636C7.012 5.36454 6.69383 5.61657 6.43669 5.86793M17.5376 14.0718L5.2891 8.20691C5.28913 7.43237 5.68732 6.60063 6.43669 5.86793M17.5376 14.0718C17.7425 14.1949 17.9125 14.2905 18.0611 14.374M17.5376 14.0718L18.0611 14.374M6.43669 5.86793L6.33183 5.76067M6.43669 5.86793L6.33183 5.76067M6.33183 5.76067C5.56273 6.51266 5.1391 7.38085 5.1391 8.207L9.93476 9.98361C10.3683 9.63786 10.8166 9.28034 10.9859
                        8.84468C11.202 8.28491 10.806 7.61545 10.177 6.65818L10.1746 6.65447C10.0765 6.50517 9.98395 6.36429 9.91666 6.253C9.79582 6.05238 9.70205 5.88592 9.61933 5.73908L9.6159 5.73298L9.6158 5.7328C9.27291 5.12403 9.04628 4.72168 8.19494 4.72168C7.64234 4.72168 6.86105 5.24334 6.33183 5.76067ZM18.0611 14.374C18.3723 14.549 18.5993 14.6786 18.7555 14.8603C18.9034 15.0324 18.9967 15.2638 18.9966 15.6627C18.9966 15.8977 18.8826 16.2009 18.6915 16.5222C18.503 16.8392 18.2504 17.1558 17.9984 17.4128L17.9984 17.4128C17.2654 18.1606 16.4324 18.5541 15.6576 18.5541H15.6567C13.4627 18.5541 10.9224 17.332 8.69429 15.1664L8.69411 15.1662M18.0611 14.374L8.69411 15.1662M8.69411 15.1662C8.68801 15.1603 8.68193 15.1553 8.67681 15.1515M8.69411 15.1662L8.67681 15.1515M9.30519 14.5509L9.30524 14.5509C7.34936 12.5403 6.1623 10.1731 6.16103 8.20827L6.16103 8.20818C6.16103 7.56957 6.57158 6.96917 7.00459 6.53382C7.2241 6.31311 7.45655 6.12748 7.66099 5.99233C7.76321 5.92476 7.85993 5.8688 7.94586 5.8272C8.02933 5.78679 8.11157 5.75547 8.18263 5.74457L8.19426 5.74279L8.20603 5.74284C8.29126 5.74321 8.34204 5.74823 8.37275 5.75343L8.42567 5.7624L8.46089 5.8029C8.49727 5.84475 8.54276 5.91761 8.58515 5.98894C8.62981 6.06411 8.67928 6.15194 8.72485 6.23286L8.72536 6.23377C8.80847 6.38132 8.91107 6.56345 9.04167 6.78027L8.91318 6.85767L9.04157 6.78009C9.11948
                        6.90903 9.21713 7.05764 9.32277 7.21839L9.32279 7.21841L9.32362 7.21967C9.42295 7.37087 9.57395 7.60072 9.70876 7.82579C9.77635 7.93862 9.84082 8.05182 9.89309 8.15444C9.94417 8.25475 9.98809 8.35352 10.0092 8.43502L10.0267 8.50244L9.98652 8.5593C9.91813 8.656 9.78881 8.77665 9.66388 8.88488C9.53539 8.99619 9.39669 9.10681 9.29828 9.1853L9.29722 9.18614C9.29722 9.18614 9.29722 9.18614 9.29722 9.18614C9.04125 9.3903 8.8177 9.56924 8.65618 9.75569C8.4972 9.93921 8.41126 10.1157 8.41121 10.3126C8.41149 10.5796 8.49839 10.8815 8.64492 11.1981C8.79082 11.5134 8.99152 11.834 9.20918 12.1359C9.64456 12.7397 10.1389 13.2565 10.3712 13.4886C10.6036 13.7207 11.1209 14.2146 11.7257
                        14.6495C12.028 14.8669 12.3492 15.0675 12.6651 15.2132C12.9823 15.3595 13.285 15.4464 13.553 15.4467C13.7487 15.446 13.9243 15.3601 14.1071 15.2018C14.2928 15.0409 14.4712 14.8185 14.6747 14.5639L14.6747 14.5639L14.6758 14.5626C14.7547 14.4638 14.866 14.3245 14.978 14.1957C15.0869 14.0704 15.2084 13.9405 15.3059 13.8724L15.3624 13.8329L15.4292 13.85C15.5108 13.871 15.6097 13.9149 15.7101 13.9659C15.8129 14.0181 15.9263 14.0825 16.0394 14.1501C16.2654 14.2852 16.4964 14.4367 16.6479 14.536L9.30519
                        14.5509ZM9.30519 14.5509L9.30827 14.5539C11.3207 16.5076 13.69 17.6933 15.6568 17.6948L15.6569 17.5448L15.6571 17.6948C16.2958 17.694 16.8967 17.284 17.3326 16.8516C17.5536 16.6323 17.7395 16.4003 17.8748 16.1962C17.9425 16.0941 17.9986 15.9976 18.0403 15.9118C18.0808 15.8285 18.1122 15.7464 18.1232 15.6754L18.1251 15.6636L18.125 15.6517C18.1246 15.5668 18.1196 15.516 18.1144 15.4852L18.1054 15.4323L18.0648 15.3971C18.023 15.3607 17.95 15.3153 17.8786 15.2729C17.8034 15.2284 17.7157 15.179 17.6348 15.1335L17.6336 15.1328L17.6335 15.1328C17.4858 15.0498 17.3036 14.9474 17.0874 14.8174C16.9579 14.7392 16.8096 14.642 16.6491 14.5369L16.6479 14.5361L9.30519 14.5509ZM8.67681 15.1515C6.51454 12.9278 5.29056 10.3955 5.2891 8.207L8.67681 15.1515Z" fill="#1C131E" stroke="white" stroke-width="0.3"/>
    <path d="M2.10967 18.1077L2.1356 18.0376L2.09538 17.9748C0.697609 15.7891 0.0432119 13.1897 0.249447 10.6219C0.466871 7.91586 1.63571 5.3779 3.54021 3.47531C5.68658 1.33117 8.56027 0.15 11.6339 0.15C14.8182 0.15 17.8274 1.40392 20.1081 3.68235C22.3475 5.91949 23.6023 8.8714 23.6429 11.995C23.6836 15.1238 22.5018 18.0346 20.3154 20.2188C18.1696 22.3624 15.2962 23.5296 12.2226 23.5296H12.2224C9.99392 23.5296 7.8244 22.9215 5.92718 21.7418L5.861 21.7007L5.78929 21.7312L0.756217 23.8708C0.692265 23.898 0.63541 23.9125 0.58614 23.9125C0.475947 23.9125 0.367656 23.8709 0.285015 23.792L0.284993 23.792C0.159176 23.6721 0.116846 23.489 0.177141 23.3261L2.10967 18.1077ZM5.73335 20.8233L5.7334 20.8233C5.78799 20.8001 5.84585 20.7887 5.90358 20.7887C5.98769 20.7887 6.0712 20.8129 6.14344 20.8605C7.95944 22.0555 10.0616 22.6873 12.2223 22.6874C15.0609 22.6874 17.7167 21.5975 19.6987 19.6175C21.7177 17.6005 22.8087 14.8967 22.7711 12.0063C22.7334 9.11019 21.5681 6.37243 19.4915 4.2979C17.3767 2.18516 14.5858 1.02069 11.6339 1.02069C8.79494 1.02069 6.1389 2.11085 4.15682 4.09092C0.558789 7.68527 0.0683072 13.4248 2.98261 17.7379C3.06107 17.8541 3.07876 18.0009 3.0301 18.1324C3.0301 18.1324 3.0301 18.1324 3.03009 18.1325L1.46565 22.3569L1.34503 22.6826L1.66483 22.5471L5.73335 20.8233Z" fill="#1C131E" stroke="white" stroke-width="0.3"/>
</svg>