<svg width="23" height="23" viewBox="0 0 23 23" fill="none" xmlns="http://www.w3.org/2000/svg">
    <path fill-rule="evenodd" clip-rule="evenodd" d="M13.4543 22.105C16.0445 21.6752 18.3878 20.3124 20.0421 18.2737C21.6965 16.2349 22.5476 13.6612 22.4347 11.0381C22.3219 8.41493 21.253 5.92379 19.4297 4.03461C17.6063 2.14544 15.1547 0.988862 12.5372 0.783084C9.91972 0.577308 7.31743 1.33656 5.22129 2.9176C3.12514 4.49863 1.68008 6.79213 1.15873 9.3654C0.653939 11.8569 1.04889 14.4439 2.2685 16.6682L2.30118 16.6493C2.33614 16.8485 2.35859 17.0387 2.36855 17.2219L0.76406 22.0744C0.697783 22.2748 0.894441 22.4621 1.09141 22.3861L5.68172 20.6151L5.68256 20.6137C5.86035 20.6183 6.04429 20.639 6.23017 20.6817L6.19548 20.737C7.0116 21.2229 7.88263 21.595 8.78467 21.8487C9.11601 21.9537 9.44462 22.0284 9.77634 22.0775C10.9819 22.2961 12.2257 22.3089 13.4543 22.105ZM1.90251 17.0386C0.569508 14.682 0.130547 11.9222 0.668682 9.26611C1.21428 6.57316 2.72656 4.17299 4.9202 2.51841C7.11384 0.86384 9.83716 0.0692747 12.5764 0.284624C15.3156 0.499971 17.8813 1.71034 19.7894 3.68738C21.6976 5.66443 22.8162 8.27144 22.9343 11.0166C23.0523 13.7617 22.1617 16.4551 20.4304 18.5887C18.6991 20.7223 16.2468 22.1485 13.5362 22.5983C10.8669 23.0412 8.12894 22.507 5.82332 21.0964L1.27139 22.8526C0.680482 23.0805 0.0905027 22.5187 0.289339 21.9174L1.90251 17.0386ZM8.39539 5.18888C8.23746 4.91252 7.91001 4.75136 7.58178 4.84284C5.83257 5.33037 5.02093 6.59527 4.79121 7.31918C4.75408 7.43617 4.75535 7.55542 4.77553 7.65865C5.80375 12.9172 8.21437 15.5807 10.5887 16.9191C12.9498 18.25 15.24 18.25 15.9978 18.25H15.9995C16.6527 18.25 17.2024 17.7752 17.6168 17.2403C18.0408 16.693 18.3757 16.016 18.5906 15.4768C18.7282 15.1316 18.5751 14.7553 18.2677 14.5796L15.4551 12.9724C15.1617 12.8048 14.7924 12.8536 14.5531 13.0929L14.5513 13.0947L14.5496 13.0964L14.5479 13.0981L14.5461 13.0999L14.5444 13.1016L14.5426 13.1034L14.5408 13.1051L14.5391 13.1069L14.5373 13.1087L14.5355 13.1105L14.5338 13.1122L14.532 13.114L14.5302 13.1158L14.5284 13.1176L14.5266 13.1194L14.5248 13.1212L14.523 13.123L14.5212 13.1248L14.5194 13.1266L14.5175 13.1285L14.5157 13.1303L14.5139 13.1321L14.512 13.134L14.5102 13.1358L14.5084 13.1376L14.5065 13.1395L14.5046 13.1413L14.5028 13.1432L14.5009 13.1451L14.499 13.1469L14.4972 13.1488L14.4953 13.1507L14.4934 13.1526L14.4915 13.1545L14.4896 13.1564L14.4877 13.1583L14.4858 13.1602L14.4839 13.1621L14.482 13.164L14.4801 13.1659L14.4781 13.1679L14.4762 13.1698L14.4743 13.1717L14.4723 13.1737L14.4704 13.1756L14.4684 13.1776L14.4665 13.1795L14.4645 13.1815L14.4626 13.1834L14.4606 13.1854L14.4586 13.1874L14.4566 13.1894L14.4546 13.1914L14.4526 13.1933L14.4507 13.1953L14.4487 13.1973L14.4467 13.1993L14.4446 13.2014L14.4426 13.2034L14.4406 13.2054L14.4386 13.2074L14.4366 13.2094L14.4345 13.2115L14.4325 13.2135L14.4304 13.2156L14.4284 13.2176L14.4263 13.2197L14.4243 13.2217L14.4222 13.2238L14.4201 13.2259L14.4181 13.2279L14.416 13.23L14.4139 13.2321L14.4118 13.2342L14.4097 13.2363L14.4076 13.2384L14.4055 13.2405L14.4034 13.2426L14.4013 13.2447L14.3992 13.2468L14.397 13.249L14.3949 13.2511L14.3928 13.2532L14.3906 13.2554L14.3885 13.2575L14.3863 13.2597L14.3842 13.2618L14.382 13.264L14.3799 13.2661L14.3777 13.2683L14.3755 13.2705L14.3733 13.2727L14.3712 13.2748L14.369 13.277L14.3668 13.2792L14.3646 13.2814L14.3624 13.2836L14.3602 13.2858L14.3579 13.2881L14.3557 13.2903L14.3535 13.2925L14.3513 13.2947L14.349 13.297L14.3468 13.2992L14.3446 13.3014L14.3423 13.3037L14.34 13.3059L14.3378 13.3082L14.3355 13.3105L14.3333 13.3127L14.331 13.315L14.3287 13.3173L14.3264 13.3196L14.3241 13.3219L14.3218 13.3242L14.3195 13.3265L14.3172 13.3288L14.3149 13.3311L14.3126 13.3334L14.3103 13.3357L14.308 13.338L14.3056 13.3404L14.3033 13.3427L14.301 13.345L14.2986 13.3474L14.2963 13.3497L14.2939 13.3521L14.2915 13.3545L14.2892 13.3568L14.2868 13.3592L14.2844 13.3616L14.2821 13.3639L14.2797 13.3663L14.2773 13.3687L14.2749 13.3711L14.2725 13.3735L14.2701 13.3759L14.2677 13.3783L14.2652 13.3808L14.2628 13.3832L14.2604 13.3856L14.258 13.388L14.2555 13.3905L14.2531 13.3929L14.2506 13.3954L14.2482 13.3978L14.2457 13.4003L14.2433 13.4027L14.2408 13.4052L14.2383 13.4077L14.2359 13.4101L14.2334 13.4126L14.2309 13.4151L14.2284 13.4176L14.2259 13.4201L14.2234 13.4226L14.2209 13.4251L14.2184 13.4276L14.2159 13.4301L14.2133 13.4327L14.2108 13.4352L14.2083 13.4377L14.2057 13.4403L14.2032 13.4428L14.2006 13.4453L14.1981 13.4479L14.1955 13.4505L14.193 13.453L14.1904 13.4556L14.1878 13.4582L14.1853 13.4607L14.1827 13.4633L14.1801 13.4659L14.1775 13.4685L14.1749 13.4711L14.1723 13.4737L14.1697 13.4763L14.1671 13.4789L14.1644 13.4816L14.1618 13.4842L14.1592 13.4868L14.1566 13.4894L14.1539 13.4921L14.1513 13.4947L14.1486 13.4974L14.146 13.5L14.1433 13.5027L14.1406 13.5054L14.138 13.508L14.1353 13.5107L14.1326 13.5134L14.1299 13.5161L14.1272 13.5188L14.1245 13.5215L14.1218 13.5242L14.1191 13.5269L14.1164 13.5296L14.1137 13.5323L14.111 13.535L14.1082 13.5378L14.1055 13.5405L14.1028 13.5432L14.1 13.546L14.0973 13.5487L14.0945 13.5515L14.0918 13.5542L14.089 13.557L14.0862 13.5598L14.0835 13.5625L14.0807 13.5653L14.0779 13.5681L14.0751 13.5709L14.0723 13.5737L14.0695 13.5765L14.0667 13.5793L14.0639 13.5821L14.0611 13.5849L14.0583 13.5877L14.0555 13.5905L14.0526 13.5934L14.0498 13.5962L14.0469 13.5991L14.0441 13.6019L14.0412 13.6047L14.0384 13.6076L14.0355 13.6105L14.0327 13.6133L14.0298 13.6162L14.0269 13.6191L14.024 13.622L14.0211 13.6249L14.0183 13.6277L14.0154 13.6306L14.0125 13.6335L14.0095 13.6365L14.0066 13.6394L14.0037 13.6423L14.0008 13.6452L13.9979 13.6481L13.9949 13.6511L13.992 13.654L13.989 13.657L13.9861 13.6599L13.9831 13.6629L13.9802 13.6658L13.9772 13.6688L13.9742 13.6718L13.9713 13.6747L13.9683 13.6777L13.9653 13.6807L13.9623 13.6837L13.9593 13.6867L13.9563 13.6897L13.9533 13.6927L13.9503 13.6957L13.9473 13.6987L13.9443 13.7017L13.9412 13.7048L13.9382 13.7078L13.9352 13.7108L13.9321 13.7139L13.9291 13.7169L13.926 13.72L13.923 13.723L13.9199 13.7261L13.9168 13.7292L13.9137 13.7322L13.9107 13.7353L13.9076 13.7384L13.9045 13.7415L13.9014 13.7446L13.8983 13.7477L13.8952 13.7508L13.8921 13.7539L13.889 13.757L13.8858 13.7602L13.8827 13.7633L13.8796 13.7664L13.8764 13.7696L13.8733 13.7727L13.8702 13.7758L13.867 13.779L13.8638 13.7822L13.8607 13.7853L13.8575 13.7885L13.8543 13.7917L13.8512 13.7948L13.848 13.798L13.8448 13.8012L13.8416 13.8044L13.8384 13.8076L13.8352 13.8108L13.832 13.814L13.8288 13.8172L13.8255 13.8205L13.8223 13.8237L13.8191 13.8269L13.8158 13.8302L13.8126 13.8334L13.8094 13.8366L13.8061 13.8399L13.8028 13.8432L13.7996 13.8464L13.7963 13.8497L13.793 13.853L13.7898 13.8562L13.7865 13.8595L13.7832 13.8628L13.7799 13.8661L13.7766 13.8694L13.7733 13.8727L13.77 13.876L13.7667 13.8793L13.7633 13.8827L13.76 13.886L13.7567 13.8893L13.7533 13.8927L13.75 13.896L13.7466 13.8994L13.7433 13.9027L13.7399 13.9061L13.7366 13.9094L13.7332 13.9128L13.7298 13.9162L13.7264 13.9196L13.7231 13.9229L13.7197 13.9263L13.7163 13.9297L13.7129 13.9331L13.7095 13.9365L13.7061 13.9399L13.7026 13.9434L13.6992 13.9468L13.6958 13.9502L13.6924 13.9536L13.6889 13.9571L13.6855 13.9605L13.682 13.964L13.6786 13.9674L13.6751 13.9709L13.6716 13.9743L13.6682 13.9778L13.6647 13.9813L13.6612 13.9848L13.6577 13.9883L13.6542 13.9917L13.6508 13.9952L13.6472 13.9987L13.6437 14.0023L13.6402 14.0058L13.6367 14.0093L13.6332 14.0128L13.6297 14.0163L13.6261 14.0199L13.6226 14.0234L13.619 14.027L13.6155 14.0305L13.6119 14.0341L13.6084 14.0376L13.6048 14.0412L13.6012 14.0448L13.5977 14.0483L13.5941 14.0519L13.5905 14.0555L13.5869 14.0591L13.5833 14.0627L13.5797 14.0663L13.5761 14.0699L13.5725 14.0735L13.5689 14.0771L13.5652 14.0808L13.5616 14.0844L13.558 14.088L13.5543 14.0917L13.5507 14.0953L13.547 14.099L13.5434 14.1026L13.5397 14.1063L13.536 14.11L13.5324 14.1136L13.5287 14.1173L13.525 14.121L13.5213 14.1247L13.5176 14.1284L13.5139 14.1321L13.5102 14.1358L13.5065 14.1395L13.5028 14.1432L13.4991 14.1469L13.4953 14.1507L13.4916 14.1544L13.4879 14.1581L13.4841 14.1619L13.4804 14.1656L13.4766 14.1694L13.4729 14.1731L13.4691 14.1769L13.4653 14.1807L13.4616 14.1844L13.4578 14.1882L13.454 14.192L13.4502 14.1958L13.4464 14.1996L13.4426 14.2034L13.4388 14.2072L13.435 14.211L13.4312 14.2148L13.4273 14.2187L13.4235 14.2225L13.4197 14.2263L13.4158 14.2302L13.412 14.234L13.4081 14.2379L13.4043 14.2417L13.4004 14.2456L13.3966 14.2494L13.3927 14.2533L13.3888 14.2572L13.3849 14.2611L13.381 14.265L13.3771 14.2689L13.3732 14.2728L13.3693 14.2767L13.3654 14.2806L13.3615 14.2845L13.3576 14.2884L13.3537 14.2923L13.3497 14.2963L13.3458 14.3002L13.3418 14.3042L13.3379 14.3081L13.3339 14.3121L13.33 14.316L13.326 14.32L13.322 14.3239L13.3181 14.3279L13.3141 14.3319L13.3101 14.3359L13.3061 14.3399L13.3021 14.3439L13.2981 14.3479L13.2941 14.3519L13.2901 14.3559L13.2861 14.3599L13.282 14.3639L13.278 14.368L13.274 14.372L13.2699 14.3761L13.2659 14.3801L13.2618 14.3842L13.2578 14.3882L13.2537 14.3923L13.2497 14.3963L13.2456 14.4004L13.2415 14.4045L13.2374 14.4086L13.2333 14.4127L13.2292 14.4168L13.2251 14.4209L13.221 14.425L13.2169 14.4291L13.2128 14.4332L13.2087 14.4373L13.2045 14.4415L13.2004 14.4456L13.1963 14.4497L13.1921 14.4539L13.188 14.458L13.1838 14.4622L13.1797 14.4663L13.1755 14.4705L13.1713 14.4747L13.1671 14.4789L13.163 14.483L13.1588 14.4872L13.1546 14.4914L13.1504 14.4956L13.1462 14.4998L13.142 14.504L13.1377 14.5083L13.1335 14.5125L13.1293 14.5167L13.1251 14.5209L13.1208 14.5252L13.1166 14.5294L13.1123 14.5337L13.1081 14.5379L13.1038 14.5422L13.0996 14.5464L13.0953 14.5507L13.091 14.555L13.0867 14.5593L13.0824 14.5636L13.0781 14.5679L13.0738 14.5722L13.0695 14.5765L13.0652 14.5808L13.0609 14.5851L13.0566 14.5894L13.0523 14.5937L13.0479 14.5981L13.0436 14.6024L13.0393 14.6067L13.0349 14.6111L13.0306 14.6154L13.0262 14.6198L13.0218 14.6242L13.0175 14.6285L13.0131 14.6329L13.0087 14.6373L13.0043 14.6417L12.9999 14.6461C12.9422 14.7038 12.8667 14.7258 12.8011 14.7129C11.6347 14.4838 10.6703 13.8195 9.91881 13.0348C9.16708 12.2499 8.64014 11.3563 8.34987 10.6966C8.31566 10.6189 8.33238 10.5207 8.40396 10.4491L9.90626 8.94684C10.1454 8.70769 10.1949 8.33806 10.0271 8.04441L8.39539 5.18888ZM7.71602 5.32448C7.80242 5.3004 7.90564 5.3396 7.96127 5.43695L9.59299 8.29248C9.64893 8.39036 9.63243 8.51357 9.55271 8.59329L8.05041 10.0956C7.84471 10.3013 7.76849 10.6168 7.89221 10.898C8.20207 11.6022 8.75938 12.5471 9.55771 13.3807C10.3563 14.2145 11.4077 14.9487 12.7048 15.2035C12.948 15.2513 13.1886 15.1645 13.3535 14.9996L13.3579 14.9952L13.3623 14.9909L13.3666 14.9865L13.371 14.9821L13.3754 14.9777L13.3797 14.9734L13.3841 14.969L13.3885 14.9646L13.3928 14.9603L13.3972 14.956L13.4015 14.9516L13.4058 14.9473L13.4101 14.943L13.4145 14.9386L13.4188 14.9343L13.4231 14.93L13.4274 14.9257L13.4317 14.9214L13.436 14.9171L13.4403 14.9128L13.4446 14.9085L13.4488 14.9043L13.4531 14.9L13.4574 14.8957L13.4616 14.8915L13.4659 14.8872L13.4701 14.883L13.4744 14.8787L13.4786 14.8745L13.4829 14.8703L13.4871 14.866L13.4913 14.8618L13.4955 14.8576L13.4997 14.8534L13.5039 14.8492L13.5081 14.845L13.5123 14.8408L13.5165 14.8366L13.5207 14.8324L13.5249 14.8282L13.529 14.8241L13.5332 14.8199L13.5374 14.8157L13.5415 14.8116L13.5457 14.8074L13.5498 14.8033L13.554 14.7991L13.5581 14.795L13.5622 14.7909L13.5663 14.7868L13.5705 14.7826L13.5746 14.7785L13.5787 14.7744L13.5828 14.7703L13.5869 14.7662L13.591 14.7621L13.5951 14.758L13.5991 14.754L13.6032 14.7499L13.6073 14.7458L13.6113 14.7418L13.6154 14.7377L13.6194 14.7337L13.6235 14.7296L13.6275 14.7256L13.6316 14.7215L13.6356 14.7175L13.6396 14.7135L13.6436 14.7095L13.6477 14.7054L13.6517 14.7014L13.6557 14.6974L13.6597 14.6934L13.6637 14.6894L13.6676 14.6855L13.6716 14.6815L13.6756 14.6775L13.6796 14.6735L13.6835 14.6696L13.6875 14.6656L13.6915 14.6617L13.6954 14.6577L13.6993 14.6538L13.7033 14.6498L13.7072 14.6459L13.7111 14.642L13.7151 14.638L13.719 14.6341L13.7229 14.6302L13.7268 14.6263L13.7307 14.6224L13.7346 14.6185L13.7385 14.6146L13.7424 14.6107L13.7462 14.6069L13.7501 14.603L13.754 14.5991L13.7578 14.5953L13.7617 14.5914L13.7655 14.5876L13.7694 14.5837L13.7732 14.5799L13.7771 14.576L13.7809 14.5722L13.7847 14.5684L13.7885 14.5646L13.7923 14.5608L13.7962 14.5569L13.8 14.5531L13.8038 14.5493L13.8075 14.5456L13.8113 14.5418L13.8151 14.538L13.8189 14.5342L13.8227 14.5304L13.8264 14.5267L13.8302 14.5229L13.8339 14.5192L13.8377 14.5154L13.8414 14.5117L13.8452 14.5079L13.8489 14.5042L13.8526 14.5005L13.8563 14.4968L13.8601 14.493L13.8638 14.4893L13.8675 14.4856L13.8712 14.4819L13.8749 14.4782L13.8786 14.4745L13.8822 14.4709L13.8859 14.4672L13.8896 14.4635L13.8933 14.4598L13.8969 14.4562L13.9006 14.4525L13.9042 14.4489L13.9079 14.4452L13.9115 14.4416L13.9152 14.4379L13.9188 14.4343L13.9224 14.4307L13.926 14.4271L13.9296 14.4235L13.9333 14.4199L13.9369 14.4162L13.9405 14.4127L13.944 14.4091L13.9476 14.4055L13.9512 14.4019L13.9548 14.3983L13.9584 14.3947L13.9619 14.3912L13.9655 14.3876L13.969 14.3841L13.9726 14.3805L13.9761 14.377L13.9797 14.3734L13.9832 14.3699L13.9867 14.3664L13.9903 14.3628L13.9938 14.3593L13.9973 14.3558L14.0008 14.3523L14.0043 14.3488L14.0078 14.3453L14.0113 14.3418L14.0148 14.3383L14.0183 14.3348L14.0217 14.3314L14.0252 14.3279L14.0287 14.3244L14.0321 14.321L14.0356 14.3175L14.039 14.3141L14.0425 14.3106L14.0459 14.3072L14.0493 14.3038L14.0528 14.3003L14.0562 14.2969L14.0596 14.2935L14.063 14.2901L14.0664 14.2867L14.0698 14.2833L14.0732 14.2799L14.0766 14.2765L14.08 14.2731L14.0834 14.2697L14.0868 14.2663L14.0901 14.263L14.0935 14.2596L14.0968 14.2563L14.1002 14.2529L14.1035 14.2496L14.1069 14.2462L14.1102 14.2429L14.1136 14.2395L14.1169 14.2362L14.1202 14.2329L14.1235 14.2296L14.1268 14.2263L14.1301 14.223L14.1334 14.2197L14.1367 14.2164L14.14 14.2131L14.1433 14.2098L14.1466 14.2065L14.1499 14.2032L14.1531 14.2L14.1564 14.1967L14.1597 14.1935L14.1629 14.1902L14.1662 14.187L14.1694 14.1837L14.1726 14.1805L14.1759 14.1772L14.1791 14.174L14.1823 14.1708L14.1855 14.1676L14.1887 14.1644L14.1919 14.1612L14.1951 14.158L14.1983 14.1548L14.2015 14.1516L14.2047 14.1484L14.2079 14.1452L14.2111 14.142L14.2142 14.1389L14.2174 14.1357L14.2206 14.1325L14.2237 14.1294L14.2269 14.1262L14.23 14.1231L14.2331 14.12L14.2363 14.1168L14.2394 14.1137L14.2425 14.1106L14.2456 14.1075L14.2487 14.1044L14.2519 14.1013L14.255 14.0982L14.258 14.0951L14.2611 14.092L14.2642 14.0889L14.2673 14.0858L14.2704 14.0827L14.2734 14.0797L14.2765 14.0766L14.2796 14.0735L14.2826 14.0705L14.2857 14.0674L14.2887 14.0644L14.2918 14.0614L14.2948 14.0583L14.2978 14.0553L14.3008 14.0523L14.3039 14.0493L14.3069 14.0462L14.3099 14.0432L14.3129 14.0402L14.3159 14.0372L14.3189 14.0342L14.3218 14.0313L14.3248 14.0283L14.3278 14.0253L14.3308 14.0223L14.3337 14.0194L14.3367 14.0164L14.3396 14.0135L14.3426 14.0105L14.3455 14.0076L14.3485 14.0046L14.3514 14.0017L14.3543 13.9988L14.3573 13.9958L14.3602 13.9929L14.3631 13.99L14.366 13.9871L14.3689 13.9842L14.3718 13.9813L14.3747 13.9784L14.3776 13.9755L14.3805 13.9726L14.3833 13.9698L14.3862 13.9669L14.3891 13.964L14.3919 13.9612L14.3948 13.9583L14.3977 13.9555L14.4005 13.9526L14.4033 13.9498L14.4062 13.9469L14.409 13.9441L14.4118 13.9413L14.4146 13.9385L14.4175 13.9356L14.4203 13.9328L14.4231 13.93L14.4259 13.9272L14.4287 13.9244L14.4315 13.9216L14.4342 13.9189L14.437 13.9161L14.4398 13.9133L14.4426 13.9105L14.4453 13.9078L14.4481 13.905L14.4508 13.9023L14.4536 13.8995L14.4563 13.8968L14.4591 13.894L14.4618 13.8913L14.4645 13.8886L14.4672 13.8859L14.47 13.8831L14.4727 13.8804L14.4754 13.8777L14.4781 13.875L14.4808 13.8723L14.4835 13.8696L14.4862 13.8669L14.4888 13.8643L14.4915 13.8616L14.4942 13.8589L14.4969 13.8563L14.4995 13.8536L14.5022 13.8509L14.5048 13.8483L14.5075 13.8456L14.5101 13.843L14.5127 13.8404L14.5154 13.8377L14.518 13.8351L14.5206 13.8325L14.5232 13.8299L14.5258 13.8273L14.5284 13.8247L14.531 13.8221L14.5336 13.8195L14.5362 13.8169L14.5388 13.8143L14.5414 13.8117L14.544 13.8091L14.5465 13.8066L14.5491 13.804L14.5516 13.8015L14.5542 13.7989L14.5567 13.7964L14.5593 13.7938L14.5618 13.7913L14.5644 13.7887L14.5669 13.7862L14.5694 13.7837L14.5719 13.7812L14.5744 13.7787L14.5769 13.7762L14.5795 13.7737L14.582 13.7712L14.5844 13.7687L14.5869 13.7662L14.5894 13.7637L14.5919 13.7612L14.5944 13.7587L14.5968 13.7563L14.5993 13.7538L14.6017 13.7514L14.6042 13.7489L14.6066 13.7465L14.6091 13.744L14.6115 13.7416L14.6139 13.7392L14.6164 13.7367L14.6188 13.7343L14.6212 13.7319L14.6236 13.7295L14.626 13.7271L14.6284 13.7247L14.6308 13.7223L14.6332 13.7199L14.6356 13.7175L14.638 13.7151L14.6404 13.7127L14.6427 13.7104L14.6451 13.708L14.6475 13.7056L14.6498 13.7033L14.6522 13.7009L14.6545 13.6986L14.6568 13.6963L14.6592 13.6939L14.6615 13.6916L14.6638 13.6893L14.6662 13.6869L14.6685 13.6846L14.6708 13.6823L14.6731 13.68L14.6754 13.6777L14.6777 13.6754L14.68 13.6731L14.6823 13.6708L14.6845 13.6686L14.6868 13.6663L14.6891 13.664L14.6913 13.6618L14.6936 13.6595L14.6959 13.6572L14.6981 13.655L14.7004 13.6528L14.7026 13.6505L14.7048 13.6483L14.7071 13.646L14.7093 13.6438L14.7115 13.6416L14.7137 13.6394L14.7159 13.6372L14.7181 13.635L14.7203 13.6328L14.7225 13.6306L14.7247 13.6284L14.7269 13.6262L14.7291 13.624L14.7312 13.6219L14.7334 13.6197L14.7356 13.6175L14.7377 13.6154L14.7399 13.6132L14.742 13.6111L14.7442 13.6089L14.7463 13.6068L14.7485 13.6046L14.7506 13.6025L14.7527 13.6004L14.7548 13.5983L14.757 13.5962L14.7591 13.594L14.7612 13.5919L14.7633 13.5898L14.7654 13.5877L14.7674 13.5857L14.7695 13.5836L14.7716 13.5815L14.7737 13.5794L14.7758 13.5773L14.7778 13.5753L14.7799 13.5732L14.7819 13.5712L14.784 13.5691L14.786 13.5671L14.7881 13.565L14.7901 13.563L14.7921 13.561L14.7942 13.5589L14.7962 13.5569L14.7982 13.5549L14.8002 13.5529L14.8022 13.5509L14.8042 13.5489L14.8062 13.5469L14.8082 13.5449L14.8102 13.5429L14.8122 13.5409L14.8141 13.539L14.8161 13.537L14.8181 13.535L14.82 13.5331L14.822 13.5311L14.8239 13.5292L14.8259 13.5272L14.8278 13.5253L14.8298 13.5233L14.8317 13.5214L14.8336 13.5195L14.8355 13.5176L14.8375 13.5157L14.8394 13.5137L14.8413 13.5118L14.8432 13.5099L14.8451 13.508L14.847 13.5061L14.8488 13.5043L14.8507 13.5024L14.8526 13.5005L14.8545 13.4986L14.8563 13.4968L14.8582 13.4949L14.8601 13.493L14.8619 13.4912L14.8638 13.4893L14.8656 13.4875L14.8674 13.4857L14.8693 13.4838L14.8711 13.482L14.8729 13.4802L14.8747 13.4784L14.8765 13.4766L14.8784 13.4747L14.8802 13.4729L14.882 13.4711L14.8837 13.4694L14.8855 13.4676L14.8873 13.4658L14.8891 13.464L14.8909 13.4622L14.8926 13.4605L14.8944 13.4587L14.8962 13.4569L14.8979 13.4552L14.8997 13.4534L14.9014 13.4517L14.9031 13.45L14.9049 13.4482L14.9066 13.4465C14.9861 13.367 15.1089 13.3505 15.2071 13.4066L18.0196 15.0137C18.1261 15.0746 18.165 15.1941 18.1261 15.2917C17.9211 15.806 17.6069 16.4368 17.2216 16.934C16.8268 17.4437 16.407 17.75 15.9995 17.75C15.2608 17.75 13.0792 17.749 10.8342 16.4836C8.60082 15.2246 6.26947 12.6935 5.26624 7.5627C5.25861 7.52366 5.26106 7.4916 5.26779 7.47041C5.4551 6.88015 6.15507 5.75954 7.71602 5.32448Z" fill="#2C1E2F"/>
</svg>